<svg xmlns="http://www.w3.org/2000/svg" viewBox="0 0 717.7 41.5">
<style type="text/css">
	.st0{fill:#FFFFFF;}
</style>
<polygon class="st0" points="21.9,6.2 21.9,23.4 10,6.2 0,6.2 0,36.2 7.7,36.2 7.7,15.6 21.5,36.2 29.6,36.2 29.6,6.2 "/>
<path class="st0" d="M57.6,26.2H39.6c0.1,1.8,0.9,3.2,2.2,4.1c1.4,0.9,3.3,1.4,6,1.4c1.7,0,3.3-0.3,4.8-0.9c1.6-0.6,2.8-1.2,3.7-1.8
	h0.9v5.8c-1.8,0.7-3.5,1.1-5,1.4c-1.6,0.3-3.3,0.4-5.2,0.4c-4.9,0-8.7-1-11.3-3.1c-2.6-2-3.9-5-3.9-8.8c0-3.7,1.2-6.7,3.7-8.9
	c2.5-2.2,5.9-3.3,10.2-3.3c4,0,7,0.9,9,2.8c2,1.9,3,4.6,3,8.1V26.2z M49.7,22c0-1.5-0.4-2.7-1.2-3.5c-0.8-0.8-2-1.2-3.6-1.2
	c-1.5,0-2.8,0.4-3.7,1.1c-1,0.7-1.5,1.9-1.6,3.5H49.7z"/>
<path class="st0" d="M84.3,36.2h-7.9v-2.5c-1.5,1-2.8,1.8-4,2.3c-1.2,0.5-2.6,0.8-4.3,0.8c-2.7,0-4.8-0.7-6.2-2.2
	c-1.5-1.4-2.2-3.6-2.2-6.4V13.5h7.9v11.3c0,1.1,0,2.1,0.1,2.9c0.1,0.8,0.3,1.4,0.6,1.9c0.3,0.5,0.7,0.9,1.2,1.1
	c0.6,0.2,1.3,0.3,2.3,0.3c0.7,0,1.4-0.1,2.2-0.3c0.8-0.2,1.6-0.6,2.3-1V13.5h7.9V36.2z"/>
<path class="st0" d="M109.5,29.1c0,2.3-1.1,4.2-3.4,5.7c-2.3,1.4-5.4,2.2-9.3,2.2c-2.2,0-4.2-0.2-6-0.6c-1.8-0.4-3.2-0.8-4.3-1.2v-6
	h0.7c0.4,0.3,0.8,0.5,1.4,0.8c0.5,0.3,1.3,0.6,2.2,1c0.8,0.3,1.7,0.6,2.8,0.8c1,0.2,2.1,0.3,3.3,0.3c1.6,0,2.7-0.2,3.4-0.5
	c0.7-0.3,1.1-0.8,1.1-1.4c0-0.6-0.2-1-0.7-1.2c-0.4-0.3-1.3-0.5-2.5-0.7c-0.6-0.1-1.4-0.3-2.4-0.4c-1-0.1-1.9-0.3-2.7-0.5
	c-2.2-0.5-3.9-1.4-5-2.5c-1.1-1.1-1.6-2.6-1.6-4.3c0-2.2,1.1-4,3.4-5.4c2.2-1.5,5.3-2.2,9.2-2.2c1.8,0,3.6,0.2,5.3,0.5
	c1.7,0.3,3,0.7,3.9,1.1v5.7h-0.7c-1.2-0.7-2.5-1.3-4-1.8c-1.5-0.5-3-0.7-4.5-0.7c-1.3,0-2.3,0.2-3.2,0.5c-0.9,0.3-1.3,0.8-1.3,1.4
	c0,0.5,0.2,1,0.6,1.2c0.4,0.3,1.3,0.6,2.8,0.9c0.8,0.1,1.7,0.3,2.6,0.4c0.9,0.1,1.9,0.3,2.8,0.5c2.1,0.5,3.6,1.3,4.6,2.4
	C109,26.1,109.5,27.5,109.5,29.1"/>
<path class="st0" d="M138,24.9c0,3.7-1.2,6.7-3.5,8.8c-2.4,2.2-5.7,3.2-9.9,3.2c-4.3,0-7.6-1.1-9.9-3.2c-2.4-2.2-3.5-5.1-3.5-8.8
	c0-3.8,1.2-6.7,3.6-8.9c2.4-2.1,5.7-3.2,9.9-3.2c4.3,0,7.6,1.1,9.9,3.2C136.8,18.2,138,21.2,138,24.9 M128.3,30.4
	c0.5-0.6,0.9-1.3,1.2-2.1c0.3-0.8,0.4-2,0.4-3.4c0-1.3-0.1-2.5-0.4-3.4c-0.3-0.9-0.6-1.6-1.1-2.2c-0.5-0.6-1-0.9-1.7-1.2
	c-0.7-0.2-1.4-0.3-2.1-0.3c-0.8,0-1.4,0.1-2,0.3c-0.6,0.2-1.2,0.6-1.7,1.1c-0.5,0.5-0.9,1.3-1.2,2.2c-0.3,0.9-0.4,2.1-0.4,3.5
	c0,1.2,0.1,2.3,0.4,3.2c0.2,0.9,0.6,1.6,1.1,2.2c0.5,0.5,1,0.9,1.7,1.2c0.7,0.2,1.4,0.4,2.2,0.4c0.7,0,1.4-0.1,2.1-0.3
	C127.3,31.3,127.8,31,128.3,30.4"/>
<path class="st0" d="M150,13.5h9.2v-3.3l7.2-3.1h0.7v6.5h7.3v5h-7.3v10.2c0,0-0.1,3.1,3.4,3c0,0,1.6,0.1,3.1-0.6h0.8V36
	c0,0-4.3,1.3-10,0.3c0,0-3.6-0.6-4.8-3.7c0,0-0.5-1.4-0.6-3V18.5h-9v17.7h-8l0-17.7l-3.3,0v-4.9h3.4c0,0-0.4-4.9,2.8-7.1
	c0,0,3.5-2.9,12.6-1.4v5.1H157c0,0-5.4-1.7-6.7,0.9C150.3,11.1,149.9,12.2,150,13.5"/>
<path class="st0" d="M424.5,19.8L424.5,19.8l-7,0L410.6,40h5.4l5.7-17.3h0.1h0c0.5,0,1.1,0.3,1.3,0.8l5.5,16.5h5.4l-6.2-18.5
	C427.2,20.5,425.8,19.8,424.5,19.8"/>
<path class="st0" d="M471.5,19.8v7.9l-7,0c-1.8,0.1-3.1,0.8-3.2,1.6v-1.6v0v-7.9h-5.2v20.2h5.2l0-7c0-0.8,0.9-1.6,2.2-1.6l7.9,0v8.6
	h5.2V19.8H471.5z"/>
<path class="st0" d="M387.7,26.1c0-4.5-4.5-6.2-10-6.2h-8.8v20.2h5.2v-7.3h1.7l6.6,7.3h6.7l-7.7-7.7
	C385.1,31.6,387.7,29.5,387.7,26.1 M374.1,23.5h2.7c3.7,0,5.8,0.5,5.8,2.7c0,2.2-2.1,3-5.6,3h-2.9V23.5z"/>
<path class="st0" d="M390.5,24.1v11.7c0,2.4,2.2,4.3,5,4.3h13.3v-3.7h-11.4c-0.9,0-1.6-0.6-1.6-1.4v-3.6h11.5v-3.6l-11.5,0v-2.9
	c0-0.7,0.7-1.3,1.6-1.4h11.3v-3.7h-13.4C392.7,19.9,390.6,21.8,390.5,24.1"/>
<path class="st0" d="M434.8,23.7v12.5c0.2,2.2,2.4,3.9,4.9,3.9H453v-3.7h-11.4c-0.9,0-1.6-0.6-1.6-1.3V24.8c0-0.7,0.8-1.3,1.6-1.3
	H453v-3.7h-13.4C437.1,19.9,435.1,21.6,434.8,23.7"/>
<polygon class="st0" points="427.5,12.2 424.7,12.2 420,5.2 420,12.2 417.4,12.2 417.4,2 420.8,2 424.9,7.9 424.9,2 427.5,2 "/>
<path class="st0" d="M437,8.9h-6.1c0,0.6,0.3,1.1,0.7,1.4c0.5,0.3,1.1,0.5,2,0.5c0.6,0,1.1-0.1,1.6-0.3c0.5-0.2,0.9-0.4,1.3-0.6h0.3
	v2c-0.6,0.2-1.2,0.4-1.7,0.5c-0.5,0.1-1.1,0.2-1.8,0.2c-1.7,0-3-0.3-3.9-1c-0.9-0.7-1.3-1.7-1.3-3c0-1.3,0.4-2.3,1.3-3
	c0.8-0.7,2-1.1,3.5-1.1c1.4,0,2.4,0.3,3.1,1c0.7,0.6,1,1.5,1,2.7V8.9z M434.3,7.4c0-0.5-0.2-0.9-0.4-1.2c-0.3-0.3-0.7-0.4-1.2-0.4
	c-0.5,0-0.9,0.1-1.3,0.4c-0.3,0.3-0.5,0.6-0.6,1.2H434.3z"/>
<path class="st0" d="M446.1,12.2h-2.7v-0.8c-0.5,0.3-0.9,0.6-1.4,0.8c-0.4,0.2-0.9,0.3-1.5,0.3c-0.9,0-1.6-0.2-2.1-0.7
	c-0.5-0.5-0.7-1.2-0.7-2.2v-5h2.7v3.8c0,0.4,0,0.7,0,1c0,0.3,0.1,0.5,0.2,0.6c0.1,0.2,0.2,0.3,0.4,0.4c0.2,0.1,0.5,0.1,0.8,0.1
	c0.2,0,0.5,0,0.8-0.1c0.3-0.1,0.5-0.2,0.8-0.3V4.5h2.7V12.2z"/>
<path class="st0" d="M454.6,9.8c0,0.8-0.4,1.4-1.2,1.9c-0.8,0.5-1.8,0.7-3.2,0.7c-0.7,0-1.4-0.1-2-0.2c-0.6-0.1-1.1-0.3-1.5-0.4v-2
	h0.2c0.1,0.1,0.3,0.2,0.5,0.3c0.2,0.1,0.4,0.2,0.8,0.3c0.3,0.1,0.6,0.2,0.9,0.3c0.3,0.1,0.7,0.1,1.1,0.1c0.5,0,0.9-0.1,1.2-0.2
	c0.3-0.1,0.4-0.3,0.4-0.5c0-0.2-0.1-0.3-0.2-0.4c-0.1-0.1-0.4-0.2-0.8-0.2c-0.2,0-0.5-0.1-0.8-0.1c-0.3,0-0.7-0.1-0.9-0.2
	c-0.8-0.2-1.3-0.5-1.7-0.9c-0.4-0.4-0.6-0.9-0.6-1.4c0-0.7,0.4-1.4,1.1-1.9c0.8-0.5,1.8-0.7,3.1-0.7c0.6,0,1.2,0.1,1.8,0.2
	c0.6,0.1,1,0.2,1.3,0.4v2H454c-0.4-0.3-0.8-0.5-1.4-0.6c-0.5-0.2-1-0.2-1.5-0.2c-0.4,0-0.8,0.1-1.1,0.2c-0.3,0.1-0.4,0.3-0.4,0.5
	c0,0.2,0.1,0.3,0.2,0.4c0.1,0.1,0.4,0.2,0.9,0.3c0.3,0.1,0.6,0.1,0.9,0.2c0.3,0,0.6,0.1,0.9,0.2c0.7,0.2,1.2,0.4,1.6,0.8
	C454.4,8.8,454.6,9.3,454.6,9.8"/>
<path class="st0" d="M464.3,8.4c0,1.3-0.4,2.3-1.2,3c-0.8,0.7-1.9,1.1-3.4,1.1c-1.5,0-2.6-0.4-3.4-1.1c-0.8-0.7-1.2-1.7-1.2-3
	c0-1.3,0.4-2.3,1.2-3c0.8-0.7,1.9-1.1,3.4-1.1c1.5,0,2.6,0.4,3.4,1.1C463.9,6.1,464.3,7.1,464.3,8.4 M461,10.3
	c0.2-0.2,0.3-0.4,0.4-0.7c0.1-0.3,0.1-0.7,0.1-1.2c0-0.5,0-0.8-0.1-1.1c-0.1-0.3-0.2-0.6-0.4-0.7c-0.2-0.2-0.4-0.3-0.6-0.4
	C460.2,6,460,6,459.7,6c-0.3,0-0.5,0-0.7,0.1c-0.2,0.1-0.4,0.2-0.6,0.4c-0.2,0.2-0.3,0.4-0.4,0.7c-0.1,0.3-0.1,0.7-0.1,1.2
	c0,0.4,0,0.8,0.1,1.1c0.1,0.3,0.2,0.6,0.4,0.7c0.2,0.2,0.3,0.3,0.6,0.4c0.2,0.1,0.5,0.1,0.8,0.1c0.2,0,0.5,0,0.7-0.1
	C460.6,10.6,460.8,10.5,461,10.3"/>
<path class="st0" d="M468.4,4.5h3.1V3.4l2.5-1.1h0.3v2.2h2.5v1.7h-2.5v3.5c0,0,0,1.1,1.1,1c0,0,0.5,0,1.1-0.2h0.3v1.7
	c0,0-1.5,0.5-3.4,0.1c0,0-1.2-0.2-1.6-1.3c0,0-0.2-0.5-0.2-1V6.2h-3.1v6h-2.7v-6h-1.1V4.5h1.2c0,0-0.1-1.7,0.9-2.4
	c0,0,1.2-1,4.3-0.5v1.7h-0.2c0,0-1.8-0.6-2.3,0.3C468.5,3.7,468.3,4.1,468.4,4.5"/>
<path class="st0" d="M379.5,6.5c-50,1.2-105.7,11.9-113.1,33.5h21.2c2.9-11.2,24.5-26.2,72.8-32c1.5-0.2,3-0.4,4.5-0.4
	c0.5,0-0.3,0.2-0.7,0.3c-37.6,6.6-61.4,17.9-63,32.1h19.7c-2.8-9.1,11-25.8,47.4-32c0.5-0.1,0.9-0.1,1.3-0.2c0.7-0.1,0.8,0,0.1,0.2
	c-26.1,5.2-42.3,21.6-37.1,32h17.9c-6.4-5.7-7.7-27.5,29-33.3C379.9,6.7,380.6,6.5,379.5,6.5"/>
<path class="st0" d="M609.2,40c0.1-0.2,0.2-0.5,0.4-0.9c0.1-0.4,0.2-0.7,0.3-1l0.1-0.4c0.3,0.1,0.6,0.2,1,0.2l-0.2,0.6
	c0,0.1-0.1,0.4-0.3,0.8l-0.3,0.9l-0.1,0.3c-0.3-0.1-0.4-0.2-0.4-0.2l-0.6-0.1L609.2,40z M610.1,36.9c0-0.2,0-0.4,0-0.5
	c0-0.1,0-0.3,0-0.4v-3.2c0-0.2,0-0.3,0-0.5l0-0.5c0.4,0,0.7,0.1,1,0.1h5.3c0.3,0,0.6,0,1-0.1c0,0.2,0,0.3,0,0.5c0,0.1,0,0.3,0,0.5
	V36c0,0.3,0,0.4,0,0.4l0,0.5c-0.4,0-0.7-0.1-1-0.1h-5.3C610.8,36.8,610.5,36.9,610.1,36.9 M611.1,34h2.2v-1.2h-2.2V34z M611.1,36
	h2.2v-1.3h-2.2V36z M612.7,37.6c0,0.2,0,0.4,0,0.5c0,0.1,0,0.3,0,0.4v1c0,0.2,0,0.3,0.1,0.4c0,0.1,0.1,0.1,0.3,0.2
	c0.1,0,0.7,0.1,1.7,0.1c0.3,0,0.5,0,0.6-0.1c0.1,0,0.2-0.1,0.3-0.2c0.1-0.1,0.1-0.2,0.2-0.4c0-0.2,0.1-0.3,0.1-0.4l0-0.2
	c0.1,0.1,0.2,0.2,0.3,0.3c0.1,0.1,0.3,0.2,0.7,0.4c-0.2,0.6-0.4,0.9-0.5,1.1c-0.1,0.1-0.3,0.2-0.5,0.3c-0.2,0.1-0.7,0.1-1.6,0.1
	c-1.2,0-1.9-0.1-2-0.2c-0.2-0.1-0.3-0.2-0.3-0.3c0-0.1-0.1-0.3-0.1-0.6v-1.4c0-0.2,0-0.4,0-0.4l0-0.5c0.3,0,0.5,0.1,0.5,0.1
	C612.3,37.7,612.4,37.7,612.7,37.6 M613.3,37.6c0.2-0.1,0.3-0.1,0.4-0.1l0.4-0.2l1,1.7c-0.3,0.1-0.4,0.1-0.5,0.2l-0.4,0.2l-0.1-0.3
	c-0.1-0.1-0.1-0.3-0.3-0.6c-0.1-0.3-0.2-0.4-0.3-0.5L613.3,37.6z M614.2,34h2.2v-1.2h-2.2V34z M614.2,36h2.2v-1.3h-2.2V36z
	 M616.3,37.9c0.3-0.1,0.5-0.2,0.8-0.4c0.5,0.7,1.1,1.3,1.6,2c-0.3,0.1-0.4,0.2-0.5,0.2l-0.5,0.3l-0.2-0.4c-0.1-0.3-0.3-0.6-0.5-0.8
	c-0.2-0.3-0.3-0.4-0.4-0.5L616.3,37.9z"/>
<path class="st0" d="M628.4,34.6c0.1-0.1,0.2-0.3,0.3-0.5c0.1-0.2,0.2-0.5,0.4-0.8c0.1-0.3,0.3-0.7,0.4-1.2l0.1-0.5
	c0.3,0.2,0.5,0.2,0.5,0.3l0.4,0.1l-0.2,0.4c0,0-0.2,0.3-0.4,0.9c-0.3,0.6-0.6,1.1-1,1.7l1.3-0.1c0.1-0.1,0.1-0.3,0.2-0.4
	c0.1-0.1,0.1-0.3,0.2-0.5l0.2-0.5c0.3,0.2,0.6,0.3,0.9,0.4l-0.2,0.4c-0.1,0.2-0.3,0.5-0.5,0.9c-0.2,0.4-0.4,0.8-0.7,1.2
	c-0.2,0.4-0.4,0.7-0.7,1.1c0.7-0.1,1.3-0.2,2-0.4c0,0.1-0.1,0.3-0.1,0.4c0,0.1,0,0.2,0,0.3l0,0.2l-0.4,0.1l-0.9,0.1
	c-0.4,0.1-0.9,0.2-1.4,0.3l-0.4,0.1c-0.1-0.3-0.1-0.5-0.1-0.6l-0.1-0.3c0.3-0.1,0.5-0.2,0.7-0.4c0.1-0.1,0.3-0.3,0.4-0.5
	c0.1-0.2,0.3-0.6,0.6-1.2c-0.7,0.1-1.1,0.2-1.2,0.2l-0.5,0.1c-0.1-0.4-0.1-0.6-0.2-0.6l-0.2-0.2C628.1,34.9,628.3,34.8,628.4,34.6
	 M628.5,39.6c0.5,0,1-0.1,1.5-0.2c0.5-0.1,0.9-0.2,1.2-0.3l0.7-0.2c0,0.1-0.1,0.3-0.1,0.3c0,0.1,0,0.2,0,0.3l0,0.2l-0.5,0.1
	c-0.1,0-0.3,0.1-0.6,0.2c-0.3,0.1-0.6,0.2-1,0.2c-0.3,0.1-0.6,0.1-0.7,0.2l-0.6,0.2c-0.1-0.3-0.1-0.6-0.2-0.6l-0.1-0.3L628.5,39.6z
	 M631.1,35.9l0.2-0.3c0.2-0.3,0.5-0.8,0.8-1.4c0.3-0.6,0.5-1,0.6-1.4c0.1-0.3,0.2-0.6,0.2-0.8l0.1-0.5c0.3,0.1,0.6,0.2,0.9,0.3
	l-0.1,0.3l-0.2,0.5l-0.2,0.5l-0.1,0.4h2.8c0.4,0,0.9,0,1.3,0c0,0.1,0,0.2,0,0.3c0,0.1,0,0.1,0,0.2c0,0.1,0,0.1,0,0.1l0,0.3
	c-0.5,0-1-0.1-1.3-0.1h-0.6v1.2h0.5c0.4,0,0.8,0,1.2-0.1c0,0.1,0,0.2,0,0.3c0,0.1,0,0.1,0,0.2c0,0.1,0,0.1,0,0.1l0,0.3
	c-0.4,0-0.8,0-1.2,0h-0.5v1.3h0.5c0.4,0,0.8,0,1.2-0.1c0,0.1,0,0.2,0,0.3c0,0.1,0,0.1,0,0.2c0,0,0,0.1,0,0.1l0,0.3
	c-0.4,0-0.8-0.1-1.2-0.1h-0.5v1.5h1.1c0.4,0,0.8,0,1.2-0.1c0,0.1,0,0.2,0,0.3c0,0.1,0,0.1,0,0.2c0,0,0,0.1,0,0.1l0,0.3
	c-0.4,0-0.8-0.1-1.2-0.1h-3.4v0.4v0.3l0,0.4c-0.2,0-0.3,0-0.4,0c-0.1,0-0.3,0-0.5,0c0-0.3,0-0.6,0.1-0.8c0-0.2,0-0.5,0-0.8v-4.5
	l-0.6,1.2c-0.1-0.1-0.2-0.2-0.2-0.3C631.4,36.2,631.3,36.1,631.1,35.9 M633.2,35.5h1.4v-1.2h-1.4V35.5z M633.2,37.5h1.4v-1.3h-1.4
	V37.5z M633.2,39.7h1.4v-1.5h-1.4V39.7z M634.5,32c0.3-0.1,0.5-0.2,0.6-0.2l0.3-0.2L636,33c-0.1,0-0.2,0.1-0.3,0.1
	c0,0-0.1,0.1-0.3,0.1l-0.3,0.1l-0.1-0.2c-0.1-0.2-0.2-0.5-0.5-0.9L634.5,32z"/>
<path class="st0" d="M647.5,35.1c0.3-0.2,0.6-0.4,0.8-0.6c0.2-0.2,0.5-0.5,0.7-0.8c0.2-0.3,0.4-0.5,0.6-0.7c0.1-0.2,0.3-0.4,0.4-0.7
	c0.1-0.2,0.2-0.4,0.3-0.6l0.1-0.3c0.3,0.2,0.4,0.2,0.5,0.3l0.5,0.2c-0.1,0.2-0.3,0.4-0.5,0.7l2.4,1.5c-0.2,0.2-0.4,0.3-0.4,0.4
	l-0.3,0.4l-0.2-0.2c-0.2-0.2-0.4-0.4-0.6-0.5c-0.2-0.2-0.6-0.5-1.3-0.9c-0.4,0.5-0.9,1.1-1.5,1.8c0.2,0,0.3,0,0.5,0h2.4
	c0.2,0,0.4,0,0.6-0.1c0,0.2,0,0.3,0,0.3c0,0.1,0,0.2,0,0.3l-0.1,1.7c0,0.2-0.1,0.3-0.1,0.4c-0.1,0.1-0.2,0.2-0.4,0.3
	c-0.2,0.1-0.5,0.1-0.7,0.2s-0.4,0.1-0.5,0.1c-0.1-0.4-0.2-0.7-0.2-0.8l-0.2-0.3c0.2,0,0.4,0,0.6,0c0.3,0,0.5,0,0.6-0.1
	c0.1-0.1,0.1-0.2,0.1-0.3l0-1h-1.8v3.8c0,0.1,0,0.2,0.1,0.3c0.1,0.1,0.2,0.1,0.3,0.2c0.1,0,0.5,0,1.1,0c0.2,0,0.4,0,0.5,0
	c0.1,0,0.2-0.1,0.3-0.1c0.1-0.1,0.1-0.2,0.2-0.2c0-0.1,0-0.2,0.1-0.3l0-0.3c0.2,0.1,0.3,0.2,0.4,0.2c0.1,0,0.3,0.1,0.7,0.1
	c-0.1,0.2-0.1,0.3-0.2,0.5c0,0.1-0.1,0.3-0.2,0.5c-0.1,0.2-0.2,0.3-0.4,0.4c-0.2,0.1-0.4,0.1-0.8,0.1c-0.1,0-0.2,0-0.5,0
	c-0.2,0-0.5,0-0.8,0c-0.3,0-0.5,0-0.5,0c-0.5,0-0.9-0.1-1-0.2c-0.1-0.2-0.1-0.3-0.1-0.4v-4.7l0-0.2l0-0.3c-0.1,0.1-0.2,0.2-0.3,0.3
	c-0.1,0.1-0.2,0.2-0.2,0.2l-0.3,0.3c-0.2-0.3-0.4-0.5-0.5-0.5l-0.4-0.3L647.5,35.1z M653.5,38.5c0-0.2,0-0.4,0-0.5
	c0-0.1,0-0.3,0-0.4V34c0-0.2,0-0.3,0-0.4l0-0.5c0.2,0,0.4,0,0.5,0c0.1,0,0.3,0,0.5,0c0,0.2,0,0.4,0,0.5c0,0.1,0,0.2,0,0.4v3.6
	c0,0.2,0,0.4,0,0.5l0,0.5c-0.2,0-0.4,0-0.5,0S653.8,38.5,653.5,38.5 M655,40.4c0.4,0,0.6-0.1,0.6-0.4v-6.5c0-0.2,0-0.5,0-0.8l-0.1-1
	c0.4,0,0.7,0,1.2,0c0,0.4,0,0.8-0.1,1.1c0,0.3,0,0.5,0,0.7v6.9c0,0.2,0,0.3-0.1,0.5c-0.1,0.1-0.2,0.3-0.5,0.3
	c-0.3,0.1-0.7,0.2-1.4,0.3c-0.1-0.4-0.1-0.6-0.2-0.7l-0.2-0.5C654.7,40.4,655,40.4,655,40.4"/>
<path class="st0" d="M666.4,40.5l0.3-0.3l0.7-0.5l0.4-0.3v-3.3l-0.3,0c-0.3,0-0.6,0-1,0.1c0-0.1,0-0.2,0-0.3c0-0.1,0-0.1,0-0.2
	c0-0.1,0-0.1,0-0.2l0-0.3c0.3,0,0.7,0,1,0h0.5c0.2,0,0.5,0,0.7,0c0,0.3,0,0.5,0,0.6c0,0.1,0,0.4,0,0.6v2.9c0.5,0.3,1,0.6,1.3,0.7
	s0.6,0.2,0.9,0.3c0.3,0,0.6,0,1,0l0.9,0c0.1,0,0.5,0,1.3,0c0.8,0,1.4,0,1.7-0.1l0.6-0.1c-0.2,0.2-0.3,0.4-0.3,0.5
	c-0.1,0.1-0.1,0.2-0.1,0.3l0,0.3l-0.4,0c-0.1,0-0.3,0-0.8,0c-0.1,0-0.2,0-0.5,0c-0.3,0-0.6,0-1.1,0c-0.5,0-0.8,0-1,0
	c-0.6,0-1,0-1.4-0.1c-0.3,0-0.7-0.1-1-0.2c-0.3-0.1-0.5-0.2-0.7-0.3c-0.2-0.1-0.3-0.2-0.5-0.3c-0.1-0.1-0.3-0.2-0.3-0.2
	c-0.1,0-0.1,0-0.2,0c-0.1,0-0.1,0-0.2,0.1c-0.1,0.1-0.2,0.2-0.4,0.4c-0.2,0.2-0.3,0.5-0.5,0.7c-0.1-0.1-0.2-0.3-0.3-0.4
	C666.7,40.8,666.6,40.6,666.4,40.5 M667,32.6c0.1,0,0.3-0.1,0.4-0.2c0.1-0.1,0.3-0.2,0.5-0.3l1.2,1.8c-0.3,0.2-0.6,0.3-0.6,0.3
	l-0.3,0.2l-0.1-0.3c-0.2-0.4-0.5-0.8-0.8-1.2L667,32.6z M669.2,35.9c0-0.1,0-0.2,0-0.3c0-0.1,0-0.1,0-0.2c0-0.1,0-0.1,0-0.1l0-0.3
	c0.9,0,1.6,0.1,1.8,0.1h1.3v-1.2h-1.7c-0.1,0.1-0.1,0.2-0.1,0.2l-0.2,0.4l-0.1,0.2c-0.3-0.1-0.4-0.2-0.5-0.2l-0.4-0.1l0.3-0.4
	c0.1-0.2,0.2-0.3,0.3-0.5c0.1-0.2,0.2-0.4,0.3-0.6c0.1-0.3,0.2-0.5,0.2-0.7l0.1-0.3c0.2,0.1,0.3,0.1,0.4,0.1c0.1,0,0.3,0.1,0.5,0.1
	l-0.2,0.4c-0.1,0.2-0.2,0.4-0.3,0.6h1.3v-0.5c0-0.2,0-0.4,0-0.4l0-0.5c0.3,0,0.4,0,0.5,0c0.1,0,0.3,0,0.5,0c0,0.2,0,0.4,0,0.6
	c0,0.1,0,0.3,0,0.4V33h1.1c0.4,0,0.9,0,1.3,0c0,0.1,0,0.2,0,0.3c0,0.1,0,0.1,0,0.2c0,0.1,0,0.1,0,0.1l0,0.3c-0.5,0-1,0-1.3,0h-1.1
	V35h1.1c0.3,0,0.9,0,1.8-0.1c0,0.1,0,0.2,0,0.3c0,0.1,0,0.1,0,0.2c0,0.1,0,0.1,0,0.1l0,0.3c-1,0-1.6-0.1-1.8-0.1H671
	C670.8,35.8,670.2,35.8,669.2,35.9 M671.4,36.5h2.8c0.4,0,0.7,0,1.2-0.1c0,0.2,0,0.4,0,0.5c0,0.1,0,0.3,0,0.4v1.2c0,0.2,0,0.3,0,0.4
	l0,0.5c-0.4,0-0.8-0.1-1.2-0.1h-2.7c-0.4,0-0.8,0-1.3,0.1c0-0.2,0-0.4,0-0.5c0-0.1,0-0.3,0-0.5v-1c0-0.2,0-0.4,0-0.5l0-0.5
	C670.6,36.5,671,36.5,671.4,36.5 M671.2,38.6h3.2v-1.4h-3.2V38.6z"/>
<path class="st0" d="M685.6,35.6c0-0.1,0-0.2,0-0.3c0-0.1,0-0.1,0-0.2c0,0,0-0.1,0-0.2l0-0.3c0.9,0.1,1.4,0.1,1.6,0.1l0.1,0v-1.1
	c0-0.2,0-0.4,0-0.6l0-0.6c0.3,0,0.4,0,0.5,0c0.1,0,0.3,0,0.5,0c0,0.3,0,0.5,0,0.7c0,0.2,0,0.4,0,0.5v1.1h1.5v-1.6c0-0.2,0-0.4,0-0.7
	l0-0.6c0.3,0,0.5,0,0.5,0c0,0,0.2,0,0.5,0c0,0.3,0,0.5,0,0.8c0,0.2,0,0.4,0,0.5v1.6h1.8v-1.5c0-0.3,0-0.5,0-0.6l-0.1-0.6
	c0.3,0,0.5,0.1,0.6,0.1s0.2,0,0.5,0c0,0.3,0,0.5-0.1,0.7c0,0.2,0,0.4,0,0.6v1.5h0.6c0.3,0,0.8,0,1.7-0.1c0,0.2,0,0.3,0,0.3
	c0,0.1,0,0.1,0,0.2c0,0,0,0.1,0,0.2l0,0.3c-0.8,0-1.4-0.1-1.7-0.1h-0.5v2.3c0,0.2,0,0.4,0,0.5l0,0.5c-0.5,0-0.8-0.1-1-0.1h-1.8
	c-0.1,0-0.5,0-1,0.1c0-0.2,0-0.4,0-0.5c0-0.1,0-0.3,0-0.5v-2.3h-1.5v4.5h5c0.4,0,0.9,0,1.5-0.1c0,0.1,0,0.2,0,0.3c0,0.1,0,0.1,0,0.2
	c0,0.1,0,0.1,0,0.1l0,0.3c-0.6,0-1.1-0.1-1.5-0.1h-4.9c-0.3,0-0.7,0-1.1,0.1c0-0.3,0-0.4,0-0.6c0-0.1,0-0.3,0-0.5v-4.3h-0.1
	C687,35.6,686.5,35.6,685.6,35.6 M690.7,38h1.8v-2.4h-1.8V38z"/>
<path class="st0" d="M704.9,37.9l0.2,0c0.2,0,0.6-0.2,1.2-0.3c0.6-0.2,1.2-0.5,1.8-1.1h-0.7c-0.2,0-0.5,0-0.9,0.1c0-0.2,0-0.4,0-0.6
	c0-0.2,0-0.3,0-0.5v-2.5c0-0.2,0-0.4,0-0.5l0-0.4c0.7,0,1.2,0.1,1.2,0.1h4.7c0.2,0,0.6,0,1.2-0.1c0,0.2,0,0.4,0,0.5
	c0,0.1,0,0.3,0,0.5v2.5c0,0.3,0,0.4,0,0.5l0.1,0.6c-0.3,0-0.6-0.1-0.9-0.1h-1.1c0.1,0.1,0.2,0.2,0.3,0.3c0.1,0.1,0.2,0.2,0.5,0.3
	c0.2,0.1,0.5,0.2,0.8,0.4c0.3,0.1,0.9,0.2,1.6,0.3l0.2,0c-0.3,0.3-0.5,0.5-0.6,0.7l-0.1,0.3l-0.3-0.1c-0.3-0.1-0.6-0.2-0.9-0.3
	c-0.3-0.1-0.6-0.3-1.1-0.6v2.5c0,0.3,0,0.5,0,0.6l0.1,0.5c-0.2,0-0.4,0-0.5,0c-0.1,0-0.3,0-0.5,0c0-0.2,0-0.4,0.1-0.6
	c0-0.2,0-0.3,0-0.5v-1.8c0-0.1,0-0.3,0-0.4l-0.1-0.6c0.1,0,0.3,0,0.5,0c-0.2-0.1-0.3-0.3-0.4-0.3s-0.3-0.3-0.6-0.7h-1.4
	c-0.3,0.3-0.6,0.6-0.9,0.8c0.2,0.1,0.3,0.1,0.4,0.1c0.1,0,0.2,0,0.4,0l-0.1,0.4c0,0.1-0.1,0.3-0.1,0.6c0,0.3-0.1,0.5-0.1,0.8
	c-0.1,0.3-0.2,0.6-0.4,1c-0.2,0.4-0.8,0.7-1.7,1.1l-0.2,0.1c0-0.1-0.1-0.2-0.1-0.3c-0.1-0.1-0.3-0.3-0.6-0.6l0.3,0
	c0.1,0,0.3-0.1,0.5-0.1c0.2-0.1,0.5-0.2,0.7-0.3c0.2-0.1,0.4-0.3,0.5-0.5c0.1-0.2,0.2-0.4,0.2-0.5c0-0.1,0.1-0.3,0.1-0.6
	c0-0.3,0-0.5,0-0.6v-0.2v-0.2c-0.3,0.2-0.6,0.4-0.8,0.5c-0.2,0.1-0.7,0.3-1.4,0.7l-0.2,0.1c-0.1-0.1-0.2-0.3-0.3-0.4
	C705.3,38.3,705.1,38.2,704.9,37.9 M709.6,32.8h-2.1v1.1h2.1V32.8z M707.4,35.8h2.1v-1.2h-2.1V35.8z M710.4,33.9h2.3v-1.1h-2.3V33.9
	z M710.4,35.8h2.3v-1.2h-2.3V35.8z"/>
<path class="st0" d="M606,19c1.3-1,2.6-2,3.8-3.2c1-1,2-2.1,3-3.2c-0.4-0.1-0.5-0.2-0.7-0.2c-1.4,0-2.7,0.1-4.1,0.1
	c-0.7,0-0.7,0-1.1-0.9c0.7,0,1.3,0.1,1.9,0.1c1.6,0,3.3,0,4.9,0c0.8,0,0.7-0.4,0.8-1c0-0.6-0.1-0.9-0.8-0.8c-0.4,0-0.8,0-1.2,0.1
	c-0.7,0.1-1.1-0.2-1.3-0.9c0.9,0,1.8,0.1,2.6,0.2c0.7,0.1,0.7-0.4,0.7-0.9c0-0.6-0.2-0.7-0.7-0.7c-0.3,0-0.6,0-0.9,0
	c-0.7,0.1-1.2,0.1-1.6-0.7c-0.6,0.9-1.3,1.5-2.4,1.6c-1.3,0.1-2.4-1.3-1.7-2.7c0.1-0.2,0.2-0.4,0.4-0.6c1-0.8,1.7-1.9,2.1-3.1
	c0-0.1,0.2-0.2,0.4-0.5c0.3,0.6,0.6,1.1,0.9,1.5c0.2,0.2,0.4,0.6,0.6,0.6c2.1,0,4.2,0,6.6,0c-0.5-1.4-1-2.6-1.4-3.9
	c1-0.4,3.5,0.1,4.2,1c0.5,0.6,0.5,1.6,0,2.8h2.1c1,0,2-0.1,2.9,0c1,0.1,1.8-0.1,2.3-1c0.3-0.6,0.9-0.7,1.5-0.4c1,0.6,1.9,1.2,2.8,2
	c0.2,0.2,0.3,0.8,0.2,1.2c0,0.2-0.6,0.3-0.9,0.3c-1.4-0.1-2.7,0-3.9,0.8c0.1,0.2,0.1,0.5,0.2,0.9h-1.9c0,0.1-0.1,0.1-0.1,0.2
	c0.6,0.6,1.3,1.2,1.9,1.8c0,0.1-0.1,0.2-0.1,0.3c-0.9,0-1.7,0-2.6,0c-1.7,0-1.7,0-1.4,1.8c1.3,0,2.6,0,3.9,0c0.2,0,0.4-0.3,0.6-0.5
	c0.4-0.5,0.7-1,1.2-1.5c0.2-0.2,0.9-0.3,1-0.2c0.8,0.7,1.5,1.5,2.2,2.3c0.1,0.1,0,0.3,0,0.5H625c0,0.1,0,0.2,0,0.3
	c2.6,2,5.7,1.9,8.9,2.1c-0.2,0.3-0.2,0.5-0.4,0.6c-1,0.6-1.5,1.6-1.8,2.7c-0.2,0.7-0.6,0.9-1.2,0.6c-1.1-0.4-2.1-0.9-3.4-1.4
	c0,0.8,0,1.6,0,2.4c0,0.3,0,0.5,0,0.8c0.2,1.7,0.3,2.2-2.1,2.6c-0.1,0-0.1,0.1-0.2,0.3c0.3,0,0.7,0.1,1,0.1c1.6,0,3.1,0.3,4.4,1.4
	c0.6,0.5,1,1.2,0.8,2c-0.1,0.8-0.6,1.2-1.3,1.5c-0.8,0.3-1.6,0-2.2-0.5c-0.8-0.6-1.7-1.3-2.6-1.9c-1.3-0.9-2.6-1.6-4.3-1.8
	c-1.9,3.1-5.2,3.4-8.3,4.1c-0.8,0.2-1.7,0.2-2.6,0.2c-0.3,0-0.5,0-0.8-0.1l-0.1-0.2c0.3-0.2,0.5-0.4,0.8-0.5c1.2-0.5,2.5-1,3.7-1.4
	c3-1.1,4.4-3.2,4.5-6.3c0-1.1,0-2.3,0-3.6c1.6,0.3,3.1,0.2,4.3,0.9c-0.2,0.9-0.5,1.6-0.6,2.3c-0.2,1.2-0.3,2.5-0.5,3.9
	c0.8,0,1.7-0.1,2.4-0.1c-0.1-0.5-0.3-0.9-0.3-1.3c0-2,0-4,0-6.1h-6.9c0,2-0.1,3.9,0,5.9c0.1,2.4,0.1,2.4-2.3,2.6
	c-1.3,0.1-1.4,0-1.3-1.4c0.1-2,0-4,0-6c-0.4,0.2-0.7,0.4-1.1,0.6c-1.5,0.6-3,1.2-4.5,1.8c-0.3,0.1-0.7,0-1.1-0.1V19z M615.8,14.6
	l0.1,0.4c0.4,0.1,0.7,0.1,1.1,0.1c1.5,0,3,0,4.6,0c0.8,0,1.7,0.1,2.1-0.9c0.1-0.2,0.3-0.5,0.2-0.6c-0.2-0.4-0.5-1.1-0.8-1.1
	c-1.4-0.1-2.9-0.1-4.1-0.1c-0.4,0.4-0.5,0.8-0.8,0.9C617.3,13.8,616.5,14.2,615.8,14.6 M611.4,7c0.5,0,1,0.1,1.5,0.1
	c1.8,0,1.8-0.1,1.5-1.8c0-0.1,0-0.2-0.1-0.2c-0.1-0.1-0.3-0.3-0.4-0.3c-0.8,0-1.7,0-2.6,0V7z M617.7,7h2.6c0.2-2.3,0.2-2.3-2-2.4
	c-0.4,0-0.9,0-1.3,0c-0.2,0-0.4,0.1-0.7,0.1c0.5,0.3,1,0.4,1.5,0.5c0.6,0.2,0.8,0.5,0.3,1C618,6.4,617.9,6.7,617.7,7 M627.9,4.8
	h-5.5c0.5,0.3,0.9,0.4,1.4,0.5c0.6,0.2,0.8,0.5,0.4,1c-0.1,0.2-0.2,0.5-0.3,0.7c0.1,0,0.2,0.1,0.2,0.1c0.4-0.5,0.8-1.3,1.3-1.4
	c0.5-0.2,1.2,0.3,2,0.6C627.5,5.8,627.7,5.3,627.9,4.8 M620.2,11.8c0.5-1.5,0.3-1.8-1.2-1.8h-1.2v1.8H620.2z M617.9,9.3
	c0.5,0,0.8,0,1.2,0c1.4,0,1.4,0,1.2-1.5h-2.4V9.3z M625.3,8c0-0.1-0.1-0.2-0.1-0.2c-0.4,0.1-1,0-1.2,0.2c-0.2,0.3-0.1,0.9-0.1,1.3
	c0.1,0,0.2,0.1,0.2,0.1C624.5,8.9,624.9,8.5,625.3,8"/>
<path class="st0" d="M676.2,19.1c-2.1,2.4-4.1,4.7-6.4,7.3c-0.8-1.4-1.6-2.6-2.3-3.8c-0.1-0.1,0.1-0.4,0.2-0.6
	c0.2-0.5,0.5-1,0.5-1.5c0-4,0-8,0-12.1c0-0.6-0.1-1.1-0.1-1.7c0-0.2,0.1-0.6,0.2-0.7c0.1-0.1,0.5,0,0.7,0.1c0.7,0.5,1.3,1,2.1,1.4
	c0.6,0.4,1.2,0.5,1.7-0.2c1.1-1.5,1.2-1.5,2.9-0.1c0.2,0.2,0.4,0.4,0.8,0.7c-0.1-0.6-0.1-1-0.1-1.4c0-0.9,0.2-1,0.9-0.6
	c0.7,0.4,1.4,0.8,2.1,1.3c0.8,0.5,1.1,0.4,1.2-0.5c0.1-0.9,0.2-1.8,0.3-2.7c0.1-0.5-0.2-0.7-0.7-0.7c-1.1,0.1-2.2,0.1-3.2,0.1
	c-0.3,0-0.6-0.3-0.9-0.5c0.2,0.7-0.2,0.9-0.8,0.8c-2.3,0-4.6,0-6.9,0c-0.8,0-1,0.2-1,1c0,3.4,0,6.8-0.2,10.2
	c-0.2,3.9-0.8,7.8-2.8,11.2c-0.2,0.4-0.6,0.6-0.9,0.9c0-0.4-0.2-0.9-0.1-1.3c0.9-3.3,0.8-6.6,0.8-9.9c-0.1-4.8-0.2-9.7-0.3-14.5
	c0-0.2,0.1-0.3,0.1-0.6c0.9,0.5,1.7,0.9,2.5,1.5c1.5,1.2,3.2,0.7,4.9,0.8c0.2,0,0.3-0.2,0.5-0.3c0.2-0.2,0.4-0.5,0.5-0.7
	c1.2-1.6,1.3-1.7,2.7-0.2c0.4,0.4,0.9,0.6,1.5,0.6c2.7,0,5.3,0,8,0c0.3,0,0.7-0.2,0.9-0.5c0.4-0.5,0.8-1.1,1.2-1.6
	c0.3-0.4,0.6-0.5,1-0.1c0.8,0.7,1.7,1.4,2.5,2.1c0.1,0.1,0.3,0.4,0.2,0.6c-0.1,0.1-0.4,0.3-0.6,0.3c-1.2,0-2.4,0-3.6,0
	c-0.9,0-1.4,0.4-1.7,1.2c-0.3,0.9-0.7,1.8-1.1,2.8c1.1,0.2,2,0.1,2.7-0.9c0.6-0.9,1.1-0.9,2-0.3c0.5,0.4,1.1,0.8,1.6,1.2
	c0.6,0.4,0.5,0.9,0.1,1.4c-0.3,0.4-0.5,0.8-0.5,1.3c0,3.2,0,6.3,0,9.5c0,0.8-0.3,1.3-1.1,1.4c-0.1,0-0.2,0.1-0.3,0.1
	c-1.9,0.4-2.2,0.1-2.2-1.8c0-3.5,0-7,0.1-10.5c0-0.5-0.1-0.6-0.5-0.6c-1.6,0-3.2,0-4.8,0c-0.6,0-0.5,0.4-0.5,0.8
	c0,3.8,0,7.6,0.1,11.4c0,1.3-0.3,1.6-1.6,1.7c-1.9,0.1-1.9,0.1-1.8-1.9c0-0.3,0-0.7,0-1C676.3,19.2,676.2,19.2,676.2,19.1
	 M676.4,8.7c-0.8,0.4-1.1,0.9-1.1,1.7c0.1,1.8,0,3.6,0,5.4c0,0.4-0.1,0.9-0.2,1.3c-0.2,0.7-1.1,1.1-2,1c-0.7,0-0.6-0.6-0.8-1.1
	c-0.2-0.6-0.6-1-1.3-1v4.8c1.9-1,3.6-1.9,5.4-2.8V8.7z M672.6,8.8c-1.7-0.3-1.7-0.3-1.7,1.2c0,1.5,0,3,0,4.5c0,0.4-0.1,0.9,0.6,0.9
	c0.6,0,1-0.2,1-0.9C672.6,12.6,672.6,10.7,672.6,8.8"/>
<path class="st0" d="M647.8,21.2c-0.3,0.6-0.4,1.4-0.7,1.5c-0.9,0.3-1.8,0.3-2.8,0.3c-0.2,0-0.4-0.6-0.4-1c0-0.9,0.1-1.7,0.1-2.6
	c0-4.5-0.1-9.1-0.1-13.6c0-0.1,0-0.3,0-0.6c1,0.4,1.9,0.7,2.8,1.1c0.3,0.1,0.6,0.3,0.9,0.3c1.6,0.4,2,0.1,2-1.5c0-1.3-0.1-2.7-0.1-4
	c0-0.9,0-1,1-0.8c1,0.2,1.9,0.3,2.9,0.5c1.1,0.3,1.2,0.7,0.4,1.5c-0.1,0.2-0.3,0.4-0.3,0.6c0,1.1,0,2.2,0,3.3c0,0.2,0.2,0.4,0.3,0.5
	c0.8,0.3,1.7,0,2.2-0.6c0.9-1.2,0.9-1.2,2.3-0.5c0.6,0.4,1.3,0.8,1.9,1.2c0.6,0.4,0.7,0.9,0.1,1.3c-0.6,0.5-0.7,1-0.7,1.7
	c0.1,3.8,0.1,7.7,0.2,11.5c0,0.8-0.3,1.4-1,1.6c-0.7,0.2-1.5,0.4-2.3,0.3c-1.2-0.2-0.3-1.3-0.8-2H647.8z M655.8,13.6
	c-0.7,0-1.2,0-1.8,0c-0.2,0-0.5,0.3-0.5,0.5c0,2.1,0,4.1,0,6.3c0.7,0,1.2,0,1.8,0c0.2,0,0.5-0.3,0.5-0.5
	C655.8,17.8,655.8,15.8,655.8,13.6 M649.6,13.6c-0.5,0-1,0-1.5,0c-0.5,0-0.6,0.2-0.6,0.6c0,2,0,4,0,6.1h2.1V13.6z M655.7,12.9
	c0-1.4,0-2.7,0-3.9c0-1.6-0.3-1.9-1.9-1.5c-0.2,0-0.4,0.2-0.4,0.3c0,1.7,0,3.4,0,5.2c0.6,0,1.1,0,1.6,0
	C655.2,13,655.4,12.9,655.7,12.9 M647.5,10.2L647.5,10.2c0,0.5,0,1,0,1.5c0,1.3,0,1.3,1.4,1.3c0.6,0,0.8-0.2,0.8-0.7
	c0-1.2,0-2.3,0-3.5c0-1.4,0-1.3-1.4-1.3c-0.6,0-0.8,0.2-0.7,0.7C647.6,8.8,647.5,9.5,647.5,10.2"/>
<path class="st0" d="M634.5,22.7c1.3-0.3,2.4-0.5,3.6-0.8c0.3-0.1,0.6-0.5,0.6-0.7c0-3,0-6,0-9.1c-0.9,0-1.7,0-2.6,0
	c-0.7,0-0.7,0-1.1-0.8c0.7,0,1.3,0.1,2,0.1c0.9,0.1,1.7,0,2.2-1c0.3-0.7,0.9-0.9,1.6-0.4c0.6,0.4,1.3,0.7,1.8,1.1
	c0.7,0.6,0.8,0.9,0.1,1.5c-0.5,0.4-0.6,0.9-0.6,1.5c0,2.5,0,5.1,0,7.6c0,0.4,0.3,0.9,0.6,1.1c1.7,1.3,3.7,1.7,5.8,1.8
	c4.2,0.1,8.4,0.2,12.6-0.8c0.2,0,0.4,0.1,0.5,0.1c-0.1,0.2-0.1,0.4-0.2,0.5c-1,0.8-1.3,1.8-1.5,3c-0.1,0.6-0.4,0.8-1,0.8
	c-3.9-0.1-7.9-0.2-11.8-0.4c-1.6-0.1-3.1-0.7-4.2-2c-0.6-0.6-1.2-1.2-1.8-1.8c-0.9-0.9-1.9-0.9-2.6,0.1c-0.6,0.9-1.1,1.9-1.6,2.9
	c-0.2,0.3-0.5,0.5-0.7,0.8c-0.2-0.3-0.5-0.5-0.6-0.8C635.3,25.8,634.9,24.3,634.5,22.7"/>
<path class="st0" d="M712.7,3.8c-1.7,0-3.2,0-4.8,0c-1.3,0-2.5,0-3.8,0c-0.6,0-0.9-0.2-1.1-0.8c2.8,0,5.5,0,8.2,0
	c0.8,0,1.4-0.2,1.9-0.9c0.8-1.1,0.8-1.1,2-0.4c0.7,0.4,1.4,0.9,2.1,1.4c0.6,0.4,0.6,0.9,0.1,1.3c-0.6,0.5-0.7,1-0.7,1.7
	c0,6.3,0,12.5,0,18.8c0,1.9-0.7,2.7-2.6,3.2c-0.2,0-0.4,0.1-0.6,0.1c-0.5,0-1.2,0.2-1.6,0c-0.3-0.2-0.4-0.9-0.5-1.4
	c-0.3-1.1-1-1.7-2-2.1c-0.3-0.1-0.4-0.4-0.6-0.7c0.3-0.1,0.6-0.2,0.9-0.1c3.2,0.3,2.9,0.1,2.9-2.4c0-5.3,0-10.6,0-15.8V3.8z"/>
<path class="st0" d="M699.1,8.2c1.2,0.5,2.2,1.2,3.2,1.4c1.2,0.3,2.5,0.3,3.8,0.3c0.2,0,0.5-0.6,0.7-0.9c0.3-0.7,0.8-0.9,1.4-0.4
	c0.8,0.5,1.6,1,2.4,1.4c0.6,0.3,0.6,0.8,0.2,1.3c-0.6,0.6-0.6,1.2-0.6,2c0,2.1,0,4.2,0.1,6.4c0,0.6-0.2,1-0.8,1.3
	c-0.4,0.2-0.7,0.3-1.1,0.4c-1.2,0.3-1.8-0.1-1.7-1.3c0-0.7-0.2-1-1-1c-0.8,0.1-1.5,0-2.3,0c-0.5,0-0.7,0.2-0.7,0.7
	c0.1,1.7,0.3,2-2.1,2.2c-1.4,0.1-1.5,0-1.5-1.4c0-3.7,0-7.3,0-11V8.2z M702.7,10.6c0,2.5,0,4.9,0,7.2c0,0.2,0.3,0.4,0.5,0.4
	c0.9,0,1.8,0,2.7,0c0.5,0,0.7-0.2,0.7-0.7c0-2.1,0-4.2,0-6.4c0-0.4-0.1-0.6-0.6-0.6C705,10.6,703.9,10.6,702.7,10.6"/>
<path class="st0" d="M672.4,27.8c0.3-0.2,0.5-0.4,0.8-0.6c1-0.5,2.1-1,3.1-1.6c2.9-1.8,4.8-4.3,4.8-7.8c0-2.6,0-5.2,0-7.7
	c0-1.1,0-1.1,1-0.9c0.8,0.2,1.7,0.3,2.5,0.5c0.7,0.2,0.8,0.6,0.3,1.2c-0.2,0.2-0.4,0.6-0.4,0.9c-0.1,2.3-0.2,4.5-0.3,6.8
	c0,0.8-0.1,1.5-0.2,2.4c0.4,0.1,0.8,0.3,1.3,0.4c1.6,0.4,3,1.1,4.2,2.2c0.9,0.8,1.1,1.7,0.8,2.8c-0.2,0.8-0.9,1.4-1.7,1.5
	c-0.8,0.1-1.8-0.3-2.1-1.1c-0.3-0.7-0.5-1.4-0.8-2.2c-0.4-1.2-1.1-2.1-2.1-2.9c-1.3,3.4-4.1,4.8-7.2,5.7c-1.2,0.3-2.5,0.6-3.7,0.9
	C672.5,28.2,672.4,28,672.4,27.8"/>
<path class="st0" d="M693.2,26.2c0-6.6,0-13.3,0-19.9c0-0.8-0.1-1.5-0.1-2.3c0-0.4,0.1-0.7,0.6-0.6c1.1,0.3,2.3,0.7,3.4,1
	c0.8,0.2,0.7,0.7,0.3,1.1c-0.5,0.5-0.5,1-0.5,1.6c0,5.9,0,11.8,0,17.6c0,0.6,0.1,1.1,0.1,1.7c0,0.7-0.3,1.2-1.1,1.3
	c-0.3,0-0.6,0.1-0.9,0.1C692.9,28,693,27.8,693.2,26.2"/>
<path class="st0" d="M702.6,3.9c0.1,1.6-1,2.7-2.6,2.5c-1.1-0.1-1.7-0.7-1.7-1.8c-0.1-1.4-0.3-2.7-1.6-3.5c-0.1-0.1-0.3-0.4-0.2-0.5
	c0.1-0.1,0.3-0.3,0.5-0.3c1.8,0,3.5,0.4,4.8,1.7c0.5,0.4,0.7,1.2,1,1.8C702.7,3.8,702.7,3.8,702.6,3.9"/>
<path class="st0" d="M636.2,1.4c2.1-0.6,5.1-0.1,6.2,1.7c0.5,0.8,0.7,1.6,0.3,2.4c-0.4,1-1.3,1.5-2.5,1.4c-0.9-0.1-1.5-0.7-1.7-1.7
	c0-0.2-0.1-0.5-0.1-0.7c-0.1-1-0.6-1.8-1.5-2.4C636.8,2,636.5,1.7,636.2,1.4"/>
</svg>
