<svg xmlns="http://www.w3.org/2000/svg" viewBox="0 0 741.7 790">
<style>
    path{
    color:#005bac;
    }
    </style>

                        <path fill="currentColor" d="M741.7,196.5L741.7,196.5v28.9h-23.9v26h-29.9v-26H658v-28.9h29.9v-28.9h29.9v28.9H741.7L741.7,196.5z
	 M687.9,700.2c0,0,0,0,0-418.9c0,0,0,0,29.9,0c0,0,0,0,0,418.9c0,35.9-35.9,71.8-71.8,71.8c0,0,0,0-364.9,0
	c-17.9,0-35.9-12-47.9-23.9c0,0,0,0-41.9,35.9c-6,6-6,6-12,6c0,0,0-6-6-6c-6,0-6-12,0-18c0,0,0,0,257.2-251.4
	c12-12,17.9-29.9,17.9-47.9c0-18-6-35.9-17.9-47.9c-29.9-29.9-71.8-29.9-95.7,0c0,0,0,0-185.4,185.5c-6,6-17.9,6-17.9,0
	c-6-6-6-12,0-18c0,0,0,0,83.7-83.8c0,0,0,0,0-203.5c0,0,0,0-191.4,191.5c0,0,0,0,0,287.3c0,6-6,12-17.9,12c-6,0-6-6-6-12
	c0,0,0,0,0-299.2c0,0,0,0,0-6c0,0,0,0,215.3-209.5c0,0,0,0,0-191.5c0-41.9,29.9-71.8,65.8-71.8c0,0,0,0,364.9,0
	c35.9,0,71.8,29.9,71.8,71.8c0,0,0,0,0,65.8c0,0,0,0-29.9,0c0,0,0,0,0-65.8c0-23.9-17.9-41.9-41.9-41.9c0,0,0,0-65.8,0
	c0,0,0,0,0,712.2c0,0,0,0,65.8,0C669.9,742.1,687.9,718.2,687.9,700.2L687.9,700.2z M550.3,742.1L550.3,742.1V29.9c0,0,0,0-269.2,0
	c-23.9,0-41.9,18-41.9,41.9c0,0,0,0,0,191.5c0,0,0,0,0,209.5c0,0,0,0,77.8-71.8c29.9-35.9,95.7-35.9,125.6,0
	c17.9,18,29.9,35.9,29.9,65.8c0,23.9-12,47.9-29.9,65.8c0,0,0,0-191.4,191.5c6,12,17.9,18,29.9,18
	C281.1,742.1,281.1,742.1,550.3,742.1L550.3,742.1z"></path>
                    </svg>