<svg xmlns="http://www.w3.org/2000/svg" viewBox="0 0 265.5 259.9">
<style>
    path,rect{
    fill:#005bac;
    }
    </style>
<path class="st0" d="M260.7,177.3h-38.3c0.1-0.9,0.1-1.8,0.1-2.7v-22.4h38.2c2.6,0,4.8-2.1,4.8-4.8c0-2.6-2.2-4.8-4.8-4.8h-38.2
	v-25.2h38.2c2.6,0,4.8-2.2,4.8-4.8c0-2.6-2.2-4.8-4.8-4.8h-38.2V85.3c0-0.9-0.1-1.8-0.1-2.7h38.3c2.6,0,4.8-2.1,4.8-4.8
	c0-2.6-2.1-4.8-4.8-4.8h-40c-4.4-14.4-16.2-25.6-31-29V4.8c0-2.6-2.1-4.8-4.8-4.8c-2.7,0-4.8,2.2-4.8,4.8V43h-25.2V4.8
	c0-2.6-2.2-4.8-4.8-4.8c-2.7,0-4.8,2.2-4.8,4.8V43h-25.2V4.8c0-2.6-2.1-4.8-4.8-4.8c-2.6,0-4.8,2.2-4.8,4.8V43H85.4V4.8
	c0-2.6-2.1-4.8-4.8-4.8c-2.6,0-4.8,2.2-4.8,4.8v39.3c-14.8,3.4-26.7,14.5-31,29h-40C2.1,73,0,75.2,0,77.8c0,2.7,2.1,4.8,4.8,4.8
	h38.3C43,83.5,43,84.4,43,85.3v22.4H4.8c-2.6,0-4.8,2.2-4.8,4.8c0,2.6,2.1,4.8,4.8,4.8H43v25.2H4.8c-2.6,0-4.8,2.2-4.8,4.8
	c0,2.6,2.1,4.8,4.8,4.8H43v22.4c0,0.9,0.1,1.8,0.1,2.7H4.8c-2.7,0-4.8,2.1-4.8,4.8c0,2.6,2.1,4.8,4.8,4.8h40
	c4.4,14.4,16.2,25.5,31,28.9v39.3c0,2.7,2.2,4.8,4.8,4.8c2.6,0,4.8-2.1,4.8-4.8v-38.2h25.2v38.2c0,2.7,2.1,4.8,4.8,4.8
	c2.6,0,4.8-2.1,4.8-4.8v-38.2h25.2v38.2c0,2.7,2.2,4.8,4.8,4.8c2.6,0,4.8-2.1,4.8-4.8v-38.2h25.2v38.2c0,2.7,2.1,4.8,4.8,4.8
	c2.6,0,4.8-2.1,4.8-4.8v-39.3c14.8-3.4,26.7-14.5,31-28.9h40c2.6,0,4.8-2.2,4.8-4.8C265.5,179.4,263.3,177.3,260.7,177.3z
	 M212.9,174.5c0,18.1-14.7,32.7-32.8,32.8H85.3c-18.1,0-32.7-14.7-32.8-32.8V85.3c0-18.1,14.7-32.7,32.8-32.8h94.9
	c18.1,0,32.7,14.7,32.8,32.8V174.5z M160.4,78.7H105c-13,0-23.6,10.6-23.6,23.6v55.4c0,13,10.6,23.6,23.6,23.6h55.4
	c13,0,23.6-10.5,23.6-23.6v-55.4C184,89.2,173.5,78.7,160.4,78.7z M174.4,157.6c0,7.7-6.3,14-14,14H105c-7.7,0-14-6.3-14-14v-55.4
	c0-7.7,6.3-14,14-14h55.4c7.7,0,14,6.3,14,14V157.6z M139.1,115.8h-8.9v8.9h-8.9v8.9h8.9v8.9h8.9v-8.9h8.9v-8.9h-8.9V115.8z"/>
</svg>