<svg xmlns="http://www.w3.org/2000/svg" viewBox="0 0 365.1 363.3">
<style>
    path,polygon,rect{
    fill:#005bac;
    }
    </style>
		<path class="st0" d="M357,131.8H65.9C29.6,131.8,0,102.2,0,65.9C0,29.6,29.6,0,65.9,0H357c4.4,0,8.1,3.6,8.1,8c0,4.4-3.6,8-8.1,8
			H65.9c-27.5,0-49.8,22.3-49.8,49.8c0,27.5,22.4,49.8,49.8,49.8H357c4.4,0,8.1,3.6,8.1,8C365.1,128.2,361.4,131.8,357,131.8z"/>
		<path class="st0" d="M263.7,73.9H53.9c-4.4,0-8-3.6-8-8c0-4.4,3.6-8,8-8h209.8c4.4,0,8,3.6,8,8C271.7,70.3,268.1,73.9,263.7,73.9z
			"/>
		<path class="st0" d="M312.8,189.7H103c-4.4,0-8-3.6-8-8c0-4.4,3.6-8,8-8h209.7c4.4,0,8,3.6,8,8
			C320.8,186.1,317.2,189.7,312.8,189.7z"/>
		<path class="st0" d="M263.7,305.4H53.9c-4.4,0-8-3.6-8-8c0-4.4,3.6-8.1,8-8.1h209.8c4.4,0,8,3.6,8,8.1
			C271.7,301.8,268.1,305.4,263.7,305.4z"/>
		<path class="st0" d="M357,363.3H65.9C29.6,363.3,0,333.7,0,297.4c0-36.3,29.6-65.9,65.9-65.9H357c4.4,0,8.1,3.6,8.1,8
			c0,4.4-3.6,8-8.1,8H65.9c-27.5,0-49.8,22.4-49.8,49.8c0,27.5,22.4,49.8,49.8,49.8H357c4.4,0,8.1,3.6,8.1,8
			C365.1,359.7,361.4,363.3,357,363.3z"/>
		<path class="st0" d="M331,363.3c-4.4,0-8-3.6-8-8V239.5c0-4.4,3.6-8,8-8c4.4,0,8.1,3.6,8.1,8v115.7
			C339,359.7,335.4,363.3,331,363.3z"/>
		<path class="st0" d="M299.1,247.5H8c-4.5,0-8-3.6-8-8c0-4.4,3.6-8,8-8h291.1c27.5,0,49.8-22.4,49.8-49.8s-22.3-49.8-49.8-49.8H8
			c-4.5,0-8-3.6-8-8.1c0-4.4,3.6-8,8-8h291.1c36.4,0,65.9,29.6,65.9,65.9C365.1,218,335.5,247.5,299.1,247.5z"/>
		<path class="st0" d="M34,247.5c-4.4,0-8-3.6-8-8V123.8c0-4.4,3.6-8,8-8c4.5,0,8,3.6,8,8v115.7C42.1,243.9,38.5,247.5,34,247.5z"/>
	<rect x="306.6" y="57.8" class="st0" width="48.8" height="16.3"/>
	<rect x="322.9" y="41.5" class="st0" width="16.3" height="48.8"/>
		<path class="st0" d="M322.9,106.6v17.2c0,4.4,3.6,8,8,8c4.4,0,8.1-3.6,8.1-8v-17.2H322.9z"/>
		<path class="st0" d="M339,25.2V10.8c0-4.4-3.6-8-8.1-8c-4.4,0-8,3.6-8,8v14.4H339z"/>
</svg>