<svg
    xmlns="http://www.w3.org/2000/svg" viewBox="0 0 664 664">
	    <style>
    path,polygon,rect{
    color:#005bac;
    }
    </style>
    <polygon fill="CurrentColor" points="408.6,585.5 353.1,529.9 371.6,511.4 427.1,567 		"></polygon>
    <polygon fill="CurrentColor" points="427.1,529.9 371.6,585.5 353.1,567 408.6,511.4 		"></polygon>
    <path fill="CurrentColor" d="M373.4,290.6c-29.4-29.3-29.4-77.1,0-106.4c29.3-29.4,77.1-29.4,106.4,0c29.4,29.3,29.4,77.1,0,106.4
			C450.5,320,402.8,320,373.4,290.6z M461.2,202.8c-19.1-19.1-50.1-19.1-69.2,0c-19.1,19.1-19.1,50.1,0,69.2
			c19.1,19.1,50.1,19.1,69.2,0C480.3,252.9,480.3,221.9,461.2,202.8z"></path>
    <path fill="CurrentColor" d="M602.8,372.7c-4.4-4.4-5.2-11.4-1.6-16.7c56.9-83.6,46.3-196.2-25.4-267.8C504.3,16.5,391.7,5.9,308.1,62.8
			c-6,4.1-14.2,2.6-18.3-3.5c-4.1-6-2.5-14.2,3.5-18.3c94-64,220.7-52,301.2,28.5c80.6,80.5,92.5,207.2,28.5,301.3
			c-4.1,6-12.3,7.6-18.3,3.5C604.1,373.8,603.4,373.2,602.8,372.7z M545.6,314.6c6.4,3.4,14.4,0.9,17.7-5.6
			c31.5-60.1,20.4-132.7-27.6-180.8c-48-48-120.6-59.1-180.8-27.6c-6.4,3.4-8.9,11.3-5.5,17.8c3.4,6.4,11.3,8.9,17.8,5.6
			c49.8-26.2,110.1-17,149.9,22.9s49,100.1,22.9,149.9c-2.7,5.2-1.6,11.4,2.4,15.4C543.3,313.2,544.4,313.9,545.6,314.6z"></path>
    <path fill="CurrentColor" d="M209,386c-0.8-0.8-1.5-1.8-2.1-2.8c-3.6-6.3-1.4-14.4,4.9-18L372,274.1c6.3-3.6,14.3-1.3,17.9,4.9
				c3.6,6.3,1.4,14.4-4.9,17.9l-160.2,91.1C219.5,391.1,213.1,390.1,209,386z"></path>
    <path fill="CurrentColor" d="M278.1,455.1c-4.1-4.1-5.1-10.5-2.1-15.8L367,279.1c3.6-6.3,11.6-8.5,17.9-4.9c6.3,3.6,8.5,11.6,4.9,18
				l-91.1,160.2c-3.6,6.3-11.6,8.5-17.9,4.9C279.8,456.6,278.9,455.9,278.1,455.1z"></path>
    <path fill="CurrentColor" d="M482.6,630.8c0.9-4.3-0.4-8.8-3.6-12l-33.4-33.4L427,604l18.6,18.6c-31.5,10-64.1,15.1-97.4,15.1
				c-86,0-166.9-33.5-227.7-94.3c-60.8-60.8-94.3-141.7-94.3-227.7c0-33.2,5.1-65.9,15.1-97.4l293.1,293.1l18.6-18.6L45.3,185
				c-3.2-3.2-7.7-4.5-12-3.6c-4.4,0.9-7.9,4-9.6,8.1C8,229.9,0,272.4,0,315.7c0,93,36.2,180.5,102,246.3l0,0
				c65.8,65.8,153.3,102,246.3,102c43.4,0,85.8-8,126.2-23.7C478.6,638.8,481.7,635.2,482.6,630.8z"></path>
    <rect x="376.9" y="509.2" transform="matrix(0.7066 -0.7076 0.7076 0.7066 -273.644 436.894)" fill="CurrentColor" width="26.3" height="78.5"></rect>
</svg>