<svg xmlns="http://www.w3.org/2000/svg" viewBox="0 0 28.2 31.6">
<path fill="#ffffff" d="M27.2,8.8c-0.4,0-0.8-0.1-1.2-0.1c0-0.6,0-1.1,0-1.7c0-0.5-0.2-0.9-0.5-1.3c-0.1-0.1-0.3-0.2-0.4-0.3c-1-0.3-2-0.5-3-0.7
	c-1.6-0.3-3.1-1-4.6-1.8c-1-0.5-2-1-2.9-1.5c-0.1,0-0.2-0.1-0.3-0.1c0,0.1,0,0.2,0,0.3c0,0.8,0,1.6,0,2.5c0,0.1,0,0.3-0.1,0.4
	c-0.1,0.3-0.4,0.4-0.6,0.4c-0.3,0-0.5-0.3-0.5-0.6c0-0.8,0-1.7,0-2.5c0-0.1,0-0.2,0-0.4c-0.4,0.2-0.7,0.3-1,0.5
	c-1.3,0.6-2.6,1.3-3.9,1.9c-1,0.5-2.1,0.7-3.2,1C4,4.9,3.1,5.2,2.2,5.5C1.6,5.7,1.3,6.2,1.4,6.9c0.1,1,0.1,1.9,0.2,2.9
	c0.2,1.4,0.3,2.9,0.5,4.3c0.2,1.6,0.5,3.3,0.8,4.9c0.2,1.5,0.5,2.9,1.4,4.2c0.9,1.3,1.9,2.4,3.1,3.4c1.6,1.4,3.4,2.5,5.4,3.4
	c0.1,0,0.2,0.1,0.3,0.1c0-0.9,0-1.7,0-2.5c0-0.1,0-0.3,0.1-0.4c0.1-0.3,0.4-0.4,0.6-0.3c0.3,0.1,0.5,0.3,0.5,0.6c0,0.8,0,1.6,0,2.3
	c0,0.1,0,0.2,0,0.4c0.6-0.3,1.2-0.5,1.7-0.8c2.1-1.1,4.1-2.5,5.7-4.2c1.5-1.6,2.5-3.5,2.9-5.8c0.2-1.5,0.5-3.1,0.7-4.6
	c0-0.1,0.1-0.2,0.2-0.2c0.4,0,0.7,0.1,1.2,0.2c-0.4,2.1-0.7,4.1-1.2,6.1c-0.4,1.8-1.3,3.3-2.5,4.7c-2.3,2.7-5.2,4.5-8.5,5.8
	c-0.5,0.2-1.1,0.2-1.6,0C9.5,30,6.6,28,4.1,25.3c-1.3-1.5-2.1-3.2-2.4-5.2c-0.4-2.4-0.8-4.9-1.1-7.3C0.3,10.9,0.2,9,0,7
	c-0.1-1.2,0.6-2.3,1.7-2.7c0.9-0.3,1.8-0.4,2.6-0.7c1-0.3,2.1-0.5,3.1-1c1.4-0.6,2.7-1.4,4.1-2c0.4-0.2,0.8-0.4,1.2-0.5
	c0.6-0.2,1.3-0.3,1.9,0c0.9,0.4,1.8,0.8,2.6,1.3c2.1,1.1,4.2,1.9,6.5,2.3c0.5,0.1,1.1,0.3,1.6,0.5c1.2,0.4,1.9,1.7,1.9,2.7
	C27.3,7.6,27.3,8.2,27.2,8.8z M17.7,20.5c0.4,0,0.6-0.2,0.6-0.6c0-2.2,0-4.5,0-6.7c0-2.4-2.1-4.5-4.5-4.5c-2.5,0-4.6,2-4.7,4.6
	c0,2.2,0,4.3,0,6.5c0,0.5,0.2,0.7,0.7,0.7c1.3,0,2.6,0,3.9,0C15,20.5,16.4,20.5,17.7,20.5z M17.1,14.3c0,1.7,0,3.3,0,4.9
	c-2.2,0-4.5,0-6.7,0c0-1.6,0-3.3,0-4.9C12.6,14.3,14.8,14.3,17.1,14.3z M10.3,13.2c0.1-1.1,0.5-2,1.4-2.7c1.2-0.8,2.4-0.8,3.7-0.1
	c1,0.6,1.7,1.8,1.6,2.8C14.8,13.2,12.6,13.2,10.3,13.2z M26.8,12.4c0.4,0,0.8,0.1,1.2,0.1c0.1-0.4,0.1-0.8,0.2-1.2
	c-0.4,0-0.8-0.1-1.2-0.1c0-0.4,0.1-0.8,0.1-1.2c-0.4,0-0.8-0.1-1.2-0.1c0,0.4-0.1,0.8-0.1,1.2C25.4,11,25,11,24.6,10.9
	c0,0.4-0.1,0.8-0.1,1.2c0.4,0,0.8,0.1,1.2,0.1c-0.1,0.4-0.1,0.8-0.2,1.2c0.4,0.1,0.8,0.1,1.2,0.2C26.7,13.2,26.8,12.8,26.8,12.4z
	 M14.3,15.7c0-0.3-0.3-0.6-0.6-0.6c-0.3,0-0.6,0.3-0.6,0.6c0,0.2,0,0.5,0,0.7c0,0.2,0,0.3-0.2,0.5c-0.4,0.4-0.4,1.1,0,1.5
	c0.4,0.4,1.1,0.5,1.5,0.1c0.4-0.4,0.6-1.1,0.2-1.5c-0.3-0.3-0.3-0.6-0.3-0.9C14.3,16,14.3,15.9,14.3,15.7z"/>
</svg>
