<svg xmlns="http://www.w3.org/2000/svg" viewBox="0 0 230.6 259.8">
<style>
    path,rect{
    color:#005bac;
    }
    </style>

                        <rect x="101.6" y="61.5" fill="currentColor" width="27.8" height="9.4"></rect>
                        <path fill="currentColor" d="M191.7,42.7H39.2c-2.6,0-4.7-2.1-4.7-4.7c0-2.6,2.1-4.7,4.7-4.7h152.5c2.6,0,4.7,2.1,4.7,4.7
		C196.4,40.6,194.3,42.7,191.7,42.7z"></path>
                        <path fill="currentColor" d="M156.7,259.8H74.2c-2.6,0-4.7-2.1-4.7-4.7c0-2.6,2.1-4.7,4.7-4.7h82.5c2.6,0,4.7,2.1,4.7,4.7
		C161.4,257.7,159.3,259.8,156.7,259.8z"></path>
                        <path fill="currentColor" d="M4.7,149.8c-0.6,0-1.1-0.1-1.7-0.3c-2.4-0.9-3.6-3.6-2.7-6.1L41.2,36.6c0.9-2.4,3.6-3.6,6.1-2.7
		c2.4,0.9,3.6,3.6,2.7,6.1L9.1,146.8C8.4,148.7,6.6,149.8,4.7,149.8z"></path>
                        <path fill="currentColor" d="M86.7,150c-1.9,0-3.7-1.1-4.4-3l-40.9-107c-0.9-2.4,0.3-5.1,2.7-6.1c2.4-0.9,5.1,0.3,6.1,2.7l40.9,107
		c0.9,2.4-0.3,5.1-2.7,6.1C87.8,149.9,87.2,150,86.7,150z"></path>
                        <path fill="currentColor" d="M45.7,180.1c-21,0-39.2-13.4-45.5-33.5c-0.8-2.5,0.6-5.1,3.1-5.9c2.5-0.8,5.1,0.6,5.9,3.1
		c5,16.1,19.6,26.9,36.5,26.9c16.8,0,31.5-10.8,36.5-26.9c0.8-2.5,3.4-3.9,5.9-3.1c2.5,0.8,3.9,3.4,3.1,5.9
		C85,166.7,66.7,180.1,45.7,180.1z"></path>
                        <path fill="currentColor" d="M143.9,149.8c-0.6,0-1.1-0.1-1.7-0.3c-2.4-0.9-3.6-3.6-2.7-6.1l40.9-106.9c0.9-2.4,3.6-3.6,6.1-2.7
				c2.4,0.9,3.6,3.6,2.7,6.1l-40.9,106.9C147.6,148.7,145.8,149.8,143.9,149.8z"></path>
                        <path fill="currentColor" d="M225.9,150c-1.9,0-3.7-1.1-4.4-3l-40.9-107c-0.9-2.4,0.3-5.1,2.7-6.1c2.4-0.9,5.1,0.3,6.1,2.7l40.9,107
				c0.9,2.4-0.3,5.1-2.7,6.1C227,149.9,226.5,150,225.9,150z"></path>
                        <path fill="currentColor" d="M185,180.1c-21,0-39.2-13.4-45.5-33.5c-0.8-2.5,0.6-5.1,3.1-5.9c2.5-0.8,5.1,0.6,5.9,3.1
			c5,16.1,19.7,26.9,36.5,26.9c16.8,0,31.5-10.8,36.5-26.9c0.8-2.5,3.4-3.9,5.9-3.1c2.5,0.8,3.9,3.4,3.1,5.9
			C224.2,166.7,205.9,180.1,185,180.1z"></path>
                        <path fill="currentColor" d="M120.1,42.7v-38c0-2.6-2.1-4.7-4.7-4.7s-4.7,2.1-4.7,4.7v38H120.1z"></path>
                        <rect x="110.7" y="52.1" fill="currentColor" width="9.4" height="28.2"></rect>
                        <path fill="currentColor" d="M110.7,89.7V250c0,2.6,2.1,4.7,4.7,4.7s4.7-2.1,4.7-4.7V89.7H110.7z"></path>
                    </svg>