<svg xmlns="http://www.w3.org/2000/svg" viewBox="0 0 790 670.6">
<style>
    path{
    fill:#005bac;
    }
    </style>
                        <path fill="currentColor" d="M460.8,204c4.4-9.4,8.4-18.3,12.8-27c6.7-13.6,16.9-23.9,30.6-30.5c6.9-3.4,14.3-5.3,22-6.2c13.9-1.6,27,0.8,39.4,7.3
	c11.2,5.9,20.4,14.1,26.3,25.3c7.8,14.8,14.8,30,22.1,45c6.9,14.3,13.7,28.6,20.6,43c5.6,11.8,11.3,23.6,16.9,35.4
	c6,12.6,12,25.1,17.9,37.7c5.8,12.1,11.6,24.3,17.4,36.4c6,12.6,12,25.1,18,37.7c5.6,11.8,11.2,23.6,16.9,35.4
	c6,12.6,12,25.1,17.9,37.7c5.8,12.1,11.6,24.3,17.4,36.4c6,12.6,12.1,25.1,17.9,37.7c4.4,9.4,9,18.7,12.6,28.3
	c4,10.6,3.2,21.4-1.1,31.8c-6.6,15.9-18.8,24.8-35.5,28.1c-2.2,0.4-4.5,0.6-6.7,0.6c-20.6,0-41.3,0-61.9,0c-0.6,0-1.1-0.1-1.8-0.1
	c0-9.2,0-18.3,0-27.8c1.1,0,2.2,0,3.3,0c19.8,0,39.5,0,59.3,0c10.4,0,18.4-7.4,19.2-18c0.2-2.8-0.9-5.9-2.1-8.6
	c-3-7-6.4-13.9-9.7-20.8c-6.5-13.6-13-27.1-19.4-40.7c-5.8-12.1-11.6-24.3-17.4-36.4c-6-12.6-12-25.1-18-37.7
	c-5.8-12.2-11.7-24.4-17.5-36.6c-5.8-12.1-11.5-24.3-17.3-36.4c-5.8-12.1-11.6-24.3-17.4-36.4c-6-12.6-12-25.1-18-37.7
	c-5.8-12.2-11.7-24.4-17.5-36.7c-6-12.6-11.9-25.1-17.9-37.7c-5.5-11.4-10.9-22.8-16.5-34.1c-2.7-5.4-5.3-10.8-8.8-15.6
	c-5.6-7.8-13.5-12.5-22.9-14.3c-9.9-1.9-19.5-0.6-28.3,4.7c-7.4,4.4-12.9,10.6-16.2,18.8c-1.3,3.4-3,6.7-4.5,10
	c-6.8,14.4-13.6,28.7-20.3,43c-5.9,12.4-11.7,24.8-17.5,37.2c-7.3,15.6-14.6,31.1-21.8,46.7c-5.6,12-11.3,24-16.9,35.9
	c-7.3,15.6-14.6,31.3-22,46.9c-3.4,7.1-6.5,14.5-10.7,21c-5.4,8.3-13.6,12.8-23.7,14.2c-10.9,1.5-20.3-1.7-28.4-8.6
	c-3.4-2.9-5.8-7.1-8.1-11c-2.1-3.5-3.4-7.5-5.1-11.2c-3.4-7.2-6.9-14.4-10.3-21.6c-5.8-12-15.1-19.7-28.3-21.7
	c-9.8-1.5-19,1-27.1,7.2c-7,5.4-10.8,12.7-14,20.6c-2.7,6.6-6,12.9-9,19.4c-5.3,11.2-10.5,22.4-15.7,33.7
	c-4.8,10.3-9.6,20.5-14.5,30.7c-7.8,16.4-15.6,32.7-23.4,49.1c-3.8,8-7.7,15.9-11.5,23.8c-5.5,11.6-10.9,23.2-16.4,34.8
	c-3.5,7.4-7.1,14.8-10.7,22.2c-0.2,0.5-0.4,1-0.7,1.8c136.7,0,273.1,0,409.8,0c0,9.3,0,18.4,0,27.9c-1,0-2,0-3,0
	c-16.2,0-32.3,0-48.5,0c-86.4,0-172.8,0.1-259.2,0.1c-52.2,0-104.4,0-156.6-0.1c-12.8,0-25.6,0-38.4-0.7c-8.4-0.4-16-4.1-22.8-9.2
	c-9.1-6.8-14.7-15.9-17-26.9c-1.6-7.8-1.5-15.7,1.1-23.4c1.6-4.7,3.6-9.4,5.8-13.9c5.3-11.2,10.8-22.4,16.2-33.6
	c5.9-12.4,11.8-24.8,17.7-37.2c5.8-12.3,11.7-24.5,17.5-36.8c5.9-12.5,11.9-24.9,17.8-37.4c5.8-12.3,11.6-24.6,17.4-36.9
	c5.9-12.4,11.8-24.8,17.7-37.1c5.9-12.4,11.8-24.7,17.7-37.1c5.7-12,11.4-23.9,17.1-35.9c5.9-12.4,11.8-24.8,17.7-37.1
	c5.9-12.4,11.8-24.8,17.7-37.1c3.8-7.9,7.7-15.8,11.5-23.8c8-16.9,16-33.8,24-50.7c5.5-11.7,11.1-23.4,16.7-35.1
	c8.1-17,16.3-34.1,24.4-51.1c4.3-9.1,9.5-17.7,16.9-24.6c9.6-9,20.9-14.9,33.9-17.2c12.3-2.2,24.3-1.4,36,2.9
	c14.9,5.5,26.8,14.8,34.4,28.7c6.4,11.7,11.6,24,17.4,36c7.7,16.3,15.4,32.6,23.1,49c5.4,11.5,10.9,23.1,16.3,34.7
	c4.3,9.1,8.6,18.2,12.8,27.3C453.5,187.7,457,195.7,460.8,204z M355.3,419.2c2.8,0,5.6-1.9,7-4.9c3.3-7,6.6-14.1,9.9-21.1
	c5.9-12.6,11.7-25.1,17.5-37.7c5.7-12.2,11.4-24.5,17.2-36.7c5.7-12.2,11.4-24.3,17.1-36.5c6.8-14.4,13.6-28.7,20.3-43
	c0.5-1.1,0.6-2.8,0.2-4c-1.5-3.8-3.3-7.6-5-11.3c-8.3-17.8-16.6-35.6-24.9-53.3c-5.4-11.5-10.7-23-16.1-34.4
	c-8.8-18.7-17.6-37.4-26.3-56.1c-3.6-7.6-7-15.4-10.6-23c-3.7-7.7-6.9-15.5-14.2-20.9c-9.2-6.8-19.2-10.1-30.4-8.1
	c-13.5,2.4-23.8,9.7-29.9,22.3c-4.3,8.8-8.6,17.6-12.8,26.5c-5.7,11.9-11.3,23.9-16.9,35.8c-8.1,17.1-16.2,34.1-24.4,51.1
	c-5.6,11.7-11.2,23.4-16.7,35.1c-8.1,17-16.2,33.9-24.2,50.9c-5.6,11.8-11.2,23.6-16.9,35.3c-6,12.6-12,25.2-18.1,37.9
	c-5.8,12.1-11.6,24.2-17.3,36.4c-6,12.5-12,25.1-17.9,37.6c-5.8,12.2-11.6,24.4-17.5,36.6c-6.9,14.3-13.8,28.6-20.7,42.9
	c-5.1,10.7-10.1,21.5-15.2,32.2c-5.7,12-11.5,24-17.3,36c-6.7,14.1-13.6,28.1-20.2,42.2c-2,4.3-3.8,8.5-2.7,13.7
	c2,9.5,9.4,15.3,18.1,15.4c19,0.3,38,0.1,57,0.1c1.7,0,2.6-0.5,3.4-2.1c5.8-12.3,11.7-24.4,17.5-36.7c6.3-13.2,12.5-26.5,18.8-39.7
	c6.1-12.9,12.3-25.7,18.5-38.6c6.2-13,12.3-26.1,18.5-39.1c7.8-16.5,15.5-33,23.3-49.4c1.8-3.7,3.6-7.4,5.4-11.1
	c3.6-7.6,7.1-15.3,10.9-22.7c5.7-11.2,14.7-19.3,25.6-25c13.5-7.1,28.1-9,43-5.8c20.3,4.3,35.1,16.1,44.4,34.6
	c5.6,11.2,10.7,22.6,16.1,33.8C349.7,417.1,351.8,419.2,355.3,419.2z M599.7,616.2c-9.1,0-17.9,0-26.6,0c0,9.4,0,18.5,0,27.9
	c8.9,0,17.7,0,26.8,0c0,9.1,0,17.9,0,26.5c9.2,0,18.1,0,27.3,0c0-9,0-17.7,0-26.7c8.8,0,17.3,0,25.9,0c0-9.4,0-18.5,0-27.9
	c-8.7,0-17.2,0-26.1,0c0-9,0-17.8,0-26.6c-9.2,0-18.1,0-27.3,0C599.7,598.4,599.7,607.1,599.7,616.2z"></path>
                    </svg>