<svg version="1.1"
	 xmlns="http://www.w3.org/2000/svg" xmlns:xlink="http://www.w3.org/1999/xlink" xmlns:a="http://ns.adobe.com/AdobeSVGViewerExtensions/3.0/"
	 x="0px" y="0px" width="79px" height="77.2px" viewBox="0 0 79 77.2" style="enable-background:new 0 0 79 77.2;"
	 xml:space="preserve">
<style type="text/css">
	.st0{fill:#005BAA;}
</style>
<defs>
</defs>
<path class="st0" d="M72.7,55.4c0-0.2,0-0.3,0-0.5c0-7.7-5.9-13.9-13.2-13.9c-4.9,0-9.4,2.9-11.7,7.4c-1-0.5-2.1-0.8-3.3-0.8
	c-4.1,0-7.5,3.4-7.7,7.7c-3.8,1.9-6.3,5.9-6.3,10.4c0,6.3,4.9,11.4,10.8,11.4h26.7c6,0,10.8-5.1,10.8-11.4
	C79,61.3,76.5,57.2,72.7,55.4 M68.2,74.4H41.5c-4.4,0-8-3.9-8-8.6c0-3.7,2.2-6.9,5.4-8.1c0.6-0.2,1-0.8,0.9-1.4c0-0.1,0-0.3,0-0.5
	c0-2.9,2.2-5.3,4.9-5.3c1.1,0,2.1,0.4,3,1.1c0.4,0.3,0.8,0.4,1.3,0.3c0.4-0.1,0.8-0.5,1-0.9c1.5-4.3,5.4-7.2,9.7-7.2
	c5.7,0,10.4,5,10.4,11.1c0,0.4,0,0.8-0.1,1.2c-0.1,0.6,0.3,1.2,0.9,1.5c3.3,1.2,5.4,4.5,5.4,8.1C76.2,70.5,72.6,74.4,68.2,74.4"/>
<path class="st0" d="M49.3,10.3H31.2c-0.7,0-1.3,0.6-1.3,1.3s0.6,1.3,1.3,1.3h18.1c0.7,0,1.3-0.6,1.3-1.3S50,10.3,49.3,10.3"/>
<path class="st0" d="M49.3,18.1H31.2c-0.7,0-1.3,0.6-1.3,1.3c0,0.7,0.6,1.3,1.3,1.3h18.1c0.7,0,1.3-0.6,1.3-1.3
	C50.6,18.7,50,18.1,49.3,18.1"/>
<path class="st0" d="M50.6,27.2c0-0.7-0.6-1.3-1.3-1.3H31.2c-0.7,0-1.3,0.6-1.3,1.3c0,0.7,0.6,1.3,1.3,1.3h18.1
	C50,28.5,50.6,27.9,50.6,27.2"/>
<path class="st0" d="M48.5,2.6h4.6c1.4,0,2.6,1.2,2.6,2.6v30.3c0,0,0,0,0,0c0,0,0,0,0,0v0h0c0,0.7,0.6,1.3,1.3,1.3
	c0.7,0,1.3-0.6,1.3-1.3v0c0,0,0,0,0,0c0,0,0,0,0,0V12.9h14.3c1.4,0,2.6,1.2,2.6,2.6v37.3c0,0,0,0,0,0c0,0,0,0,0,0V53h0
	c0.1,0.7,0.6,1.2,1.3,1.2c0.7,0,1.2-0.5,1.3-1.2h0V15.5c0-2.8-2.3-5.2-5.2-5.2H58.3V5.2C58.3,2.3,56,0,53.2,0h-4.6h-1.8H27.3v2.6
	h19.4H48.5z"/>
<path class="st0" d="M24.8,69.7V5.2c0-1.4,1.2-2.6,2.6-2.6V0c-2.8,0-5.2,2.3-5.2,5.2v5.2H7.8c-2.9,0-5.2,2.3-5.2,5.2v4.1h2.6v-4.1
	c0-1.4,1.2-2.6,2.6-2.6h14.4v54.2H7.8v0c-1.4,0-2.6-1.2-2.6-2.6v-32H2.6v32.2h0c0.1,2.8,2.3,5.1,5.2,5.1v0h14.4c0.1,2.8,2.4,5,5.2,5
	v-2.6C26,72.2,24.8,71.1,24.8,69.7"/>
<path class="st0" d="M69.4,20.7h-7.1c-0.7,0-1.3,0.6-1.3,1.3c0,0.7,0.6,1.3,1.3,1.3h7.1c0.7,0,1.3-0.6,1.3-1.3
	C70.7,21.3,70.1,20.7,69.4,20.7"/>
<path class="st0" d="M69.4,28.5h-7.1c-0.7,0-1.3,0.6-1.3,1.3s0.6,1.3,1.3,1.3h7.1c0.7,0,1.3-0.6,1.3-1.3S70.1,28.5,69.4,28.5"/>
<path class="st0" d="M69.4,36.2h-7.1c-0.7,0-1.3,0.6-1.3,1.3c0,0.7,0.6,1.3,1.3,1.3h7.1c0.7,0,1.3-0.6,1.3-1.3
	C70.7,36.7,70.1,36.2,69.4,36.2"/>
<path class="st0" d="M11.1,23.3h7.1c0.7,0,1.3-0.6,1.3-1.3c0-0.7-0.6-1.3-1.3-1.3h-7.1c-0.7,0-1.3,0.6-1.3,1.3
	C9.8,22.7,10.3,23.3,11.1,23.3"/>
<path class="st0" d="M11.1,31h7.1c0.7,0,1.3-0.6,1.3-1.3s-0.6-1.3-1.3-1.3h-7.1c-0.7,0-1.3,0.6-1.3,1.3S10.3,31,11.1,31"/>
<path class="st0" d="M11.1,38.7h7.1c0.7,0,1.3-0.6,1.3-1.3c0-0.7-0.6-1.3-1.3-1.3h-7.1c-0.7,0-1.3,0.6-1.3,1.3
	C9.8,38.2,10.3,38.7,11.1,38.7"/>
<path class="st0" d="M13.6,48.6c-2.8,0-5.2,2.3-5.2,5.2c0,2.8,2.3,5.2,5.2,5.2c2.8,0,5.2-2.3,5.2-5.2C18.8,50.9,16.5,48.6,13.6,48.6
	 M13.6,56.4c-1.4,0-2.6-1.2-2.6-2.6c0-1.4,1.2-2.6,2.6-2.6c1.4,0,2.6,1.2,2.6,2.6C16.2,55.2,15.1,56.4,13.6,56.4"/>
<path class="st0" d="M34.9,39.1c0,2.9,2.3,5.2,5.2,5.2c2.8,0,5.2-2.3,5.2-5.2c0-2.8-2.3-5.2-5.2-5.2C37.2,33.9,34.9,36.2,34.9,39.1
	 M42.6,39.1c0,1.4-1.2,2.6-2.6,2.6c-1.4,0-2.6-1.2-2.6-2.6c0-1.4,1.2-2.6,2.6-2.6C41.5,36.5,42.6,37.7,42.6,39.1"/>
<polygon class="st0" points="5.2,30 5.2,27.4 7.7,27.4 7.7,24.8 5.2,24.8 5.2,22.2 2.6,22.2 2.6,24.8 0,24.8 0,27.4 2.6,27.4 
	2.6,30 "/>
<path class="st0" d="M29.7,72.2C29.6,72.2,29.6,72.2,29.7,72.2L29.7,72.2l-2.3,0v2.6h2.3c0,0,0.1,0,0.1,0c0.7,0,1.3-0.6,1.3-1.3
	C31,72.7,30.4,72.2,29.7,72.2"/>
</svg>
