<svg xmlns="http://www.w3.org/2000/svg" viewBox="0 0 790 758.4">
<style>
    path{
    color:#005bac;
    }
    </style>

                        <path fill="currentColor" d="M673.2,417.1c-37.1,48.8-90.1,75.8-148.4,75.8c-37.1,0-74.2-16.3-106-37.9c-5.3-5.4-5.3-5.4-10.6-10.8
	C614.9,195,614.9,195,614.9,195c0-5.4,0-16.3-5.3-21.7c-5.3,0-15.9,0-21.2,5.4C386.9,428,386.9,428,386.9,428
	c-26.5-37.9-42.4-81.3-42.4-119.2c0-43.3,10.6-81.3,37.1-113.8c53-75.8,206.7-130,344.5-162.5c0,32.5,0,65,5.3,97.5
	c26.5,0,26.5,0,26.5,0c0-32.5-5.3-75.8-5.3-119.2c0,0-5.3-5.4-5.3-10.8c-5.3,0-10.6,0-15.9,0c-143.1,32.5-302.1,86.7-371,178.8
	c-31.8,37.9-42.4,81.3-42.4,130s15.9,97.5,53,140.8c-47.7,54.2-47.7,54.2-47.7,54.2c-31.8-32.5-31.8-32.5-31.8-32.5
	c15.9-21.7,26.5-48.8,26.5-75.8c0-37.9-15.9-75.8-47.7-102.9c-26.5-27.1-53-43.3-95.4-48.8c-37.1-10.8-90.1-16.3-159-16.3
	c-5.3,0-5.3,5.4-10.6,5.4C0,238.4,0,238.4,0,243.8c10.6,97.5,37.1,200.4,90.1,254.6c26.5,21.7,58.3,32.5,90.1,32.5
	c37.1,0,68.9-10.8,95.4-37.9c37.1,37.9,37.1,37.9,37.1,37.9c0,211.3,0,211.3,0,211.3c0,10.8,5.3,16.3,15.9,16.3
	c5.3,0,10.6-5.4,10.6-16.3c0-216.7,0-216.7,0-216.7c53-59.6,53-59.6,53-59.6c0,5.4,5.3,10.8,10.6,10.8
	c37.1,32.5,79.5,43.3,121.9,43.3l0,0c63.6,0,127.2-32.5,169.6-86.7c37.1-48.8,53-97.5,63.6-167.9c-31.8,0-31.8,0-31.8,0
	C720.9,330.4,705,373.8,673.2,417.1L673.2,417.1z M270.3,455c-100.7-86.7-100.7-86.7-100.7-86.7c-10.6-5.4-15.9-5.4-21.2,5.4
	c-5.3,5.4-5.3,10.8,0,16.3c100.7,86.7,100.7,86.7,100.7,86.7c-15.9,16.3-42.4,27.1-68.9,27.1s-47.7-10.8-68.9-27.1
	c-42.4-37.9-68.9-130-79.5-216.7c63.6,0,106,0,137.8,10.8c37.1,5.4,58.3,21.7,84.8,43.3c21.2,21.7,31.8,48.8,31.8,81.3
	C286.2,417.1,280.9,438.8,270.3,455L270.3,455z M761.5,188.7L761.5,188.7H790v28.5h-28.5v28.5h-28.5v-28.5h-28.5v-28.5h28.5v-28.5
	h28.5V188.7L761.5,188.7z"></path>
                    </svg>