<svg
    xmlns="http://www.w3.org/2000/svg" viewBox="0 0 295.7 367.6">
        <style>
    path,rect{
    color:#005bac;
    }
    </style>
    <path fill="currentColor" d="M66.2,48.9H6.8c-3.8,0-6.8-3.1-6.8-6.8c0-3.8,3.1-6.8,6.8-6.8h59.3c3.8,0,6.8,3.1,6.8,6.8
				C73,45.8,70,48.9,66.2,48.9z"></path>
    <path fill="currentColor" d="M66.2,108.5c-1.7,0-3.5-0.7-4.8-2L2,46.9c-2.7-2.7-2.7-7,0-9.7s7-2.7,9.7,0L71,96.8c2.7,2.7,2.7,7,0,9.7
				C69.7,107.8,67.9,108.5,66.2,108.5z"></path>
    <path fill="currentColor" d="M288.9,48.9h-59.3c-3.8,0-6.8-3.1-6.8-6.8c0-3.8,3.1-6.8,6.8-6.8h59.3c3.8,0,6.8,3.1,6.8,6.8
				C295.7,45.8,292.7,48.9,288.9,48.9z"></path>
    <path fill="currentColor" d="M229.5,108.5c-1.7,0-3.5-0.7-4.8-2c-2.7-2.7-2.7-7,0-9.7L284,37.2c2.7-2.7,7-2.7,9.7,0c2.7,2.7,2.7,7,0,9.7
				l-59.3,59.6C233,107.8,231.3,108.5,229.5,108.5z"></path>
    <path fill="currentColor" d="M66.2,150.8H6.8c-3.8,0-6.8-3.1-6.8-6.8c0-3.8,3.1-6.8,6.8-6.8h59.3c3.8,0,6.8,3.1,6.8,6.8
				C73,147.8,70,150.8,66.2,150.8z"></path>
    <path fill="currentColor" d="M66.2,210.4c-1.7,0-3.5-0.7-4.8-2L2,148.8c-2.7-2.7-2.7-7,0-9.7c2.7-2.6,7-2.6,9.7,0L71,198.8
				c2.7,2.7,2.7,7,0,9.7C69.7,209.8,67.9,210.4,66.2,210.4z"></path>
    <path fill="currentColor" d="M288.9,150.8h-59.3c-3.8,0-6.8-3.1-6.8-6.8c0-3.8,3.1-6.8,6.8-6.8h59.3c3.8,0,6.8,3.1,6.8,6.8
				C295.7,147.8,292.7,150.8,288.9,150.8z"></path>
    <path fill="currentColor" d="M229.5,210.4c-1.7,0-3.5-0.7-4.8-2c-2.7-2.7-2.7-7,0-9.7l59.3-59.6c2.7-2.7,7-2.7,9.7,0c2.7,2.7,2.7,7,0,9.7
				l-59.3,59.6C233,209.8,231.3,210.4,229.5,210.4z"></path>
    <path fill="currentColor" d="M66.2,252.8H6.8c-3.8,0-6.8-3.1-6.8-6.8s3.1-6.8,6.8-6.8h59.3c3.8,0,6.8,3,6.8,6.8S70,252.8,66.2,252.8z"></path>
    <path fill="currentColor" d="M66.2,312.4c-1.7,0-3.5-0.7-4.8-2L2,250.7c-2.7-2.7-2.7-7,0-9.7s7-2.7,9.7,0L71,300.7c2.7,2.7,2.7,7,0,9.7
				C69.7,311.7,67.9,312.4,66.2,312.4z"></path>
    <path fill="currentColor" d="M288.9,252.8h-59.3c-3.8,0-6.8-3.1-6.8-6.8s3.1-6.8,6.8-6.8h59.3c3.8,0,6.8,3,6.8,6.8
				S292.7,252.8,288.9,252.8z"></path>
    <path fill="currentColor" d="M229.5,312.4c-1.7,0-3.5-0.7-4.8-2c-2.7-2.7-2.7-7,0-9.7l59.3-59.6c2.7-2.7,7-2.7,9.7,0c2.7,2.7,2.7,7,0,9.7
				l-59.3,59.6C233,311.7,231.3,312.4,229.5,312.4z"></path>
    <path fill="currentColor" d="M147.9,110.1c-20.7,0-37.5-16.8-37.5-37.5s16.8-37.5,37.5-37.5s37.5,16.8,37.5,37.5S168.5,110.1,147.9,110.1z
		 M147.9,48.9c-13.1,0-23.8,10.7-23.8,23.8c0,13.1,10.7,23.8,23.8,23.8c13.1,0,23.8-10.7,23.8-23.8C171.6,59.6,161,48.9,147.9,48.9z
		"></path>
    <path fill="currentColor" d="M147.9,212.1c-20.7,0-37.5-16.8-37.5-37.5c0-20.7,16.8-37.5,37.5-37.5s37.5,16.8,37.5,37.5
		C185.3,195.3,168.5,212.1,147.9,212.1z M147.9,150.8c-13.1,0-23.8,10.7-23.8,23.8c0,13.1,10.7,23.8,23.8,23.8
		c13.1,0,23.8-10.7,23.8-23.8C171.6,161.5,161,150.8,147.9,150.8z"></path>
    <path fill="currentColor" d="M147.9,314c-20.7,0-37.5-16.8-37.5-37.5s16.8-37.5,37.5-37.5s37.5,16.8,37.5,37.5S168.5,314,147.9,314z
		 M147.9,252.8c-13.1,0-23.8,10.7-23.8,23.8c0,13.1,10.7,23.8,23.8,23.8c13.1,0,23.8-10.7,23.8-23.8
		C171.6,263.4,161,252.8,147.9,252.8z"></path>
    <rect x="161.5" y="326.7" fill="currentColor" width="13.6" height="40.8"></rect>
    <path fill="currentColor" d="M73,34.1H59.4C59.4,15.3,74.6,0,93.4,0v13.7C82.2,13.7,73,22.8,73,34.1z"></path>
    <path fill="currentColor" d="M73,34.1H59.4C59.4,15.3,74.6,0,93.4,0v13.7C82.2,13.7,73,22.8,73,34.1z"></path>
    <path fill="currentColor" d="M236.4,34.1h-13.7c0-11.2-9.1-20.4-20.4-20.4V0C221.1,0,236.4,15.3,236.4,34.1z"></path>
    <path fill="currentColor" d="M93.4,354c-18.8,0-34.1-15.3-34.1-34.1H73c0,11.2,9.1,20.4,20.4,20.4V354z"></path>
    <path fill="currentColor" d="M202.3,354v-13.7c11.2,0,20.4-9.2,20.4-20.4h13.7C236.4,338.7,221.1,354,202.3,354z"></path>
    <rect x="93.4" fill="currentColor" width="108.9" height="13.7"></rect>
    <rect x="59.4" y="34.1" fill="currentColor" width="13.7" height="285.9"></rect>
    <rect x="222.7" y="34.1" fill="currentColor" width="13.7" height="285.9"></rect>
    <rect x="93.4" y="340.3" fill="currentColor" width="40.8" height="13.7"></rect>
    <rect x="147.9" y="340.3" fill="currentColor" width="40.8" height="13.7"></rect>
</svg>