<svg
    xmlns="http://www.w3.org/2000/svg" viewBox="0 0 236.1 157.9">
	    <style>
    path,polygon{
    color:#005bac;
    }
    </style>
    <path fill="currentColor" d="M230.1,42.4c-7.7-3.1-91.7-36.2-99.6-39.4c-0.1,0-0.1-0.1-0.2-0.1c-0.3-0.2-0.7-0.3-1-0.4
		c-1.7-0.8-5.1-2.1-9.5-2.4c-0.2,0-0.4,0-0.6,0c-0.3,0-0.7,0-1.1,0c-0.5,0-0.9,0-1.3,0c-0.1,0-0.2,0-0.3,0c-4.5,0.3-7.9,1.6-9.6,2.4
		c-0.3,0.1-0.7,0.3-1,0.4c-0.1,0-0.2,0.1-0.2,0.1C97.6,6.2,13.6,39.3,6,42.4C1.3,44.3,0.2,47,0,49c-0.3,4.6,4.5,7.6,5.5,8.2
		c0.1,0.1,0.2,0.1,0.3,0.2l15.4,7.3v57.1c0,2.1,1.7,3.8,3.8,3.8c2.1,0,3.8-1.7,3.8-3.8V68.2l25.1,11.9c0.5,0.3,1.1,0.4,1.6,0.4
		c0,0,0,0,0.1,0V129c0,16.5,27.6,28.9,64.1,28.9c36.6,0,64.2-12.4,64.2-28.9c0-0.6,0-1.2-0.1-1.9v-2.4h-7.6v2.6c0,0.2,0,0.4,0,0.6
		c0,0.3,0.1,0.7,0.1,1c0,10.1-23.2,21.3-56.6,21.3c-33.3,0-56.6-11.2-56.6-21.3V72.1c0-10.1,23.2-21.3,56.6-21.3
		c33.3,0,56.6,11.2,56.6,21.3c0,0.3,0,0.7-0.1,1c0,0.2,0,0.4,0,0.6v12.8h7.6v-7l46.6-22.1c0.1,0,0.2-0.1,0.3-0.2
		c1-0.6,5.8-3.6,5.4-8.2C235.9,47,234.8,44.3,230.1,42.4z M226.9,50.5L183.8,71c-1.2-15.9-28.3-27.8-64.1-27.8
		c-36.6,0-64.1,12.4-64.1,28.9v0.5l-46.3-22c-0.4-0.2-0.7-0.5-1.1-0.8c0.2-0.1,0.4-0.2,0.7-0.3c8-3.2,99.3-39.2,100.2-39.6
		c0.2-0.1,0.4-0.2,0.6-0.3c0,0,0.1-0.1,0.3-0.1c3.2-1.4,6.2-1.9,8.7-1.8c2.3,0.1,4.8,0.6,7.6,1.8c0.2,0.1,0.3,0.1,0.3,0.2
		c0.2,0.1,0.4,0.2,0.6,0.3c0.9,0.4,92.2,36.4,100.2,39.6c0.3,0.1,0.5,0.2,0.7,0.3C227.7,50,227.3,50.3,226.9,50.5z"></path>
    <polygon fill="currentColor" points="183.4,94.1 175.7,94.1 175.7,101.8 168,101.8 168,109.4 175.7,109.4 175.7,117.1 183.4,117.1
		183.4,109.4 191,109.4 191,101.8 183.4,101.8 	"></polygon>
</svg>