<svg version="1.1"
	 xmlns="http://www.w3.org/2000/svg" xmlns:xlink="http://www.w3.org/1999/xlink" xmlns:a="http://ns.adobe.com/AdobeSVGViewerExtensions/3.0/"
	 x="0px" y="0px" width="81.1px" height="57.1px" viewBox="0 0 81.1 57.1" style="enable-background:new 0 0 81.1 57.1;"
	 xml:space="preserve">
<style type="text/css">
	.st0{fill:#005BAA;}
</style>
<defs>
</defs>
<rect x="4.2" y="29" class="st0" width="8.6" height="2.8"/>
<path class="st0" d="M68.4,57.1H41.3c-6.1,0-11-5.2-11-11.6c0-4.5,2.5-8.6,6.4-10.5c0.2-4.4,3.6-7.9,7.8-7.9c1.1,0,2.3,0.3,3.3,0.8
	c2.3-4.6,6.9-7.6,11.8-7.6C67,20.3,73,26.6,73,34.4c0,0.2,0,0.3,0,0.5c3.9,1.9,6.4,6,6.4,10.5C79.4,51.9,74.5,57.1,68.4,57.1
	 M44.5,29.9c-2.7,0-5,2.4-5,5.4c0,0.2,0,0.3,0,0.5c0.1,0.6-0.3,1.2-0.9,1.5c-3.3,1.2-5.5,4.5-5.5,8.3c0,4.8,3.7,8.8,8.2,8.8h27.1
	c4.5,0,8.2-3.9,8.2-8.8c0-3.7-2.2-7.1-5.5-8.3c-0.6-0.2-1-0.8-0.9-1.5c0-0.5,0.1-0.9,0.1-1.3c0-6.2-4.7-11.3-10.5-11.3
	c-4.3,0-8.3,2.9-9.9,7.3c-0.2,0.4-0.5,0.8-1,0.9c-0.5,0.1-0.9,0-1.3-0.3C46.6,30.3,45.6,29.9,44.5,29.9"/>
<path class="st0" d="M23.9,23H18c-2,0-3.7,1.6-3.7,3.7c0,2,1.6,3.7,3.7,3.7h5.9c2,0,3.7-1.6,3.7-3.7C27.5,24.6,25.9,23,23.9,23
	 M23.9,27.3H18c-0.4,0-0.7-0.3-0.7-0.7c0-0.4,0.3-0.7,0.7-0.7l5.9,0c0.4,0,0.7,0.3,0.7,0.7C24.6,27,24.3,27.3,23.9,27.3"/>
<rect x="7.1" y="26.1" class="st0" width="2.9" height="8.6"/>
<path class="st0" d="M27.9,41.8C27.9,41.8,27.9,41.8,27.9,41.8l-13.8,0c-2.2,0-4.1-1.8-4.1-4.1v-0.1H7.1v0.1c0,1.8,0.7,3.4,1.8,4.7
	c0,0.1,0,0.1,0,0.2l0,3.5c0,3.2,2.6,5.9,5.9,5.9c3.2,0,5.9-2.6,5.9-5.9v-1.3h7.3c0,0,0,0,0,0c0.8,0,1.5-0.7,1.5-1.5
	C29.4,42.4,28.7,41.8,27.9,41.8 M17.6,46c0,1.6-1.3,2.9-2.9,2.9c-1.6,0-2.9-1.3-2.9-2.9v-1.7c0.7,0.2,1.5,0.4,2.3,0.4h3.6V46z"/>
<path class="st0" d="M77.4,12.5h-5.9c-1.2,0-2.2,0.6-2.9,1.4c-2-3.1-5.4-8.3-6.6-9.9c-1.9-2.6-4.7-4-7.8-4H26.7
	c-3.1,0-5.8,1.4-7.8,4c-1.2,1.7-4.6,6.9-6.6,9.9c-0.7-0.8-1.7-1.4-2.9-1.4H3.7c-2,0-3.7,1.6-3.7,3.7c0,2,1.6,3.7,3.7,3.7h4.3
	c-0.6,1-0.9,2.2-0.9,3.4v0.1H10v-0.1c0-2.2,1.8-4.1,4.1-4.1h53c2.2,0,3.9,1.7,4,3.9v1.4h0c0,0.8,0.7,1.5,1.5,1.5
	c0.8,0,1.5-0.7,1.5-1.5c0,0,0,0,0,0V23h0c0-1.2-0.3-2.2-0.9-3.2h4.3c2,0,3.7-1.6,3.7-3.7C81.1,14.2,79.5,12.5,77.4,12.5 M9.5,16.9
	H3.7c-0.4,0-0.7-0.3-0.7-0.7c0-0.4,0.3-0.7,0.7-0.7l5.9,0c0.4,0,0.7,0.3,0.7,0.7C10.2,16.6,9.9,16.9,9.5,16.9 M14.4,16.2
	c0.6-1,1.5-2.3,2.4-3.6c1.8-2.7,3.8-5.8,4.6-6.8c1.5-1.9,3.2-2.8,5.4-2.8h27.6c2.2,0,3.9,0.9,5.4,2.8c0.8,1,2.8,4.1,4.6,6.8
	c0.9,1.4,1.7,2.7,2.4,3.6H14.4z M77.4,16.9h-5.9c-0.4,0-0.7-0.3-0.7-0.7c0-0.4,0.3-0.7,0.7-0.7l5.9,0c0.4,0,0.7,0.3,0.7,0.7
	C78.2,16.6,77.9,16.9,77.4,16.9"/>
</svg>
