<svg
    xmlns="http://www.w3.org/2000/svg" viewBox="0 0 695.5 790">
	    <style>
    path{
    color:#005bac;
    }
    </style>
    <path fill="CurrentColor" d="M235.1,147.6c-11.1-10.7-22.5-21.3-33.4-32.2c-28.8-28.9-57.3-58-86-86.9c-5.3-5.4-7.7-11.3-4.9-18.7
	c2.5-6.5,8.4-9.8,17-9.8C274.5,0,421.3,0,568,0c9.5,0,15.9,4.6,17.5,12.8c1.2,6-1,10.8-5.2,15.1c-16.5,16.6-32.9,33.3-49.4,50
	c-22.5,22.8-45,45.5-67.5,68.3c-0.8,0.8-1.5,1.7-2.4,2.7c9.8,3.3,19.4,5.9,28.7,9.7c107.5,43.2,174.6,120.9,199.8,234.2
	c4.3,19.4,5.9,39.2,5.9,59.1c0,81,0,162,0,242.9c0,53.1-42.1,95.3-95.2,95.3c-168.3,0.1-336.6,0.1-504.9,0
	c-47.4,0-86.8-33.6-94.3-80.2c-0.8-5.1-1-10.3-1-15.4C0,614,0,533.7,0,453.4c0-113.1,60.7-217.3,159-273.1
	c22.9-13,46.9-23.1,72.2-30.2c1-0.3,2-0.6,3-1C234.5,148.6,234.8,148.1,235.1,147.6z M163.9,31.8c1.5,1.6,2.4,2.6,3.4,3.6
	c33.1,33.5,66.2,67,99.2,100.6c1.4,1.4,2.3,3.8,2.4,5.8c0.2,9.4,0,18.8,0.2,28.2c0,2.9-0.9,4.1-3.9,4.7c-10.1,2.2-20.2,4.3-30,7.2
	C115,217.7,32.6,326.9,31.9,452.3c-0.5,80.8-0.1,161.7-0.1,242.5c0,4.1,0.3,8.2,1.1,12.2c6.1,30.8,31.7,51.3,63.9,51.3
	c167.2,0,334.5,0,501.7,0c3.4,0,6.9,0,10.3-0.6c33-5.3,54.8-30.8,54.8-64.2c0-79.7,0-159.3,0-239c0-41.6-7.8-81.6-26-119.1
	C595.5,248.2,526.3,194.9,431.4,175c-3.1-0.7-3.7-1.8-3.7-4.6c0.1-9.3,0.3-18.5-0.1-27.8c-0.1-4.1,1.3-6.8,4.1-9.6
	c32.3-32.5,64.4-65.1,96.6-97.6c1-1,1.8-2,3.1-3.4C408.8,31.8,286.8,31.8,163.9,31.8z"></path>
    <path fill="CurrentColor" d="M361.5,311.8c8.5,2.9,16.4,4.7,23.6,8.2c35.5,17.1,54.3,45.5,55.9,84.9c0.4,9.2-6,16.2-14.5,16.8
	c-9.3,0.6-16.1-5.3-17.2-14.8c-0.7-5.8-0.9-11.7-2.3-17.2c-7.6-29.3-35.5-48.7-66.4-46.6c-29.6,2.1-54.3,25.9-57.8,55.7
	c-4.3,36.8,24.9,69.3,62.4,69.9c34.2,0.5,61.5,14.5,80.4,43.1c36.3,54.8,5.7,129.3-58.5,143.4c-1.5,0.3-3.1,0.7-5.2,1.1
	c0,5.4,0.1,10.9,0,16.5c-0.4,11.2-9.8,18.5-20.2,15.8c-6.2-1.7-10.9-6.8-11.4-13.2c-0.4-4.9-0.5-9.8-0.2-14.7
	c0.2-3.5-1.1-4.6-4.4-5.4c-31.2-7.1-53.6-25.3-67-54.3c-5.5-11.8-8-24.3-7.9-37.3c0-9,6.4-15.9,15-16.3c8.4-0.5,15.4,5.5,16.6,14.3
	c0.7,5.4,0.8,10.8,2,16.1c6.2,27.5,32.8,50.5,66.7,48.2c28.8-1.9,54-25.5,57.8-54.8c4.7-37.3-24.6-70.4-62.6-70.7
	c-44.1-0.4-81.5-28.8-92.6-70.7c-13.7-51.5,19.4-105,71.7-115.8c3.5-0.7,4.9-1.9,4.6-5.6c-0.3-4.6-0.2-9.3,0.1-13.9
	c0.6-8.2,7-14.1,15.2-14.5c8-0.3,15.3,5.3,16.1,13.4C362.1,299.4,361.5,305.8,361.5,311.8z"></path>
    <path fill="CurrentColor" d="M332.5,142.7c0-10.8,0-21,0-31.3c10.7,0,21.1,0,31.8,0c0,10.3,0,20.4,0,31.1c10.7,0,21,0,31.6,0c0,10.7,0,20.8,0,31.3
	c-10.3,0-20.6,0-31.4,0c0,10.7,0,21.1,0,31.6c-10.8,0-21.1,0-31.8,0c0-10.3,0-20.5,0-31.2c-10.7,0-20.9,0-31.5,0
	c0-10.6,0-20.8,0-31.5C311.3,142.7,321.6,142.7,332.5,142.7z"></path>
</svg>