<svg xmlns="http://www.w3.org/2000/svg" viewBox="0 0 181.4 174.8">
<style>
    path,polygon,rect{
    fill:#005bac;
    }
    </style>
	<path class="st0" d="M0,0v150.4c0,13.4,10.9,24.4,24.4,24.4h150.3V168H24.4c-9.7,0-17.5-7.9-17.5-17.5V0"/>
		<path class="st0" d="M36.9,153.7c-0.6,0.6-1.5,1-2.4,1c-3.8,0-7.4-1.5-10.2-4.2c-2.7-2.7-4.2-6.3-4.2-10.1c0-1.9,1.5-3.4,3.4-3.4
			c1.9,0,3.4,1.5,3.4,3.4c0,2,0.8,3.9,2.2,5.3c1.4,1.4,3.3,2.2,5.3,2.2c1.9,0,3.4,1.5,3.4,3.4C37.9,152.2,37.6,153.1,36.9,153.7"/>
		<path class="st0" d="M53.9,154.7H34.7c-1.9,0-3.4-1.5-3.4-3.4c0-1.9,1.5-3.4,3.4-3.4l19.3,0"/>
		<path class="st0" d="M26,142.8c-0.6,0.6-1.5,1-2.4,1c-1.9,0-3.4-1.5-3.4-3.4V88.7c0-1.9,1.5-3.4,3.4-3.4c1.9,0,3.4,1.5,3.4,3.4
			v51.7C27,141.3,26.6,142.2,26,142.8"/>
		<path class="st0" d="M36.9,75.1c-0.6-0.6-1.5-1-2.4-1c-3.8,0-7.4,1.5-10.2,4.2c-2.7,2.7-4.2,6.3-4.2,10.1c0,1.9,1.5,3.4,3.4,3.4
			c1.9,0,3.4-1.5,3.4-3.4c0-2,0.8-3.9,2.2-5.3c1.4-1.4,3.3-2.2,5.3-2.2c1.9,0,3.4-1.5,3.4-3.4C37.9,76.5,37.6,75.7,36.9,75.1"/>
		<path class="st0" d="M50.4,75.1c0.6-0.6,1.5-1,2.4-1c3.8,0,7.4,1.5,10.2,4.2c2.7,2.7,4.2,6.3,4.2,10.1c0,1.9-1.5,3.4-3.4,3.4
			c-1.9,0-3.4-1.5-3.4-3.4c0-2-0.8-3.9-2.2-5.3c-1.4-1.4-3.3-2.2-5.3-2.2c-1.9,0-3.4-1.5-3.4-3.4C49.4,76.5,49.8,75.7,50.4,75.1"/>
		<path class="st0" d="M34.5,74.1h18.1c1.9,0,3.4,1.5,3.4,3.4c0,1.9-1.5,3.4-3.4,3.4H34.5"/>
		<path class="st0" d="M61.4,86c0.6-0.6,1.5-1,2.4-1c1.9,0,3.4,1.5,3.4,3.4v51.6c0,1.9-1.5,3.4-3.4,3.4c-1.9,0-3.4-1.5-3.4-3.4V88.4
			C60.4,87.5,60.7,86.6,61.4,86"/>
		<path class="st0" d="M50.4,153.7c0.6,0.6,1.5,1,2.4,1c3.8,0,7.4-1.5,10.2-4.2c2.7-2.7,4.2-6.3,4.2-10.1c0-1.9-1.5-3.4-3.4-3.4
			c-1.9,0-3.4,1.5-3.4,3.4c0,2-0.8,3.9-2.2,5.3c-1.4,1.4-3.3,2.2-5.3,2.2c-1.9,0-3.4,1.5-3.4,3.4C49.4,152.2,49.8,153.1,50.4,153.7"
			/>
		<path class="st0" d="M90.9,153.7c-0.6,0.6-1.5,1-2.4,1c-3.8,0-7.4-1.5-10.1-4.2c-2.7-2.7-4.2-6.3-4.2-10.1c0-1.9,1.5-3.4,3.4-3.4
			c1.9,0,3.4,1.5,3.4,3.4c0,2,0.8,3.9,2.2,5.3c1.4,1.4,3.3,2.2,5.3,2.2c1.9,0,3.4,1.5,3.4,3.4C91.9,152.2,91.5,153.1,90.9,153.7"/>
		<path class="st0" d="M107.9,154.7H88.6c-1.9,0-3.4-1.5-3.4-3.4c0-1.9,1.5-3.4,3.4-3.4l19.3,0"/>
		<path class="st0" d="M79.9,142.8c-0.6,0.6-1.5,1-2.4,1c-1.9,0-3.4-1.5-3.4-3.4V28.2c0-1.9,1.5-3.4,3.4-3.4c1.9,0,3.4,1.5,3.4,3.4
			v112.2C80.9,141.3,80.6,142.2,79.9,142.8"/>
		<path class="st0" d="M90.9,14.5c-0.6-0.6-1.5-1-2.4-1c-3.8,0-7.4,1.5-10.1,4.2c-2.7,2.7-4.2,6.3-4.2,10.1c0,1.9,1.5,3.4,3.4,3.4
			c1.9,0,3.4-1.5,3.4-3.4c0-2,0.8-3.9,2.2-5.3c1.4-1.4,3.3-2.2,5.3-2.2c1.9,0,3.4-1.5,3.4-3.4C91.9,16,91.5,15.2,90.9,14.5"/>
		<path class="st0" d="M104.4,14.5c0.6-0.6,1.5-1,2.4-1c3.8,0,7.4,1.5,10.1,4.2c2.7,2.7,4.2,6.3,4.2,10.1c0,1.9-1.5,3.4-3.4,3.4
			s-3.4-1.5-3.4-3.4c0-2-0.8-3.9-2.2-5.3c-1.4-1.4-3.3-2.2-5.3-2.2c-1.9,0-3.4-1.5-3.4-3.4C103.4,16,103.7,15.2,104.4,14.5"/>
		<path class="st0" d="M88.4,13.5h18.2c1.9,0,3.4,1.5,3.4,3.4c0,1.9-1.5,3.4-3.4,3.4H88.4"/>
		<path class="st0" d="M115.3,25.5c0.6-0.6,1.5-1,2.4-1c1.9,0,3.4,1.5,3.4,3.4v112.2c0,1.9-1.5,3.4-3.4,3.4c-1.9,0-3.4-1.5-3.4-3.4
			V27.9C114.3,26.9,114.7,26.1,115.3,25.5"/>
		<path class="st0" d="M104.4,153.7c0.6,0.6,1.5,1,2.4,1c3.8,0,7.4-1.5,10.1-4.2c2.7-2.7,4.2-6.3,4.2-10.1c0-1.9-1.5-3.4-3.4-3.4
			s-3.4,1.5-3.4,3.4c0,2-0.8,3.9-2.2,5.3c-1.4,1.4-3.3,2.2-5.3,2.2c-1.9,0-3.4,1.5-3.4,3.4C103.4,152.2,103.7,153.1,104.4,153.7"/>
		<path class="st0" d="M144.8,153.7c-0.6,0.6-1.5,1-2.4,1c-3.8,0-7.4-1.5-10.1-4.2c-2.7-2.7-4.2-6.3-4.2-10.1c0-1.9,1.5-3.4,3.4-3.4
			c1.9,0,3.4,1.5,3.4,3.4c0,2,0.8,3.9,2.2,5.3c1.4,1.4,3.3,2.2,5.3,2.2c1.9,0,3.4,1.5,3.4,3.4C145.8,152.2,145.4,153.1,144.8,153.7"
			/>
		<path class="st0" d="M161.8,154.7h-19.3c-1.9,0-3.4-1.5-3.4-3.4c0-1.9,1.5-3.4,3.4-3.4l19.3,0"/>
		<path class="st0" d="M133.9,142.8c-0.6,0.6-1.5,1-2.4,1c-1.9,0-3.4-1.5-3.4-3.4V61.8c0-1.9,1.5-3.4,3.4-3.4c1.9,0,3.4,1.5,3.4,3.4
			v78.5C134.9,141.3,134.5,142.2,133.9,142.8"/>
		<path class="st0" d="M144.8,48.2c-0.6-0.6-1.5-1-2.4-1c-3.8,0-7.4,1.5-10.1,4.2c-2.7,2.7-4.2,6.3-4.2,10.1c0,1.9,1.5,3.4,3.4,3.4
			c1.9,0,3.4-1.5,3.4-3.4c0-2,0.8-3.9,2.2-5.3c1.4-1.4,3.3-2.2,5.3-2.2c1.9,0,3.4-1.5,3.4-3.4C145.8,49.7,145.4,48.8,144.8,48.2"/>
		<path class="st0" d="M160.6,54C160.6,54,160.7,54,160.6,54c2.1,0,4,0.8,5.4,2.2c1.4,1.4,2.2,3.3,2.2,5.3V74h6.8V61.5
			c0-3.8-1.5-7.4-4.2-10.1c-2.7-2.7-6.3-4.2-10.2-4.2c0,0-0.1,0-0.1,0c0,0-0.1,0-0.1,0h-18.2V54L160.6,54
			C160.5,54,160.6,54,160.6,54z"/>
		<path class="st0" d="M175,107.6h-6.8v32.5c0,0,0,0.1,0,0.1c0,0.1,0,0.1,0,0.1c0,2-0.8,3.9-2.2,5.3c-1.4,1.4-3.3,2.2-5.3,2.2
			c-1.9,0-3.4,1.5-3.4,3.4c0,1,0.4,1.8,1,2.4c0.6,0.6,1.5,1,2.4,1c3.8,0,7.4-1.5,10.2-4.2c2.7-2.7,4.2-6.3,4.2-10.1
			c0-0.1,0-0.1,0-0.1c0,0,0-0.1,0-0.1V107.6z"/>
		<rect x="161.3" y="87.4" class="st0" width="20.1" height="6.7"/>
		<rect x="168" y="80.7" class="st0" width="6.7" height="20.2"/>
</svg>
