<svg version="1.1"
	 xmlns="http://www.w3.org/2000/svg" xmlns:xlink="http://www.w3.org/1999/xlink" xmlns:a="http://ns.adobe.com/AdobeSVGViewerExtensions/3.0/"
	 x="0px" y="0px" width="65px" height="76.6px" viewBox="0 0 65 76.6" style="enable-background:new 0 0 65 76.6;"
	 xml:space="preserve">
<style type="text/css">
	.st0{fill:#005BAA;}
</style>
<defs>
</defs>
<path class="st0" d="M54,76.6H26.9c-6.1,0-11-5.2-11-11.6c0-4.5,2.5-8.6,6.4-10.5c0.2-4.4,3.6-7.9,7.8-7.9c1.1,0,2.3,0.3,3.3,0.8
	c2.3-4.6,6.9-7.6,11.8-7.6c7.4,0,13.4,6.3,13.4,14.2c0,0.2,0,0.3,0,0.5c3.9,1.9,6.4,6,6.4,10.5C65,71.3,60.1,76.6,54,76.6
	 M30.1,49.4c-2.7,0-5,2.4-5,5.4c0,0.2,0,0.3,0,0.5c0.1,0.6-0.3,1.2-0.9,1.5c-3.3,1.2-5.5,4.5-5.5,8.3c0,4.8,3.7,8.8,8.2,8.8H54
	c4.5,0,8.2-3.9,8.2-8.8c0-3.7-2.2-7.1-5.5-8.3c-0.6-0.2-1-0.8-0.9-1.5c0-0.5,0.1-0.9,0.1-1.3c0-6.2-4.7-11.3-10.5-11.3
	c-4.3,0-8.3,2.9-9.9,7.3c-0.2,0.4-0.5,0.8-1,0.9c-0.5,0.1-0.9,0-1.3-0.3C32.2,49.8,31.2,49.4,30.1,49.4"/>
<path class="st0" d="M12.2,73.4H6.4c-3.5,0-6.4-2.9-6.4-6.4V13.2c0-0.8,0.6-1.4,1.4-1.4c0.8,0,1.4,0.6,1.4,1.4v53.8
	c0,2,1.6,3.6,3.6,3.6h5.8c0.8,0,1.4,0.6,1.4,1.4C13.6,72.7,13,73.4,12.2,73.4"/>
<path class="st0" d="M45.7,21.5H34.9c-0.8,0-1.4-0.6-1.4-1.4c0-0.8,0.6-1.4,1.4-1.4h10.8c0.8,0,1.4,0.6,1.4,1.4
	C47.1,20.9,46.5,21.5,45.7,21.5"/>
<path class="st0" d="M45.7,30.8H34.9c-0.8,0-1.4-0.6-1.4-1.4c0-0.8,0.6-1.4,1.4-1.4h10.8c0.8,0,1.4,0.6,1.4,1.4
	C47.1,30.2,46.5,30.8,45.7,30.8"/>
<path class="st0" d="M8.3,15.5c-0.6,0-1.1-0.4-1.3-0.9c-0.3-0.7,0.1-1.6,0.8-1.8L20,8.2c0.7-0.3,1.6,0.1,1.8,0.8
	c0.3,0.7-0.1,1.6-0.8,1.8L8.8,15.4C8.7,15.5,8.5,15.5,8.3,15.5"/>
<path class="st0" d="M16.9,37c-0.6,0-1.1-0.3-1.3-0.9l-10-25.4c-0.7-2-0.7-4.2,0.2-6.1c0.9-1.9,2.5-3.4,4.4-4.1
	c2-0.7,4.1-0.7,6.1,0.2c1.9,0.9,3.4,2.5,4.1,4.4l10,25.3c0.1,0.4,0.1,0.8,0,1.1c-0.2,0.3-0.4,0.6-0.8,0.8l-12.2,4.5
	C17.2,37,17.1,37,16.9,37 M13,2.9c-0.6,0-1.2,0.1-1.8,0.3C9.9,3.6,8.9,4.6,8.4,5.8C7.8,7.1,7.7,8.4,8.2,9.7l9.5,24l9.5-3.5l-9.5-24
	c-0.5-1.3-1.4-2.3-2.7-2.9C14.4,3,13.7,2.9,13,2.9"/>
<path class="st0" d="M26.9,45.3c-0.3,0-0.6-0.1-0.9-0.3l-10-8.3c-0.4-0.3-0.6-0.8-0.5-1.3c0.1-0.5,0.4-0.9,0.9-1.1l12.2-4.5
	c0.5-0.2,1-0.1,1.4,0.2s0.6,0.8,0.5,1.3l-2.2,12.8c-0.1,0.5-0.4,0.9-0.9,1.1C27.2,45.2,27.1,45.3,26.9,45.3 M19.7,36l6.2,5.1
	l1.3-7.9L19.7,36z"/>
<rect x="52.7" y="21.1" class="st0" width="8.6" height="2.9"/>
<path class="st0" d="M55.7,13.2v2.2h2.8v-2.2c0-3.5-2.9-6.4-6.4-6.4H28.6c-0.8,0-1.4,0.6-1.4,1.4c0,0.8,0.6,1.4,1.4,1.4h23.5
	C54.1,9.6,55.7,11.2,55.7,13.2"/>
<path class="st0" d="M55.7,29.6v9.9c0,0.8,0.6,1.4,1.4,1.4s1.4-0.6,1.4-1.4v-9.9H55.7z"/>
<rect x="55.7" y="18.2" class="st0" width="2.8" height="8.6"/>
</svg>
