<?xml version="1.0" encoding="utf-8"?>
<!-- Generator: Adobe Illustrator 22.1.0, SVG Export Plug-In . SVG Version: 6.00 Build 0)  -->
<svg version="1.1" id="Layer_1" xmlns="http://www.w3.org/2000/svg" xmlns:xlink="http://www.w3.org/1999/xlink" x="0px" y="0px"
	 viewBox="0 0 986.1 865.2" style="enable-background:new 0 0 986.1 865.2;" xml:space="preserve">
<style type="text/css">
	.st0{fill-rule:evenodd;clip-rule:evenodd;fill:#005BAC;}
</style>
<g>
	<polygon class="st0" points="803,93.8 736,26.8 759,4.9 824.9,71.9 803,93.8 803,93.8 	"/>
	<polygon class="st0" points="824.9,26.8 759,93.8 736,71.9 803,4.9 824.9,26.8 824.9,26.8 	"/>
	<path class="st0" d="M389.7,593.4c-5.8,0-8.7-2.9-11.5-5.8c-136-133-136-133-136-133c-5.8-5.8-5.8-17.4,0-23.2
		C635.6,38,635.6,38,635.6,38c5.8-5.8,17.4-5.8,23.1,0c133.1,136,133.1,136,133.1,136c5.8,5.8,5.8,17.4,0,23.2
		C690.6,298.4,690.6,298.4,690.6,298.4c-8.7,5.8-17.4,5.8-23.2,0c-5.8-5.8-5.8-17.4,0-23.2c89.7-89.7,89.7-89.7,89.7-89.7
		C647.1,72.7,647.1,72.7,647.1,72.7C276.9,443,276.9,443,276.9,443c112.8,109.9,112.8,109.9,112.8,109.9
		c133.1-133.1,133.1-133.1,133.1-133.1c5.8-5.8,17.4-5.8,23.1,0c5.8,5.8,5.8,17.4,0,23.1C401.3,587.6,401.3,587.6,401.3,587.6
		C398.4,590.6,392.6,593.4,389.7,593.4L389.7,593.4z"/>
	<path class="st0" d="M335.3,634.5c-5.8,0-8.8,0-11.7-6C201.2,506.8,201.2,506.8,201.2,506.8c-5.8-6-5.8-17.8,0-23.7
		c5.8-6,17.5-6,23.3,0c122.4,124.7,122.4,124.7,122.4,124.7c5.8,5.9,5.8,14.8,0,20.8C341.1,634.5,338.2,634.5,335.3,634.5
		L335.3,634.5z"/>
	<path class="st0" d="M606,463.4c-60.5,0-109.5-49-109.5-109.5s49-109.5,109.5-109.5c60.5,0,109.5,49,109.5,109.5
		S666.5,463.4,606,463.4L606,463.4z M606,276.1c-43.2,0-77.8,34.6-77.8,77.8c0,43.2,34.6,74.9,77.8,74.9c40.3,0,74.9-31.7,74.9-74.9
		C680.9,310.7,646.3,276.1,606,276.1L606,276.1z"/>
	<path class="st0" d="M841.9,860.3c-700.6,0-700.6,0-700.6,0c-8.6,0-14.4-8.6-14.4-17.2c0-28.7,0-28.7,0-28.7
		c0-45.9,37.3-83.2,86.2-83.2c379,0,379,0,379,0c57.4-91.8,34.5-155-17.2-266.9c-2.9-8.6,0-17.2,8.6-20.1c8.6-2.9,17.2,0,20.1,8.6
		c54.6,117.7,83.3,195.2,11.5,301.4c-2.9,5.7-8.6,8.6-14.4,8.6c-387.6,0-387.6,0-387.6,0c-28.7,0-54.6,23-54.6,51.7
		c0,11.5,0,11.5,0,11.5c669.1,0,669.1,0,669.1,0c0-11.5,0-11.5,0-11.5c0-28.7-25.8-51.7-57.4-51.7c-11.5,0-11.5,0-11.5,0
		c-5.8,0-11.5-2.9-14.4-8.6c-2.9-5.7-2.9-11.5,0-14.4c54.6-111.9,23-180.8-68.9-298.5c-5.7-5.7-2.9-14.4,2.9-20.1
		c8.6-5.7,17.2-5.7,23,0c91.9,114.8,129.2,195.2,83.3,310c43.1,5.7,74.6,40.2,74.6,83.2c0,28.7,0,28.7,0,28.7
		C859.2,851.7,853.4,860.3,841.9,860.3L841.9,860.3z"/>
</g>
</svg>
