<svg version="1.1"
	 xmlns="http://www.w3.org/2000/svg" xmlns:xlink="http://www.w3.org/1999/xlink" xmlns:a="http://ns.adobe.com/AdobeSVGViewerExtensions/3.0/"
	 x="0px" y="0px" width="63.7px" height="78.6px" viewBox="0 0 63.7 78.6" style="enable-background:new 0 0 63.7 78.6;"
	 xml:space="preserve">
<style type="text/css">
	.st0{fill:#005bac;}
</style>
<defs>
</defs>
<rect x="55.2" y="16.3" class="st0" width="8.5" height="2.9"/>
<path class="st0" d="M58.9,61.1H15.8c-0.8,0-1.4-0.6-1.4-1.4s0.6-1.4,1.4-1.4h43.1c0.8,0,1.4,0.6,1.4,1.4S59.7,61.1,58.9,61.1"/>
<path class="st0" d="M58.9,69.1H15.8c-0.8,0-1.4-0.6-1.4-1.4s0.6-1.4,1.4-1.4h43.1c0.8,0,1.4,0.6,1.4,1.4S59.7,69.1,58.9,69.1"/>
<path class="st0" d="M31,33.5c-4.3,0-7.8-3.5-7.8-7.8c0-4.3,3.5-7.8,7.8-7.8c4.3,0,7.8,3.5,7.8,7.8C38.8,30,35.3,33.5,31,33.5
	 M31,20.7c-2.7,0-5,2.2-5,5c0,2.7,2.2,5,5,5c2.7,0,5-2.2,5-5C35.9,22.9,33.7,20.7,31,20.7"/>
<path class="st0" d="M36.6,52.7c-0.4,0-0.8-0.2-1-0.6l-5.7-9.9c-0.3-0.6-0.1-1.3,0.4-1.6c0.6-0.3,1.3-0.1,1.6,0.4l4.3,7.5l1.2-3.8
	c0.2-0.6,0.8-1,1.4-0.8l3.3,0.9l-4.2-7.4c-0.3-0.6-0.1-1.3,0.4-1.6c0.6-0.3,1.3-0.1,1.6,0.4l5.7,9.9c0.2,0.4,0.2,0.9-0.1,1.3
	c-0.3,0.4-0.8,0.5-1.3,0.4l-5-1.4l-1.7,5.3c-0.1,0.4-0.5,0.8-1,0.8C36.7,52.7,36.7,52.7,36.6,52.7"/>
<path class="st0" d="M25.3,52.7c0,0-0.1,0-0.1,0c-0.5-0.1-0.9-0.4-1-0.8l-1.7-5.3l-5,1.4c-0.5,0.1-1,0-1.3-0.4
	c-0.3-0.4-0.3-0.9-0.1-1.3l5.7-9.9c0.3-0.6,1.1-0.8,1.6-0.4c0.6,0.3,0.8,1.1,0.4,1.6l-4.2,7.4L23,44c0.6-0.2,1.3,0.2,1.4,0.8
	l1.2,3.8L30,41c0.3-0.6,1.1-0.8,1.6-0.4c0.6,0.3,0.8,1.1,0.4,1.6l-5.7,9.9C26.1,52.4,25.7,52.7,25.3,52.7"/>
<path class="st0" d="M31,41.4c-2.1,0-4-1.3-4.6-3.3c-0.3-0.1-0.6-0.2-0.9-0.4c-1.8,0.9-4.1,0.5-5.6-0.9C18.3,35.3,18,33,19,31.1
	c-0.1-0.3-0.2-0.5-0.3-0.8c-2-0.6-3.4-2.5-3.4-4.7c0-2.1,1.4-4,3.4-4.7c0.1-0.3,0.2-0.5,0.3-0.8c-0.9-1.9-0.6-4.2,0.9-5.7
	c1.5-1.5,3.7-1.8,5.6-1c0.3-0.1,0.6-0.3,1-0.4c0.7-1.9,2.5-3.2,4.6-3.2c2,0,3.8,1.3,4.6,3.1c0.4,0.1,0.8,0.3,1.2,0.5
	c1.8-0.8,4-0.4,5.4,1c1.4,1.4,1.8,3.5,1.1,5.3c0.2,0.4,0.4,0.9,0.5,1.3c1.8,0.8,3,2.5,3,4.5c0,2-1.2,3.8-3,4.5
	c-0.2,0.4-0.3,0.9-0.5,1.3c0.8,1.8,0.4,3.9-1.1,5.3c-1.5,1.4-3.6,1.8-5.5,1c-0.4,0.2-0.7,0.3-1.1,0.4C34.8,40.1,33,41.4,31,41.4
	 M25.4,34.7c0.2,0,0.5,0.1,0.7,0.2c0.6,0.3,1.2,0.6,1.9,0.8c0.5,0.2,0.9,0.6,1,1.1c0.2,1,1,1.7,2,1.7c1,0,1.8-0.7,2-1.7
	c0.1-0.5,0.5-1,1-1.1c0.7-0.2,1.4-0.5,2-0.8c0.5-0.2,1-0.2,1.5,0.1c0.8,0.5,1.9,0.4,2.6-0.3c0.7-0.7,0.8-1.8,0.3-2.6
	c-0.3-0.4-0.3-1,0-1.5c0.4-0.7,0.7-1.4,0.9-2.1c0.1-0.5,0.5-0.9,1-1c0.9-0.2,1.6-1,1.6-2c0-1-0.7-1.8-1.6-2c-0.5-0.1-0.9-0.5-1-1
	c-0.2-0.7-0.5-1.5-0.9-2.1c-0.3-0.5-0.2-1,0-1.4c0.5-0.8,0.4-1.9-0.3-2.5c-0.7-0.7-1.8-0.8-2.6-0.3c-0.4,0.3-1,0.3-1.4,0.1
	c-0.6-0.3-1.3-0.6-2-0.8c-0.5-0.1-0.9-0.6-1-1.1c-0.2-1-1-1.7-2-1.7c-1,0-1.9,0.7-2,1.7c-0.1,0.5-0.5,1-1,1.1
	c-0.7,0.2-1.3,0.5-1.9,0.8c-0.5,0.3-1.1,0.2-1.5-0.1c-0.8-0.6-1.9-0.5-2.7,0.2c-0.7,0.7-0.8,1.9-0.2,2.7c0.3,0.4,0.4,1,0.1,1.5
	c-0.3,0.6-0.6,1.2-0.8,1.8c-0.2,0.5-0.6,0.9-1.2,1c-1,0.1-1.8,1-1.8,2c0,1,0.8,1.9,1.8,2c0.6,0.1,1,0.5,1.2,1
	c0.2,0.6,0.4,1.2,0.8,1.8c0.3,0.5,0.2,1.1-0.1,1.5c-0.6,0.8-0.6,2,0.2,2.7c0.7,0.7,1.9,0.8,2.7,0.2C24.8,34.8,25.1,34.7,25.4,34.7"
	/>
<path class="st0" d="M58.1,24.9v50.9H12.8c-5.5,0-9.9-4.4-9.9-9.9V12.8c0-5.5,4.4-9.9,9.9-9.9h45.3v7.7h2.8V1.4
	c0-0.8-0.6-1.4-1.4-1.4H12.8C5.7,0,0,5.7,0,12.8v53.1c0,7,5.7,12.8,12.8,12.8h46.7c0.8,0,1.4-0.6,1.4-1.4V24.9H58.1z"/>
<rect x="58.1" y="13.4" class="st0" width="2.8" height="8.7"/>
</svg>
