<svg
    xmlns="http://www.w3.org/2000/svg" viewBox="0 0 312.8 548.2">
	    <style>
    path,polygon{
    color:#005bac;
    }
    </style>
    <path fill="currentColor" d="M45,326.6c0,29.1,11.3,56.7,31.7,77.7l1,1.1c21.1,21.1,49.1,32.7,78.8,32.7c29.5,0,57.5-11.6,78.6-32.7
		c21.1-21.1,32.7-49.1,32.7-78.7V223.9c0-29.9-11.6-57.9-32.7-78.8c-21-21-48.9-32.5-78.6-32.5c-29.9,0-57.9,11.5-78.8,32.5
		C56.6,166.2,45,194.2,45,223.9V326.6z M92.7,160.1c16.9-17,39.6-26.3,63.8-26.3c24,0,46.6,9.3,63.5,26.3
		c17.1,17,26.5,39.6,26.5,63.8v40.8h-37V286h37v40.7c0,23.9-9.4,46.6-26.5,63.7c-17.1,17.1-39.7,26.5-63.5,26.5
		c-24,0-46.7-9.4-63.7-26.4l-0.9-1c-16.6-17-25.7-39.3-25.7-62.8V286h37v-21.3h-37v-40.8C66.2,199.9,75.6,177.2,92.7,160.1z"></path>
    <path fill="currentColor" d="M70.9,112.5c22.8-22.8,53.2-35.3,85.6-35.3c32.2,0,62.5,12.5,85.3,35.3c2.1,2.1,4.8,3.1,7.5,3.1
		c2.7,0,5.4-1,7.5-3.1c4.1-4.1,4.2-10.9,0-15C230.1,70.7,194.5,56,156.6,56c-38.1,0-73.9,14.7-100.7,41.5c-4.2,4.2-4.2,10.9,0,15
		C60,116.7,66.8,116.7,70.9,112.5z"></path>
    <path fill="currentColor" d="M28.9,73.9c2.7,0,5.4-1,7.5-3.1c10.2-10.2,21.8-19.1,34.2-26.4c25.9-15.1,55.6-23.1,85.9-23.1
		c45.3,0,87.8,17.6,119.7,49.5c4.1,4.1,10.9,4.1,15,0c4.1-4.1,4.1-10.9,0-15C255.4,19.8,207.6,0,156.6,0c-34.1,0-67.5,9-96.7,26
		c-14.1,8.2-27,18.2-38.6,29.7c-4.1,4.2-4.1,10.9,0,15C23.5,72.9,26.2,73.9,28.9,73.9z"></path>
    <path fill="currentColor" d="M302.1,277.2c-5.9,0-10.6,4.8-10.6,10.6v35.6c0,18.1-3.4,35.4-10.2,51.6c-6.7,16.4-16.6,31.1-29.4,43.8
		c-25.7,25.7-59.5,39.8-95.3,39.8c-17.8,0-35.2-3.4-51.5-10.1c-16.8-7.1-31.6-17.1-44.2-29.7c-12.8-12.6-22.7-27.4-29.5-44
		c-6.8-15.8-10.3-33.1-10.3-51.4v-35.6c0-5.9-4.8-10.6-10.6-10.6C4.8,277.2,0,282,0,287.9v35.6c0,21.2,4,41.3,11.9,59.6
		c7.8,19.1,19.2,36.2,34.1,50.8c14.4,14.5,31.5,26,50.9,34.2c15.6,6.4,32,10.1,48.8,11.2v47.6H76.2c-5.9,0-10.6,4.8-10.6,10.6
		c0,5.9,4.8,10.6,10.6,10.6h160.4c5.9,0,10.6-4.8,10.6-10.6c0-5.9-4.8-10.6-10.6-10.6H167v-47.6c37.5-2.5,72.7-18.3,99.8-45.4
		c14.8-14.7,26.3-31.8,34.1-50.8c7.9-18.7,11.8-38.8,11.8-59.7v-35.6C312.8,282,308,277.2,302.1,277.2z"></path>
    <polygon fill="currentColor" points="145.8,307.2 167,307.2 167,286 188.3,286 188.3,264.7 167,264.7 167,243.4 145.8,243.4 145.8,264.7
		124.5,264.7 124.5,286 145.8,286 	"></polygon>
</svg>