<svg
    xmlns="http://www.w3.org/2000/svg" viewBox="0 0 592.9 763">
	    <style>
    path{
    color:#005bac;
    }
    </style>
    <path fill="CurrentColor" d="M550.4,210.5c7.9,0,14.3-6.4,14.3-14.3v-54.9h13.9c7.9,0,14.3-6.4,14.3-14.3c0-7.9-6.4-14.3-14.3-14.3h-93h-0.1
	H370l-9.8-50c-0.1-0.3-0.3-0.6-0.4-0.9c-0.2-1-0.7-1.8-1.1-2.7c-0.4-0.8-0.8-1.6-1.4-2.3c-0.2-0.3-0.3-0.6-0.5-0.9L310.4,4.6
	c-0.2-0.2-0.5-0.3-0.6-0.5c-0.2-0.2-0.2-0.4-0.4-0.5c-0.5-0.5-1.1-0.6-1.7-1C306.8,2,306,1.4,305.1,1c-0.8-0.3-1.6-0.4-2.4-0.6
	c-1-0.2-1.9-0.4-2.9-0.4c-0.9,0-1.7,0.2-2.6,0.4c-0.9,0.2-1.8,0.3-2.7,0.6c-0.9,0.3-1.7,0.9-2.5,1.5c-0.6,0.4-1.3,0.6-1.8,1
	c-0.2,0.2-0.2,0.4-0.4,0.6c-0.2,0.2-0.4,0.3-0.6,0.5l-46.4,51.3c-0.2,0.2-0.3,0.6-0.5,0.9c-0.6,0.7-1,1.5-1.4,2.4
	c-0.5,0.9-0.9,1.8-1.1,2.7c-0.1,0.3-0.3,0.5-0.3,0.9l-9.8,50H114h-0.1H21c-7.9,0-14.3,6.4-14.3,14.3c0,7.9,6.4,14.3,14.3,14.3h13.9
	v54.9c0,7.9,6.4,14.3,14.2,14.3c7.9,0,14.3-6.4,14.3-14.3v-54.9h44.7l97.1,96.5l-96.9,496.8h-94c-7.9,0-14.3,6.4-14.3,14.2
	c0,7.9,6.4,14.3,14.3,14.3h419.3h3.7H573c7.9,0,14.2-6.4,14.2-14.3c0-7.9-6.4-14.2-14.2-14.2h-81.7l-96.9-496.8l97.1-96.5h44.7v54.9
	C536.2,204.1,542.5,210.5,550.4,210.5z M266.6,72.1l33.2-36.7L333,72.1l7.9,40.6h-82.2L266.6,72.1z M402.2,426.9l38.4,196.7H159
	l38.4-196.7h32.8v-28.5h-27.3l30.5-156.2h132.8l30.5,156.2h-24.2v28.5H402.2z M239,213.7l14.1-72.4h93.4l14.1,72.4H239z
	 M148.6,141.2h75.4L211.8,204L148.6,141.2z M437.3,734.5h-3.7H137.4l16.1-82.4c0,0,0.2,0.1,0.3,0.1h292.4l16.1,82.4H437.3z
	 M387.8,204l-12.3-62.8H451L387.8,204z M315.6,398.4h28.4v28.5h-28.4v28.3h-28.4v-28.3h-28.3v-28.5h28.3v-28.3h28.4V398.4z"></path>
</svg>