<svg xmlns="http://www.w3.org/2000/svg" viewBox="0 0 264.4 389.6">
<style>
    path,polygon,rect{
    fill:#005bac;
    }
    </style>
	<path class="st0" d="M203,337.1H61.4c-3.6,0-6.5-2.9-6.5-6.6c0-3.6,2.9-6.6,6.5-6.6H203c3.6,0,6.5,2.9,6.5,6.6
		C209.5,334.2,206.6,337.1,203,337.1z"/>
	<path class="st0" d="M177.3,389.6H87.1c-3.6,0-6.6-2.9-6.6-6.5c0-3.6,2.9-6.6,6.6-6.6h90.2c3.6,0,6.6,2.9,6.6,6.6
		C183.9,386.6,180.9,389.6,177.3,389.6z"/>
	<path class="st0" d="M132.2,161.2c-24.6,0-48.1-10.7-64.5-29.2c-2.4-2.7-2.1-6.9,0.6-9.3c2.7-2.4,6.9-2.2,9.3,0.6
		c13.8,15.7,33.7,24.8,54.5,24.8c20.8,0,40.7-9,54.5-24.8c2.4-2.7,6.6-3,9.3-0.6c2.7,2.4,3,6.6,0.6,9.3
		C180.3,150.5,156.8,161.2,132.2,161.2z"/>
	<polygon class="st0" points="152,284.5 138.8,284.5 138.8,271.2 125.6,271.2 125.6,284.5 112.4,284.5 112.4,297.7 125.6,297.7 
		125.6,310.9 138.8,310.9 138.8,297.7 152,297.7 	"/>
		<path class="st0" d="M99.2,284.6H72.4v0c-7.3,0-13.2-5.9-13.2-13.2h0v-43.9H45.9v43.9c0,14.6,11.8,26.4,26.4,26.4h26.8V284.6z"/>
		<path class="st0" d="M205.3,227.5v43.9h0c0,7.3-5.9,13.2-13.2,13.2v0h-26.8v13.2h26.8c14.6,0,26.4-11.8,26.4-26.4v-43.9H205.3z"/>
	<path class="st0" d="M132.2,0C59.2,0,0,59.2,0,132.2c0,46,23.5,86.5,59.1,110.2V226c-27.9-21.8-45.9-55.7-45.9-93.8
		c0-65.6,53.4-119,119-119c65.6,0,119,53.4,119,119c0,38.1-18,72-45.9,93.8v16.4c35.6-23.7,59.1-64.2,59.1-110.2
		C264.4,59.2,205.2,0,132.2,0z"/>
</svg>

