<svg xmlns="http://www.w3.org/2000/svg" viewBox="0 0 403.4 376">
    <style>
    path,polygon{
    fill:#005bac;
    }
    </style>
	<polygon class="st0" points="298.6,329.9 283.2,329.9 283.2,345.3 267.9,345.3 267.9,360.6 283.2,360.6 283.2,376 298.6,376 
		298.6,360.6 313.9,360.6 313.9,345.3 298.6,345.3 	"/>
	<path class="st0" d="M150.1,187.2c20.4,0,39.2-6.6,54.5-17.7c13,27.6,40.9,45.5,71.9,45.5c43.9,0,79.6-35.7,79.6-79.6
		c0-43.9-35.7-79.6-79.6-79.6c-13.2,0-25.8,3.3-37.3,9.4C227.2,27.5,191.8,0,150.1,0C98.5,0,56.5,42,56.5,93.6
		C56.5,145.2,98.5,187.2,150.1,187.2z M242.8,81.1c10.1-6.3,21.7-9.8,33.8-9.8c35.4,0,64.2,28.8,64.2,64.2
		c0,35.4-28.8,64.2-64.2,64.2c-26.5,0-49.9-16.3-59.5-40.7c16.5-16.9,26.7-39.9,26.7-65.3C243.7,89.4,243.3,85.2,242.8,81.1z
		 M150.1,15.4c43.1,0,78.2,35.1,78.2,78.2c0,43.1-35.1,78.2-78.2,78.2c-43.1,0-78.2-35.1-78.2-78.2C71.9,50.5,107,15.4,150.1,15.4z"
		/>
	<path class="st0" d="M276.5,223.1c-13,0-25.8,2-38.1,5.8c-24.8-18.2-55.3-29.1-88.4-29.1C67.3,199.9,0,267.2,0,350
		c0,4.3,3.5,7.7,7.7,7.7s7.7-3.5,7.7-7.7c0-74.3,60.4-134.7,134.7-134.7c61.1,0,112.7,40.9,129.1,96.8h15.9c-7.2-27.5-22-52-42.1-71
		c7.7-1.6,15.5-2.5,23.5-2.5c61.4,0,111.4,50,111.4,111.4c0,4.3,3.5,7.7,7.7,7.7c4.3,0,7.7-3.5,7.7-7.7
		C403.4,280,346.5,223.1,276.5,223.1z"/>
</svg>
