<svg
    xmlns="http://www.w3.org/2000/svg" viewBox="0 0 640.1 701.1">
    <style>
    path{
    color:#005bac;
    }
    </style>
    <path fill="currentColor" d="M362.1,421.8h-28.1v28h-28v-28H278v-28.1H306v-28h28v28h28.1V421.8z M306,475.8v169.2H306c0,15.4-12.6,28-28,28
	c-15.4,0-28-12.6-28-28H250c0,0,0,0,0,0c0-7.7-6.3-14-14-14c-7.7,0-14,6.3-14,14c0,0,0,0,0,0l0,0c0,31,25.1,56.1,56,56.1
	c31,0,56.1-25.1,56.1-56.1V475.8H306z M640.1,311.6c0,7.2-5.5,13.1-12.5,13.9l-13.8,1c-4.7,0.4-9.3,1-13.9,1.7
	c-1.7,0.2-3.4,0.6-5.2,0.9c-2.8,0.5-5.5,1-8.3,1.5c-2.2,0.4-4.3,0.9-6.5,1.4c-2.1,0.5-4.3,1-6.4,1.5c-2.5,0.7-5,1.3-7.5,2.1
	c-1.4,0.4-2.9,0.9-4.3,1.3c-14.7,4.6-28.8,10.5-42.2,17.6l0,0c-5.9,3.1-11.7,6.3-17.3,9.9c-4,2.5-7.8,5.1-11.6,7.9l-6,4.3
	c-2.3,1.5-5,2.5-7.9,2.5c-2.5,0-4.9-0.7-6.9-1.9l-7.6-4.2c-3.5-1.9-7.1-3.9-10.7-5.7c0.1,0.1,0.2,0.1,0.2,0.2
	c-11.5-5.8-23.6-10.7-36-15l0,0c-14.8-5-30.1-9-45.8-11.6c-0.4-0.1-0.8-0.1-1.2-0.2c-6.7-1.1-13.5-1.9-20.3-2.6
	c-1.7-0.2-3.4-0.3-5.1-0.4c-7.4-0.6-14.8-1-22.3-1c-0.3,0-0.6,0-0.8,0c-0.3,0-0.6,0-0.9,0c-7.5,0-14.9,0.4-22.3,1
	c-1.7,0.1-3.4,0.3-5.1,0.4c-6.8,0.7-13.6,1.5-20.3,2.6c-0.4,0.1-0.8,0.1-1.2,0.2c-15.7,2.7-31,6.6-45.8,11.6l0,0
	c-12.4,4.2-24.4,9.2-36,15c0.1-0.1,0.2-0.1,0.3-0.2c-3.6,1.8-7.2,3.7-10.7,5.7l-7.6,4.2c-2,1.1-4.4,1.9-6.9,1.9
	c-2.9,0-5.6-0.9-7.9-2.5l-6-4.3c-3.8-2.7-7.7-5.4-11.6-7.9c-5.6-3.6-11.4-6.8-17.3-9.9l0,0c-13.4-7.1-27.6-12.9-42.2-17.6
	c-1.4-0.5-2.9-0.9-4.3-1.3c-2.5-0.7-5-1.4-7.5-2.1c-2.1-0.5-4.2-1.1-6.3-1.5c-2.2-0.5-4.3-1-6.5-1.4c-2.8-0.6-5.5-1.1-8.3-1.5
	c-1.7-0.3-3.4-0.6-5.1-0.9c-4.6-0.7-9.2-1.3-13.9-1.7l-13.8-1c-7-0.7-12.5-6.6-12.5-13.9c0-1.1,0.1-2.1,0.4-3.2
	C21.1,167.5,132.8,56.2,274,36.4h0.1c6.6-0.9,13.2-1.6,19.9-2.1c1.5-0.1,3.1-0.2,4.6-0.3c2.2-0.1,4.4-0.1,6.6-0.2V14
	c0-7.7,6.3-14,14.1-14c0.3,0,0.6,0.1,0.9,0.1c0.3,0,0.6-0.1,0.8-0.1c7.8,0,14.1,6.3,14.1,14v19.7c2.2,0.1,4.4,0.1,6.6,0.2
	c1.5,0.1,3.1,0.2,4.6,0.3c6.7,0.5,13.3,1.2,19.9,2.1h0.1c141.1,19.8,252.8,131.1,273.5,272C639.9,309.4,640.1,310.5,640.1,311.6z
	 M519.5,323.1L519.5,323.1L519.5,323.1c6.3-2.9,12.7-5.5,19.2-7.9c1.5-0.6,3-1.1,4.5-1.6c6.5-2.3,13.1-4.5,19.8-6.3h0
	c6.7-1.8,13.6-3.3,20.4-4.7c1.7-0.3,3.4-0.6,5-0.9c7-1.2,14-2.3,21.1-2.9c-1-5.2-2.3-10.4-3.6-15.6c-0.8-3-1.7-6-2.5-9
	c-0.5-1.7-1-3.4-1.5-5c-2.7-8.6-5.8-17.1-9.2-25.3h0.1c-0.1-0.3-0.2-0.6-0.4-0.9c-0.1-0.3-0.2-0.5-0.4-0.8
	c-2.2-5.4-4.6-10.6-7.2-15.8c-1-1.9-2-3.9-3-5.8c-2-3.8-4-7.5-6.2-11.2c-1.5-2.6-2.9-5.1-4.5-7.6c-1.6-2.6-3.3-5.1-5-7.7
	c-2.1-3.2-4.2-6.4-6.4-9.5c-0.4-0.6-0.9-1.1-1.3-1.7c-3.1-4.3-6.3-8.5-9.7-12.6c-0.1-0.2-0.2-0.3-0.3-0.4c-0.1-0.1-0.2-0.2-0.2-0.3
	c-4.1-5-8.5-10-12.9-14.7c-0.3-0.3-0.6-0.6-0.9-0.9c-0.3-0.4-0.7-0.7-1-1.1c-4.1-4.3-8.3-8.5-12.7-12.5c-1.2-1.1-2.4-2.3-3.6-3.3
	c-3.9-3.5-7.8-6.8-11.8-10.1c-0.8-0.6-1.5-1.2-2.3-1.8c-1.1-0.9-2.2-1.7-3.3-2.6c-3.6-2.8-7.2-5.4-10.8-8c-1.5-1.1-3.1-2.1-4.7-3.2
	c-1.1-0.7-2.1-1.5-3.2-2.2c-3.1-2-6.2-4-9.4-5.9c-3.4-2.1-6.9-4.1-10.5-6c-2.5-1.4-5-2.8-7.6-4.1c-3.1-1.6-6.3-3.1-9.6-4.6
	c-1.3-0.6-2.5-1.2-3.8-1.8c-1.9-0.8-3.7-1.7-5.6-2.5c-5.5-2.3-11-4.4-16.6-6.4c-1.1-0.4-2.1-0.7-3.1-1.1c-6.7-2.3-13.5-4.3-20.5-6.1
	c-2.9-0.8-5.9-1.4-8.9-2c-4-0.9-8-1.8-12.1-2.6c-3.3-0.6-6.6-1.1-9.9-1.6c-4.3-0.6-8.6-1.2-12.9-1.7c-2.8-0.3-5.7-0.6-8.5-0.8
	c-7.1-0.6-14.3-0.9-21.6-0.9c-0.2,0-0.3,0-0.5,0c-0.2,0-0.4,0-0.6,0c-7.3,0-14.4,0.4-21.6,0.9c-2.8,0.2-5.7,0.6-8.5,0.8
	c-4.3,0.5-8.6,1-12.9,1.7c-3.3,0.5-6.6,1-9.9,1.6c-4.1,0.8-8.1,1.6-12,2.6c-3,0.7-5.9,1.3-8.9,2c-6.9,1.8-13.8,3.8-20.5,6.1
	c-1,0.4-2,0.7-3.1,1.1c-5.6,2-11.2,4.1-16.7,6.4c-1.9,0.8-3.7,1.6-5.6,2.5c-1.3,0.6-2.5,1.2-3.8,1.8c-3.2,1.5-6.4,3-9.6,4.6
	c-2.6,1.3-5.1,2.7-7.6,4.1c-3.6,1.9-7.1,3.9-10.5,6c-3.2,1.9-6.3,3.9-9.4,5.9c-1.1,0.7-2.1,1.4-3.2,2.2c-1.6,1.1-3.2,2.1-4.7,3.2
	c-3.7,2.6-7.3,5.2-10.8,8c-1.1,0.9-2.2,1.7-3.3,2.6c-0.7,0.6-1.5,1.2-2.3,1.8c-4,3.3-8,6.7-11.8,10.1c-1.2,1.1-2.5,2.2-3.7,3.3
	c-4.4,4-8.6,8.2-12.7,12.5c-0.3,0.4-0.7,0.7-1,1.1c-0.3,0.3-0.6,0.6-0.9,0.9c-4.5,4.8-8.8,9.7-12.9,14.7c-0.1,0.1-0.1,0.2-0.2,0.3
	c-0.1,0.1-0.2,0.2-0.3,0.4c-3.3,4.1-6.5,8.3-9.7,12.6c-0.4,0.6-0.8,1.1-1.3,1.7c-2.2,3.1-4.3,6.3-6.4,9.5c-1.7,2.5-3.4,5.1-5,7.7
	c-1.5,2.5-3,5-4.5,7.6c-2.1,3.7-4.2,7.4-6.2,11.2c-1,1.9-2,3.9-3,5.8c-2.6,5.2-5,10.4-7.2,15.8c-0.1,0.3-0.2,0.5-0.4,0.8
	c-0.1,0.3-0.2,0.6-0.4,0.9h0.1c-3.4,8.3-6.5,16.7-9.2,25.3c-0.5,1.7-1,3.4-1.5,5c-0.9,3-1.7,6-2.5,9c-1.3,5.2-2.5,10.3-3.6,15.6
	c7.1,0.7,14.1,1.7,21.1,2.9c1.7,0.3,3.3,0.6,5,0.9c6.9,1.4,13.7,2.8,20.4,4.7h0c6.7,1.9,13.3,4,19.8,6.3c1.5,0.5,3,1.1,4.5,1.6
	c6.5,2.4,12.9,5,19.2,7.9c0,0,0,0,0,0l0,0c9.1,4.2,18,8.9,26.6,14.1l0,0h0c0.2,0.1,10.1,6.6,12.8,8.5c3.4,2.3,5.7,3.3,8.9,1.6
	c4.2-2.2,4.2-2.5,10.3-6.4c14.5-7,29.6-12.9,45.2-17.8v-0.1c0.7-0.2,1.4-0.3,2-0.6c6.7-2,13.5-3.9,20.4-5.5c0.7-0.2,1.5-0.3,2.3-0.5
	c6.2-1.4,12.5-2.6,18.9-3.7c2.1-0.3,4.3-0.6,6.4-0.9c5.3-0.7,10.6-1.4,16-1.9c2.2-0.2,4.3-0.4,6.5-0.6c7.3-0.5,14.7-0.9,22.2-0.9
	c0.3,0,0.6,0,0.9,0c0.3,0,0.6,0,0.8,0c7.5,0,14.9,0.4,22.2,0.9c2.2,0.2,4.3,0.4,6.5,0.6c5.4,0.5,10.7,1.1,16,1.9
	c2.1,0.3,4.3,0.6,6.4,0.9c6.3,1.1,12.7,2.3,18.9,3.7c0.8,0.2,1.6,0.3,2.4,0.5c6.9,1.6,13.7,3.5,20.4,5.5c0.7,0.2,1.4,0.3,2,0.6v0.1
	c15.6,4.8,30.7,10.7,45.2,17.8c6.1,4,6.1,4.2,10.3,6.4c3.1,1.7,5.5,0.6,8.9-1.6c2.8-1.9,12.7-8.4,12.8-8.5h0l0,0
	C501.5,332,510.4,327.3,519.5,323.1z"></path>
</svg>