<svg
    xmlns="http://www.w3.org/2000/svg" viewBox="0 0 537.2 513.1">
    <style>
    path,rect{
    fill:#005bac;
    }
    </style>
    <path class="st0" d="M92.8,513.1c-0.4,0-0.8,0-1.1-0.1c-88.5-8.8-92.5-90.2-91.5-115c0.1-3.2,1.6-6.2,4.1-8.3
		c156-127,159.3-236.4,159.3-237.5c0.1-6.1,5.1-11.1,11.2-11.1h0.1c6.2,0.1,11.2,5.1,11.1,11.2c0,4.8-2.5,118.5-163.6,251.4
		c-0.1,30.9,9.3,77.6,65.7,86.1c18.6-21.5,96.7-104.8,235.7-171.2c5.6-2.7,12.3-0.3,15,5.3c2.7,5.6,0.3,12.3-5.3,15
		C197.7,404,115,490.6,101.8,508.6C99.7,511.4,96.3,513.1,92.8,513.1z"/>
    <path class="st0" d="M260.1,210.7c-3.7,0-7.3-0.4-11-1.1c-31.7-6.6-47-39.8-47.7-41.2c-2.6-5.6-0.1-12.3,5.6-14.8
		c5.6-2.6,12.2-0.1,14.8,5.5l0,0c0.1,0.3,11.5,24.4,32,28.6c13.5,2.7,29-3.7,46-19.1c4.6-4.2,11.6-3.8,15.8,0.8
		c4.2,4.6,3.8,11.7-0.8,15.8C296.1,202.1,277.7,210.7,260.1,210.7z"/>
    <path class="st0" d="M365.6,300.9c-0.9,0-1.9-0.1-2.8-0.4c-27.1-6.9-44.7-19.8-52.2-38.4c-11.9-29.4,7.2-60.8,8-62.1
		c3.2-5.3,10.2-6.9,15.4-3.6c5.3,3.3,6.9,10.2,3.6,15.4c-0.2,0.4-13.9,23.3-6.3,42c4.7,11.6,17.2,20,36.9,25.1
		c6,1.5,9.7,7.6,8.1,13.6C375.1,297.6,370.6,300.9,365.6,300.9z"/>
    <path class="st0" d="M176.4,320.8c-5.9,0-10.2-2.2-13-4.2c-32-23.5,20.7-108.8,44.9-144.3c3.5-5.1,10.5-6.4,15.6-3
		c5.1,3.5,6.5,10.5,3,15.6c-37.8,55.6-58.3,107.7-50.2,113.7c0.2,0,0.4,0,0.6,0c12.8,0,58-51,95.7-108.8c3.4-5.2,10.3-6.7,15.5-3.3
		c5.2,3.4,6.6,10.3,3.3,15.5c-12.1,18.6-74.5,111.8-110.5,118.3C179.5,320.6,177.9,320.8,176.4,320.8z"/>
    <path class="st0" d="M264.6,323c-1.2,0-2.4-0.1-3.6-0.2c-6.7-0.6-11.9-4.4-13.9-10.2c-1.9-5.3-7.6-21.4,64.2-92.1
		c4.4-4.3,11.5-4.3,15.9,0.1c4.4,4.4,4.3,11.5-0.1,15.9c-22.2,21.9-46.3,49.1-55,63.4c18.5-3.4,49.4-18.2,67.2-28.3
		c5.4-3.1,12.2-1.2,15.3,4.2c3.1,5.4,1.2,12.2-4.2,15.3C344.3,294.6,293.2,323,264.6,323z"/>
    <path class="st0" d="M353.2,59.2c2,2.9,5.2,4.7,8.7,4.9c0.5,0,52.5,3,80.3,38.9c17.3,22.3,22.1,53,14.2,91.4
			c-0.8,4,0.6,8.1,3.7,10.7l1.4,1.2c16.4,13.8,27.3,27.7,33,41.7h23.7c-5.6-19.2-18.4-37.9-38.6-55.8c7.3-42.2,0.7-76.9-19.8-103.3
			c-28.6-36.7-75.2-45.1-91.3-46.9c-41.8-56.5-100-45.2-130.4-28.7c-11.8-6.1-37.4-14.7-66.9,5c-33.5,22.3-34.2,58.8-28.6,80.6
			c-21.2,17.3-31.3,35.9-30.2,55.4c2,35.8,42.1,58.8,43.8,59.8c5.4,3.1,12.2,1.2,15.2-4.2c3.1-5.4,1.2-12.2-4.2-15.3
			c-8.7-4.9-31.4-22.1-32.5-41.6c-0.8-13.3,8.5-27.1,27.5-40.9c4.1-3,5.7-8.4,3.8-13.2c-0.6-1.6-15.2-40.1,17.6-62
			c26-17.3,46.7-2.3,47.5-1.7c3.8,2.9,9,3.1,13,0.5C246.8,34.2,309.2-5.2,353.2,59.2z"/>
    <path class="st0" d="M453.5,361.5c-0.8,8.3-3.9,18.1-13.9,21.4c-20,6.6-35.3-7.7-37.1-11.3c-1.9-3.8-5.7-6.1-10-6.1h-0.1
			c-4.2,0-8,2.4-10,6.1c-0.2,0.2-14.7,25.3-46.7,17.6c-27.1-6.6-29.5-33.6-29-38.6c2.4-4.4,1.5-10.1-2.4-13.6
			c-4.6-4.1-11.7-3.8-15.8,0.8c-8.2,9.1-2.2,29.6-1.5,31.9c6.5,21.1,22.3,36.2,43.5,41.3c6,1.5,11.8,2.1,17.1,2.1
			c20.9,0,36.2-9.8,45.5-19.1c12.2,9.8,32.1,17.3,53.6,10.2c21-7,28.1-26,29.2-42.6H453.5z"/>
    <rect x="469.2" y="293.4" class="st0" width="68.1" height="22.7"/>
    <rect x="491.8" y="270.7" class="st0" width="22.7" height="68.1"/>
</svg>
