<?xml version="1.0" encoding="utf-8"?>
<!-- Generator: Adobe Illustrator 17.0.0, SVG Export Plug-In . SVG Version: 6.00 Build 0)  -->
<!DOCTYPE svg PUBLIC "-//W3C//DTD SVG 1.1//EN" "http://www.w3.org/Graphics/SVG/1.1/DTD/svg11.dtd">
<svg version="1.1" id="图层_1" xmlns="http://www.w3.org/2000/svg" xmlns:xlink="http://www.w3.org/1999/xlink" x="0px" y="0px"
	 width="55.394px" height="56.833px" viewBox="0 0 55.394 56.833" enable-background="new 0 0 55.394 56.833" xml:space="preserve">
<g>
	<g>
		<rect x="25.01" y="27.52" fill="#00bef0" width="5.375" height="1.792"/>
		<rect x="26.801" y="25.729" fill="#00bef0" width="1.792" height="5.375"/>
	</g>
	<g>
		<path fill="#00bef0" d="M27.697,54.292c-6.181,0-11.023-11.366-11.023-25.876c0-14.51,4.842-25.875,11.023-25.875
			c6.181,0,11.023,11.366,11.023,25.875C38.721,42.926,33.878,54.292,27.697,54.292z M27.697,4.342
			c-4.454,0-9.222,9.674-9.222,24.075s4.768,24.074,9.222,24.074c4.454,0,9.222-9.673,9.222-24.074S32.151,4.342,27.697,4.342z"/>
		<path fill="#00bef0" d="M42.508,44.576c-5.553,0-13.15-2.473-20.323-6.613c-5.875-3.392-10.872-7.519-14.071-11.623
			c-3.37-4.323-4.374-8.18-2.827-10.86c1.217-2.108,3.844-3.222,7.599-3.222c5.553,0,13.15,2.472,20.323,6.613
			c12.565,7.255,19.987,17.131,16.896,22.484C48.889,43.462,46.262,44.576,42.508,44.576z M12.886,14.059
			c-2.144,0-4.931,0.403-6.039,2.321c-1.14,1.974-0.16,5.2,2.687,8.852c3.06,3.926,7.872,7.893,13.552,11.171
			c6.911,3.989,14.171,6.371,19.422,6.371c2.143,0,4.93-0.402,6.037-2.32c2.227-3.857-3.766-12.823-16.237-20.024
			C25.397,16.441,18.137,14.059,12.886,14.059z"/>
		<path fill="#00bef0" d="M12.886,44.576c-3.754,0-6.382-1.114-7.599-3.221c-1.547-2.68-0.543-6.537,2.827-10.86
			c3.198-4.104,8.196-8.232,14.072-11.624c7.172-4.141,14.77-6.613,20.321-6.613c3.754,0,6.381,1.114,7.599,3.222
			c1.548,2.68,0.544,6.537-2.826,10.86c-3.199,4.104-8.196,8.232-14.072,11.624C26.036,42.104,18.439,44.576,12.886,44.576z
			 M42.507,14.059c-5.25,0-12.51,2.383-19.421,6.372c-5.68,3.279-10.492,7.247-13.552,11.172c-2.847,3.652-3.826,6.878-2.687,8.852
			c1.108,1.917,3.895,2.32,6.039,2.32c5.251,0,12.511-2.381,19.421-6.37c5.68-3.279,10.493-7.246,13.552-11.171
			c2.847-3.652,3.826-6.879,2.686-8.853C47.438,14.462,44.651,14.059,42.507,14.059z"/>
	</g>
</g>
</svg>
