<?xml version="1.0" encoding="utf-8"?>
<!-- Generator: Adobe Illustrator 17.0.0, SVG Export Plug-In . SVG Version: 6.00 Build 0)  -->
<!DOCTYPE svg PUBLIC "-//W3C//DTD SVG 1.1//EN" "http://www.w3.org/Graphics/SVG/1.1/DTD/svg11.dtd">
<svg version="1.1" id="图层_1" xmlns="http://www.w3.org/2000/svg" xmlns:xlink="http://www.w3.org/1999/xlink" x="0px" y="0px"
	 width="55.394px" height="56.833px" viewBox="0 0 55.394 56.833" enable-background="new 0 0 55.394 56.833" xml:space="preserve">
<g>
	<path fill="#00bef0" d="M33.909,10.792H21.536c-0.49,0-0.887,0.396-0.887,0.887c0,0.488,0.396,0.885,0.887,0.885h12.372
		c0.488,0,0.885-0.396,0.885-0.885C34.793,11.188,34.397,10.792,33.909,10.792z"/>
	<path fill="#00bef0" d="M34.793,16.993c0-0.49-0.396-0.887-0.885-0.887H21.536c-0.49,0-0.887,0.396-0.887,0.887
		c0,0.488,0.396,0.885,0.887,0.885h12.372C34.397,17.878,34.793,17.481,34.793,16.993z"/>
	<rect x="18.886" y="3.712" fill="#00bef0" width="4.42" height="1.77"/>
	<path fill="#00bef0" d="M17.118,51.448v-44.2c0-0.975,0.793-1.768,1.766-1.768v-1.77c-1.949,0-3.537,1.586-3.537,3.537v3.543H5.487
		c-1.951,0-3.537,1.588-3.537,3.539v33.596c0,1.951,1.586,3.539,3.537,3.539h9.861c0.061,1.898,1.615,3.424,3.525,3.424v-1.771
		C17.935,53.118,17.169,52.376,17.118,51.448z M3.722,47.926V14.331c0-0.975,0.791-1.768,1.766-1.768h9.859v37.131H5.487
		C4.513,49.694,3.722,48.901,3.722,47.926z"/>
	<path fill="#00bef0" d="M22.415,42.298c0,2.926,2.381,5.307,5.307,5.307c2.925,0,5.306-2.381,5.306-5.307
		c0-2.926-2.381-5.307-5.306-5.307C24.796,36.991,22.415,39.372,22.415,42.298z M31.256,42.298c0,1.949-1.586,3.535-3.535,3.535
		c-1.949,0-3.535-1.586-3.535-3.535c0-1.949,1.586-3.535,3.535-3.535C29.67,38.762,31.256,40.348,31.256,42.298z"/>
	<path fill="#00bef0" d="M49.032,17.878H42.77c-0.488,0-0.885,0.396-0.885,0.887c0,0.488,0.396,0.885,0.885,0.885h6.262
		c0.488,0,0.885-0.396,0.885-0.885C49.916,18.274,49.52,17.878,49.032,17.878z"/>
	<path fill="#00bef0" d="M49.032,23.192H42.77c-0.488,0-0.885,0.396-0.885,0.887c0,0.488,0.396,0.885,0.885,0.885h6.262
		c0.488,0,0.885-0.396,0.885-0.885C49.916,23.589,49.52,23.192,49.032,23.192z"/>
	<path fill="#00bef0" d="M45.901,36.991c-1.953,0-3.539,1.588-3.539,3.539c0,1.951,1.586,3.537,3.539,3.537
		c1.949,0,3.537-1.586,3.537-3.537C49.438,38.579,47.85,36.991,45.901,36.991z M45.901,42.296c-0.975,0-1.768-0.793-1.768-1.766
		c0-0.975,0.793-1.768,1.768-1.768c0.973,0,1.766,0.793,1.766,1.768C47.666,41.503,46.874,42.296,45.901,42.296z"/>
	<path fill="#00bef0" d="M49.907,10.792h-9.799V7.249c0-1.951-1.588-3.537-3.539-3.537h-4.422v1.77h4.422
		c0.973,0,1.766,0.793,1.766,1.768v44.103h-0.008c0,0.973-0.793,1.766-1.768,1.766H18.876v1.771h17.683
		c1.913,0,3.464-1.526,3.526-3.424h9.822c1.951,0,3.537-1.588,3.537-3.539V14.331C53.444,12.38,51.858,10.792,49.907,10.792z
		 M49.907,49.694h-9.799V12.563h9.799c0.975,0,1.766,0.793,1.766,1.768v33.596C51.672,48.901,50.881,49.694,49.907,49.694z"/>
	<path fill="#00bef0" d="M6.364,19.649h6.26c0.488,0,0.885-0.396,0.885-0.885c0-0.49-0.396-0.887-0.885-0.887h-6.26
		c-0.49,0-0.887,0.396-0.887,0.887C5.478,19.253,5.874,19.649,6.364,19.649z"/>
	<path fill="#00bef0" d="M12.624,23.192h-6.26c-0.49,0-0.887,0.396-0.887,0.887c0,0.488,0.396,0.885,0.887,0.885h6.26
		c0.488,0,0.885-0.396,0.885-0.885C13.509,23.589,13.112,23.192,12.624,23.192z"/>
	<path fill="#00bef0" d="M9.493,36.991c-1.951,0-3.537,1.588-3.537,3.539c0,1.951,1.586,3.537,3.537,3.537s3.539-1.586,3.539-3.537
		C13.032,38.579,11.444,36.991,9.493,36.991z M9.493,42.296c-0.973,0-1.766-0.793-1.766-1.766c0-0.975,0.793-1.768,1.766-1.768
		c0.975,0,1.768,0.793,1.768,1.768C11.261,41.503,10.468,42.296,9.493,42.296z"/>
	<polygon fill="#00bef0" points="26.813,7.249 28.581,7.249 28.581,5.481 30.348,5.481 30.348,3.714 28.581,3.714 28.581,1.944 
		26.813,1.944 26.813,3.714 25.044,3.714 25.044,5.481 26.813,5.481 	"/>
</g>
</svg>
