<svg xmlns="http://www.w3.org/2000/svg" viewBox="0 0 531.81 229.42"><defs><style>.cls-1{fill:#fff;}</style></defs><path class="cls-1" d="M148.56,178.85c-5.77,0-10.05-.58-13.68-1.15-1.4-.25-1.57-.58-1.57-1.48v-3.3c0-.91,.66-1.32,1.4-1.32h.25c3.79,.33,9.81,.49,13.6,.49,9.89,0,12.52-3.96,12.52-9.72,0-4.12-2.39-6.43-9.89-11.04l-7.99-4.86c-7.58-4.61-11.37-8.82-11.37-15.41,0-9.97,7.17-14.58,19.69-14.58,4.86,0,11.21,.49,14.34,.99,.82,.17,1.4,.58,1.4,1.4v3.54c0,.82-.58,1.32-1.4,1.32h-.16c-3.63-.25-9.39-.49-14.17-.49-8.49,0-12.11,1.81-12.11,7.83,0,3.87,2.72,6.18,8.98,9.97l7.58,4.53c9.56,5.69,12.94,10.22,12.94,16.81,0,7.91-4.12,16.48-20.35,16.48Zm46.88,0c-12.11,0-18.29-7.99-18.29-20.1v-6.26c0-12.11,6.18-20.1,18.29-20.1s18.37,7.99,18.37,20.1v6.26c0,12.11-6.26,20.1-18.37,20.1Zm11.12-26.37c0-8.4-3.38-13.76-11.12-13.76s-11.04,5.27-11.04,13.76v6.26c0,8.4,3.3,13.76,11.04,13.76s11.12-5.27,11.12-13.76v-6.26Zm37.65-31.15h-3.96c-3.87,0-5.03,1.15-5.03,5.69v5.93h8.65c.91,0,1.57,.66,1.57,1.48v3.21c0,.82-.66,1.4-1.57,1.4h-8.65v37.57c0,.82-.74,1.65-1.57,1.65h-4.04c-.91,0-1.65-.82-1.65-1.65v-37.57l-7.99-.91c-.91-.08-1.57-.66-1.57-1.48v-2.22c0-.82,.66-1.48,1.57-1.48h7.99v-5.93c0-8.82,4.28-11.45,11.54-11.45,2.22,0,3.54,.25,4.61,.49,.91,.25,1.57,.58,1.57,1.32v2.72c0,.91-.58,1.24-1.48,1.24Zm31.72,57.1c-1.65,.25-3.79,.41-5.36,.41-7.58,0-11.21-1.98-11.21-11.04v-28.76l-7.99-.91c-.91-.08-1.57-.58-1.57-1.48v-2.22c0-.91,.66-1.48,1.57-1.48h7.99v-8.08c0-.82,.58-1.48,1.48-1.65l4.28-.66h.25c.66,0,1.24,.58,1.24,1.4v8.98h8.9c.91,0,1.65,.74,1.65,1.65v2.8c0,.91-.74,1.65-1.65,1.65h-8.9v28.76c0,4.53,1.15,5.19,4.45,5.19h4.61c1.15,0,1.73,.33,1.73,1.15v2.88c0,.74-.41,1.24-1.48,1.4Zm65.17-43.51l-7.99,38.23c-1.07,5.19-1.98,5.69-6.92,5.69-4.28,0-5.44-.74-6.76-5.93l-7.17-28.02q-.16-.58-.41-.58t-.41,.58l-7.17,28.02c-1.24,4.78-2.47,5.93-6.76,5.93-4.94,0-5.85-.58-6.92-5.69l-7.99-38.23v-.33c0-.82,.66-1.65,1.57-1.65h4.45c.74,0,1.32,.66,1.4,1.32l6.84,37.57c.16,.99,.41,.99,.66,.99s.49-.25,.66-.99l8.07-31.64c.49-1.81,1.57-2.47,3.3-2.47h4.61c1.73,0,2.8,.66,3.3,2.47l8.08,31.64c.16,.74,.41,.99,.66,.99s.49,0,.66-.99l6.84-37.57c.08-.66,.66-1.32,1.4-1.32h4.45c.91,0,1.57,.82,1.57,1.65v.33Zm38.64,43.34h-3.79c-.91,0-1.65-.74-1.65-1.65v-1.81c-3.96,2.31-8.08,4.04-12.69,4.04-7,0-13.43-3.05-13.43-13.35v-.99c0-8.9,5.19-13.35,19.86-13.35h6.1v-3.3c0-6.92-2.39-9.31-8.82-9.31-5.36,0-9.31,.33-12.61,.66h-.41c-.74,0-1.48-.25-1.48-1.32v-2.88c0-.91,.58-1.4,1.73-1.57,3.38-.58,7.17-1.07,12.77-1.07,11.45,0,16.07,5.77,16.07,15.49v28.76c0,.91-.74,1.65-1.65,1.65Zm-5.6-21.92h-6.1c-9.97,0-12.61,2.23-12.61,8.08v.99c0,5.93,2.8,7.5,7.58,7.5,3.79,0,7.17-1.15,11.12-3.3v-13.27Zm37.08-17.72c-3.79,0-7.25,.99-11.37,3.46v34.52c0,.82-.74,1.65-1.65,1.65h-4.04c-.82,0-1.57-.74-1.57-1.65v-42.02c0-.91,.66-1.65,1.57-1.65h3.87c.91,0,1.57,.74,1.57,1.65v1.73c4.12-2.88,7.91-3.96,11.62-3.96,1.15,0,1.73,.49,1.73,1.48v3.38c0,.91-.58,1.4-1.73,1.4Zm40.95,19.28h-27.6v1.15c0,9.81,3.87,13.43,11.45,13.43,4.78,0,10.88-.33,14.67-.91h.41c.66,0,1.32,.33,1.32,1.15v2.8c0,1.07-.33,1.65-1.65,1.9-4.7,.91-9.23,1.4-14.75,1.4-9.48,0-18.7-4.45-18.7-19.78v-7.42c0-11.78,6.51-19.28,18.29-19.28s18.13,7.58,18.13,19.28v4.45c0,1.07-.58,1.81-1.57,1.81Zm-5.77-6.26c0-9.31-3.54-12.94-10.79-12.94s-11.04,4.04-11.04,12.94v.74h21.84v-.74ZM35.29,45.64h-13.73v45.43c0,.7-.49,1.41-1.27,1.41h-3.87c-.7,0-1.27-.63-1.27-1.41V45.64H1.41c-.77,0-1.41-.35-1.41-1.13v-3.1c0-.7,.63-1.27,1.41-1.27H35.29c.77,0,1.34,.49,1.34,1.27v3.1c0,.7-.56,1.13-1.34,1.13Zm36.83,46.84h-3.38c-.77,0-1.41-.63-1.41-1.41v-23.17c0-7.04-2.96-9.23-7.54-9.23-2.18,0-6.62,.56-9.72,1.97v30.43c0,.7-.63,1.41-1.41,1.41h-3.45c-.7,0-1.34-.63-1.34-1.41V40.92c0-.77,.56-1.41,1.34-1.41h3.52c.77,0,1.34,.63,1.34,1.41v14.51c3.38-1.48,7.75-2.18,10.78-2.18,7.47,0,12.68,4.3,12.68,14.65v23.17c0,.77-.63,1.41-1.41,1.41Zm39.51-17.4h-23.6v.99c0,8.38,3.31,11.48,9.79,11.48,4.08,0,9.3-.28,12.54-.77h.35c.56,0,1.13,.28,1.13,.99v2.4c0,.92-.28,1.41-1.41,1.62-4.01,.77-7.89,1.2-12.61,1.2-8.1,0-15.99-3.8-15.99-16.9v-6.34c0-10.07,5.56-16.48,15.64-16.48s15.5,6.48,15.5,16.48v3.8c0,.92-.49,1.55-1.34,1.55Zm-4.93-5.35c0-7.96-3.03-11.06-9.23-11.06s-9.44,3.45-9.44,11.06v.63h18.67v-.63Zm386.11,23.2c-9.38,0-14.17-6.19-14.17-15.57v-4.85c0-9.38,4.79-15.57,14.17-15.57s14.23,6.19,14.23,15.57v4.85c0,9.38-4.85,15.57-14.23,15.57Zm8.62-20.42c0-6.51-2.62-10.66-8.62-10.66s-8.55,4.08-8.55,10.66v4.85c0,6.51,2.55,10.66,8.55,10.66s8.62-4.08,8.62-10.66v-4.85Zm29.1-24.13h-3.06c-3,0-3.89,.89-3.89,4.4v4.6h6.7c.7,0,1.21,.51,1.21,1.15v2.49c0,.64-.51,1.08-1.21,1.08h-6.7v29.11c0,.64-.57,1.28-1.21,1.28h-3.13c-.7,0-1.28-.64-1.28-1.28v-29.11l-6.19-.7c-.7-.06-1.21-.51-1.21-1.15v-1.72c0-.64,.51-1.15,1.21-1.15h6.19v-4.6c0-6.83,3.32-8.87,8.94-8.87,1.72,0,2.74,.19,3.57,.38,.7,.19,1.21,.45,1.21,1.02v2.11c0,.7-.45,.96-1.15,.96ZM219.05,92.48h-5.98c-1.34,0-2.44-1.1-2.44-2.44V17.69c0-.24,0-.37-.12-.37s-.12,0-.24,.24l-17.45,36.11c-1.22,2.44-2.44,3.54-5.49,3.54h-5.61c-3.05,0-4.27-1.1-5.49-3.54l-17.45-36.11q-.12-.24-.24-.24c-.12,0-.12,.12-.12,.37V90.04c0,1.34-1.1,2.44-2.44,2.44h-5.98c-1.34,0-2.44-1.1-2.44-2.44V5.37c0-1.95,1.59-3.54,3.54-3.54h7.93c2.2,0,3.17,.49,3.9,2.07l20.13,41.85c.49,1.1,.85,1.34,1.46,1.34s.98-.24,1.46-1.34L206.12,3.9c.73-1.59,1.71-2.07,3.9-2.07h7.93c1.95,0,3.54,1.59,3.54,3.54V90.04c0,1.34-1.1,2.44-2.44,2.44Zm64.42,0h-5.61c-1.34,0-2.44-1.1-2.44-2.44v-2.68c-5.86,3.42-11.96,5.98-18.79,5.98-10.37,0-19.89-4.51-19.89-19.77v-1.46c0-13.18,7.69-19.77,29.4-19.77h9.03v-4.88c0-10.25-3.54-13.79-13.05-13.79-7.93,0-13.79,.49-18.67,.98h-.61c-1.1,0-2.2-.37-2.2-1.95v-4.27c0-1.34,.85-2.07,2.56-2.32,5-.85,10.61-1.59,18.91-1.59,16.96,0,23.79,8.54,23.79,22.94v42.58c0,1.34-1.1,2.44-2.44,2.44Zm-8.3-32.45h-9.03c-14.76,0-18.67,3.29-18.67,11.96v1.46c0,8.78,4.15,11.1,11.22,11.1,5.61,0,10.61-1.71,16.47-4.88v-19.64Zm80.65-26.48l-4.39,.85c2.2,2.32,4.15,5.98,4.15,12.57v.98c0,13.42-8.3,20.86-27.09,20.86-6.47,0-10.61-.98-14.15-2.44-2.07,.98-3.05,2.32-3.05,4.15,0,2.07,.98,3.17,3.78,3.9l18.18,4.64c11.96,3.05,23.43,6.47,23.43,17.94v.98c0,11.71-7.81,18.91-27.82,18.91s-28.06-7.44-28.06-19.4v-1.1c0-6.83,3.66-12.44,7.69-15.5l-.85-.37c-3.9-1.71-5.61-5.73-5.61-9.52v-.12c0-3.29,1.59-6.83,5-8.78-3.78-3.54-5.61-7.93-5.61-14.15v-.98c0-10.86,6.1-21.6,27.09-21.6h26.72c1.46,0,2.81,1.22,2.81,2.68v3.17c0,1.59-.85,2.07-2.2,2.32Zm-9.88,63.44c0-4.76-3.9-6.71-14.89-9.52l-13.79-3.54c-3.54,3.05-5.98,6.1-5.98,12.44v1.1c0,6.83,4.03,11.1,17.57,11.1s17.08-3.9,17.08-10.62v-.98Zm-.98-50.02c0-7.32-3.29-13.06-16.47-13.06s-16.47,6.22-16.47,13.06v.98c0,5.37,2.44,12.44,16.47,12.44,13.18,0,16.47-5.12,16.47-12.44v-.98Zm35.62-32.33h-6.22c-1.34,0-2.44-1.1-2.44-2.44V2.44c0-1.34,1.1-2.44,2.44-2.44h6.22c1.34,0,2.44,1.1,2.44,2.44V12.2c0,1.34-1.1,2.44-2.44,2.44Zm-.24,77.84h-5.86c-1.34,0-2.44-1.1-2.44-2.44V27.82c0-1.34,1.1-2.44,2.44-2.44h5.86c1.34,0,2.44,1.1,2.44,2.44v62.22c0,1.34-1.1,2.44-2.44,2.44Zm59.54-.49c-4.03,.73-9.52,1.34-15.25,1.34-16.59,0-25.99-11.71-25.99-29.65v-9.52c0-17.94,9.27-29.65,25.99-29.65,5.61,0,11.22,.61,15.25,1.34,1.95,.37,2.44,.98,2.44,2.68v4.39c0,1.22-.98,1.83-2.07,1.83h-.49c-5.37-.61-9.15-.85-15.13-.85-9.76,0-15.25,6.47-15.25,20.25v9.52c0,13.67,5.37,20.25,15.25,20.25,5.98,0,9.76-.24,15.13-.85h.49c1.1,0,2.07,.61,2.07,1.83v4.39c0,1.59-.49,2.32-2.44,2.68Zm-99.15,121.87c.62-.16,1.14-1.17,1.75-2.63,.42-.81,1.3-2.95,2.14-5.55h-4.55v-2.34h5.26c.39-1.23,.71-2.5,.97-3.77l2.4,.52c-.29,1.07-.62,2.18-.94,3.25h6.2v2.34h-6.98c-.94,2.76-2.01,5.42-3.08,7.66h3.57v-4.84h2.21v4.84h4.09v2.21h-4.09v4.38l4.32-.65,.1,2.27-4.42,.71v6.98h-2.21v-6.59l-7.21,1.14-.55-2.47,7.76-1.07v-4.71h-3.44c-1.23,0-2.27,.19-2.53,.45-.13-.49-.52-1.56-.78-2.14Zm21.66-4.06v1.53c0,.91-.03,1.92-.1,2.99,1.14,5.81,3.47,10.91,7.53,13.05-.55,.46-1.3,1.36-1.66,1.98-3.25-1.92-5.39-5.52-6.75-9.97-1.01,3.41-3.02,6.98-6.98,10.03-.39-.52-1.23-1.3-1.85-1.66,6.98-5.16,7.44-11.92,7.44-16.46v-1.49h2.37Zm-2.37-9.97c-.23,1.59-.52,3.15-.88,4.64h8.54l.29-.06,1.62,.45c-.65,3.02-1.46,6.53-2.21,8.73l-1.95-.58c.45-1.59,1.01-4.03,1.46-6.3h-8.34c-.81,2.73-1.82,5.13-3.12,7.01-.42-.39-1.46-1.07-2.01-1.36,2.24-3.05,3.54-7.83,4.22-12.89l2.37,.36Zm21.92,.49c-.91,2.4-2.01,4.81-3.25,7.08v21.92h-2.34v-18.12c-.97,1.4-1.95,2.7-2.99,3.8-.26-.58-.97-1.85-1.4-2.4,3.05-3.18,5.91-8.05,7.66-12.96l2.31,.68Zm8.6,15.39v-7.18h-5.13c-.68,1.88-1.49,3.6-2.37,4.97-.45-.36-1.49-.94-2.08-1.23,1.88-2.69,3.25-6.88,3.99-11.14l2.34,.49c-.32,1.53-.68,3.08-1.1,4.55h4.35v-6.27h2.44v6.27h7.47v2.37h-7.47v7.18h8.9v2.37h-8.9v11.3h-2.44v-11.3h-9.32v-2.37h9.32Zm18.31-7.27h-3.93v-2.27h4.42c.45-2.31,.84-4.58,1.07-6.62l2.44,.16c-.29,2.01-.68,4.22-1.14,6.46h5.26l.45-.06,1.53,.26c-.49,6.33-1.72,11.14-3.64,14.77,1.46,1.23,2.73,2.47,3.6,3.47l-1.66,2.01c-.81-.97-1.95-2.14-3.28-3.34-1.98,2.83-4.51,4.77-7.57,6.14-.36-.58-.97-1.53-1.49-2.01,2.92-1.14,5.33-2.99,7.21-5.75-1.85-1.53-3.83-3.08-5.65-4.35,.78-2.34,1.66-5.52,2.37-8.86Zm2.37,0c-.65,2.86-1.36,5.65-2.05,7.96,1.36,.97,2.82,2.08,4.19,3.15,1.49-2.89,2.5-6.59,2.99-11.1h-5.13Zm22.18-5.42v25.04h-2.44v-1.95h-7.96v2.47h-2.34v-25.55h12.73Zm-2.44,20.78v-18.48h-7.96v18.48h7.96Zm8.96,2.14v-19.84h2.4v19.42l3.67-.62v-25.39h2.47v10.03h4.64v2.34h-4.64v12.57l4.64-.84,.16,2.43c-5.52,1.04-11.43,2.11-15.52,2.92l-.45-2.6,2.63-.42Zm17.37-26.43v11.85c2.66-1.46,5.29-3.25,6.98-4.77l2.01,1.98c-2.5,1.85-5.84,3.73-8.99,5.26v10.1c0,1.72,.19,2.05,1.59,2.05h4.45c1.36,0,1.56-1.17,1.72-5.81,.65,.49,1.62,.94,2.34,1.1-.29,5.23-.97,7.05-3.86,7.05h-4.97c-2.99,0-3.83-.91-3.83-4.45v-24.35h2.57Zm41.89,12.86v2.21h-4.48v11.85c0,1.46-.39,2.21-1.56,2.6-1.2,.33-3.21,.36-6.27,.36-.13-.68-.52-1.66-.91-2.31,2.47,.1,4.77,.07,5.39,.03,.68-.03,.84-.19,.84-.71v-11.82h-22.15v-2.21h29.13Zm-13.02-12.89c-.1,1.1-.23,2.11-.42,3.05h11.88v2.18h-12.5l-.29,.71c4.16,1.43,9.32,3.51,12.27,4.9l-1.79,1.75c-2.73-1.36-7.47-3.38-11.59-4.81-1.92,2.5-5.33,4.03-11.46,4.87-.19-.55-.71-1.46-1.1-1.92,6.85-.88,9.87-2.53,11.3-5.52h-10.78v-2.18h11.53c.19-.91,.36-1.95,.45-3.05h2.5Zm.23,17.73v8.41h-10.68v2.14h-2.31v-10.55h12.99Zm-10.68,6.43h8.34v-4.45h-8.34v4.45Zm29.58-15.2h-3.05v-2.27h3.51c.45-2.31,.81-4.61,1.04-6.62l2.31,.16c-.26,2.01-.65,4.22-1.07,6.46h3.67l.39-.06,1.46,.26c-.39,5.91-1.36,10.55-2.86,14.22,1.33,1.07,2.53,2.14,3.34,2.99l-1.59,1.85c-.71-.78-1.66-1.69-2.76-2.66-1.56,2.89-3.57,5.03-6.04,6.56-.32-.58-.97-1.46-1.49-1.92,2.34-1.27,4.25-3.34,5.71-6.2-1.62-1.36-3.34-2.76-4.9-3.86,.78-2.34,1.62-5.55,2.34-8.9Zm2.24,0c-.62,2.92-1.33,5.78-2.01,8.12l3.31,2.5c1.14-2.89,1.92-6.43,2.31-10.62h-3.6Zm22.79,7.66c-2.57,7.05-7.96,11.14-16.5,13.18-.26-.65-.81-1.59-1.33-2.14,8.09-1.69,13.18-5.36,15.55-11.75l2.27,.71Zm-11.01-10.62c-.62,3.8-1.56,7.79-2.73,10.39-.49-.29-1.49-.78-2.08-1.01,1.2-2.5,2.05-6.23,2.53-9.81l2.27,.42Zm4.51-5.98v20.1h-2.31v-20.1h2.31Zm4.22,5.07c1.62,2.79,3.15,6.4,3.77,8.83l-2.21,.81c-.58-2.44-2.11-6.14-3.64-8.93l2.08-.71Z"/></svg>