<svg version="1.1"
	 xmlns="http://www.w3.org/2000/svg" xmlns:xlink="http://www.w3.org/1999/xlink" xmlns:a="http://ns.adobe.com/AdobeSVGViewerExtensions/3.0/"
	 x="0px" y="0px" width="63.7px" height="70.7px" viewBox="0 0 63.7 70.7" style="enable-background:new 0 0 63.7 70.7;"
	 xml:space="preserve">
<style type="text/css">
	.st0{fill:#1665B1;}
</style>
<defs>
</defs>
<path class="st0" d="M57.4,32.7c-0.9,6.3-1.9,12.3-2.8,15C50.9,59.3,34.9,67,31,68c0,0,0,0-0.1,0l-0.1,0C27,67,10.4,58.5,7.2,47.7
	c-1.9-6.3-4.3-25.9-4.5-32.2c0-1.3,0.8-2.6,2-3.1c1.5-0.7,3.7-1.2,5.9-1.8c2.4-0.6,4.9-1.2,7.1-2.1c2.6-1.1,5.1-2.3,7.2-3.4
	c2.5-1.3,4.9-2.5,6.1-2.5c1.1,0,3.4,1.2,5.9,2.5c2.2,1.1,4.7,2.4,7.3,3.5c2.3,0.9,4.8,1.5,7.1,2c2.2,0.5,4.3,0.9,5.8,1.6
	c1,0.5,2,2,1.9,3.1c0,1-0.1,2.4-0.2,4l2.7,0.3c0.1-1.7,0.2-3.1,0.3-4.2c0-2.2-1.5-4.7-3.5-5.6c-1.8-0.8-4-1.3-6.4-1.8
	c-2.2-0.5-4.6-1-6.7-1.9c-2.5-1-5-2.3-7.1-3.4C35,1.2,32.7,0,31,0c-1.8,0-4.1,1.2-7.3,2.8c-2.1,1.1-4.4,2.2-7,3.3
	c-2.1,0.8-4.5,1.4-6.7,2C7.6,8.6,5.3,9.2,3.5,10C1.4,11,0,13.2,0,15.6c0.1,6.6,2.6,26.4,4.6,32.9c3.7,12.4,22.1,21.3,25.6,22.1
	c0.2,0.1,0.5,0.1,0.7,0.1c0.3,0,0.5,0,0.8-0.1c4.4-1.2,21.3-9.3,25.5-22.1c0.9-2.8,2-9,2.9-15.5L57.4,32.7z"/>
<polygon class="st0" points="63.7,25.3 61,25 61.3,22.4 58.6,22.1 58.3,24.8 55.7,24.5 55.4,27.1 58,27.4 57.7,30.1 60.4,30.4 
	60.7,27.7 63.4,28 "/>
<path class="st0" d="M30.9,10.9c-0.8,0-1.4-0.6-1.4-1.3V1.7c0-0.7,0.6-1.3,1.4-1.3c0.8,0,1.4,0.6,1.4,1.3v7.9
	C32.3,10.3,31.7,10.9,30.9,10.9"/>
<path class="st0" d="M30.9,70.7c-0.8,0-1.4-0.6-1.4-1.3v-7.9c0-0.7,0.6-1.3,1.4-1.3c0.8,0,1.4,0.6,1.4,1.3v7.9
	C32.3,70.1,31.7,70.7,30.9,70.7"/>
<path class="st0" d="M31,15.6c-10.1,0-18.3,8.2-18.3,18.3c0,10.1,8.2,18.3,18.3,18.3c0.8,0,1.5-0.7,1.5-1.5c0-0.8-0.7-1.5-1.5-1.5
	c-8.5,0-15.3-6.9-15.3-15.3c0-8.5,6.9-15.3,15.3-15.3s15.3,6.9,15.3,15.3v9c0,1.9-1.5,3.4-3.4,3.4c-1.9,0-3.4-1.5-3.4-3.4v-8.1
	c0-0.3,0-0.6,0-0.9c0-4.8-3.9-8.6-8.6-8.6c-4.8,0-8.6,3.9-8.6,8.6c0,4.8,3.9,8.6,8.6,8.6c2.2,0,4.1-0.8,5.6-2.1v2.5
	c0,3.5,2.8,6.3,6.3,6.3c3.5,0,6.3-2.8,6.3-6.3v-9C49.2,23.8,41,15.6,31,15.6 M31,39.6c-3.1,0-5.7-2.6-5.7-5.7c0-3.1,2.6-5.7,5.7-5.7
	c3.1,0,5.7,2.6,5.7,5.7c0,0,0,0.1,0,0.1c0,0.1,0,0.2,0,0.3v0.3C36.3,37.4,33.9,39.6,31,39.6"/>
</svg>
