<svg xmlns="http://www.w3.org/2000/svg" viewBox="0 0 377.6 392.2">
<style>
    path,rect{
    fill:#005bac;
    }
    </style>
<path class="st0" d="M314.9,363.1v14.8h62.7v-14.8H314.9z M14.8,325.2V0H0v325.2c0,29,23.6,52.7,52.7,52.7h189.5v-14.8H52.7
	C31.8,363.1,14.8,346.1,14.8,325.2z M285.7,348.6h-14.5v14.5h-14.5v14.5h14.5v14.5h14.5v-14.5h14.5v-14.5h-14.5V348.6z M321.5,248.4
	c0,12.1,9.8,21.8,21.8,21.8c12.1,0,21.8-9.8,21.8-21.8s-9.7-21.8-21.8-21.8c-5.9,0-11.2,2.4-15.2,6.2l-69-29.5c0-0.2,0-0.3,0-0.5
	c0-12.1-9.8-21.8-21.8-21.8c-12.1,0-21.8,9.8-21.8,21.8c0,1.2,0.2,2.5,0.4,3.7L177,235.3c-3.7-3-8.4-4.8-13.5-4.8
	c-4.7,0-9,1.5-12.5,4l-27.1-22l52.5-74.4c2.5,1,5.2,1.6,8,1.6c6.5,0,12.3-2.9,16.3-7.4l64.1,33c2.9,1.5,6.6,0.9,8.8-1.6L334,96.5
	c2.8,1.3,6,2.1,9.3,2.2c12,0,21.8-9.8,21.8-21.8c0-12.1-9.8-21.8-21.8-21.8c-12.1,0-21.8,9.8-21.8,21.8c0,3.3,0.8,6.5,2.2,9.3
	l-57.2,63.6l-60.3-31.1c0-0.3,0.1-0.6,0.1-0.9c0-12-9.8-21.8-21.8-21.8c-12.1,0-21.8,9.8-21.8,21.8c0,3.8,1.1,7.4,2.8,10.5
	l-52.9,74.9l-20.1-16.4c1-2.5,1.6-5.2,1.6-8.1c0-12.1-9.8-21.8-21.8-21.8c-12.1,0-21.8,9.8-21.8,21.8c0,12.1,9.8,21.8,21.8,21.8
	c3.8,0,7.4-1.1,10.5-2.8l21.4,17.4L77.4,253c-1.6-0.4-3.3-0.7-5.1-0.7c-12,0-21.8,9.8-21.8,21.8c0,12.1,9.8,21.8,21.8,21.8
	c12.1,0,21.8-9.8,21.8-21.8c0-4.9-1.7-9.4-4.5-13.1l25.9-36.7l27.1,22.1c-0.5,1.9-0.9,3.8-0.9,5.9c0,12.1,9.8,21.8,21.8,21.8
	c12,0,21.8-9.8,21.8-21.8c0-1.6-0.2-3.1-0.5-4.6l38.4-28.4c3.8,3.3,8.7,5.4,14.2,5.4c6.6,0,12.5-3,16.5-7.7l67.8,29.1
	C321.6,246.8,321.5,247.6,321.5,248.4z M343.3,241.2c4,0,7.2,3.2,7.2,7.2c0,4-3.2,7.2-7.2,7.2c-4,0-7.2-3.2-7.2-7.2
	C336.1,244.5,339.3,241.2,343.3,241.2z M343.3,69.6c4,0,7.2,3.2,7.2,7.2c0,4-3.2,7.2-7.2,7.2c-4,0-7.2-3.2-7.2-7.2
	C336.1,72.8,339.3,69.6,343.3,69.6z M184.4,110.6c4,0,7.2,3.2,7.2,7.2c0,4-3.2,7.2-7.2,7.2c-4,0-7.2-3.2-7.2-7.2
	C177.2,113.8,180.5,110.6,184.4,110.6z M72.2,186c-4,0-7.2-3.2-7.2-7.2c0-4,3.2-7.2,7.2-7.2c4,0,7.2,3.2,7.2,7.2
	C79.4,182.7,76.2,185.9,72.2,186z M72.2,281.4c-4,0-7.2-3.2-7.2-7.2c0-4,3.2-7.2,7.2-7.2c4,0,7.2,3.2,7.2,7.2
	C79.4,278.2,76.2,281.4,72.2,281.4z M163.5,259.5c-4,0-7.2-3.2-7.2-7.2c0-4,3.2-7.2,7.2-7.2c4,0,7.2,3.2,7.2,7.2
	C170.7,256.3,167.5,259.5,163.5,259.5z M237.4,210c-4,0-7.2-3.2-7.2-7.2c0-4,3.2-7.2,7.2-7.2c4,0,7.2,3.2,7.2,7.2
	C244.6,206.8,241.4,210,237.4,210z"/>
</svg>
