<svg
    xmlns="http://www.w3.org/2000/svg" viewBox="0 0 986.1 865.2">
	    <style>
    path,polygon{
    color:#005bac;
    }
    </style>
    <path fill="currentColor" d="M904,389.1c-13.1,29.4-32,56.8-56.6,81.6L492.5,824.6c-4,4.2-8.8,5.1-12,5.1c-4.8,0-9.5-2-12.9-5.4
		L115.2,471.7c-35.5-35-60.3-76.4-71.9-119.8c-11.7-43.9-10.2-88.7,4.4-133.1c13.3-39.5,36.6-76.2,67.5-106.2
		c29.8-29.8,67.1-52.3,108-65.2c24.4-7.9,49.6-11.9,74.9-11.9c20.6,0,41.5,2.7,61.8,7.9c39.6,10.6,77.2,30.4,108.8,57.2l11.3,9.6
		l11.5-9.4c33.4-27.6,70-46.9,108.8-57.3c45.7-11.8,92.6-10.5,137.4,4c39.7,12.7,77.4,35.3,108.6,65.2
		c27.8,27.5,49.4,60.9,63.1,96.8h37.7c-0.2-0.7-0.4-1.3-0.6-1.9c-15.2-44.7-41.2-86.2-75.5-120.2c-35.3-33.8-77.7-59.3-122.6-73.6
		C697.6-2.8,644-4.4,591.3,9.1c-39.4,10.6-76.7,29.2-110.9,55.2C447.3,38.9,409.1,19.8,369,9.1C317.1-4.4,263-2.8,212.6,13.6
		c-46.2,14.5-88.5,40.1-122.2,73.8c-34.8,33.8-61.2,75.3-76.2,120.3C-2.8,258.9-4.5,310.5,9,361.1c13.2,49.4,41.3,96.4,81.2,135.8
		l352.5,352.7c10.2,10.1,23.6,15.6,37.9,15.6c14.2,0,27.6-5.6,37.3-15.7l353.6-352.6c32.3-32.3,56-68.5,70.9-107.8H904z"></path>
    <polygon fill="currentColor" points="986.1,281.3 950.2,281.3 950.2,245.3 914.2,245.3 914.2,281.3 878.3,281.3 878.3,317.2 914.2,317.2
		914.2,353.1 950.2,353.1 950.2,317.2 986.1,317.2 	"></polygon>
</svg>