<svg version="1.1"
	 xmlns="http://www.w3.org/2000/svg" xmlns:xlink="http://www.w3.org/1999/xlink" xmlns:a="http://ns.adobe.com/AdobeSVGViewerExtensions/3.0/"
	 x="0px" y="0px" width="78.6px" height="71.6px" viewBox="0 0 78.6 71.6" style="enable-background:new 0 0 78.6 71.6;"
	 xml:space="preserve">
<style type="text/css">
	.st0{fill:#005BAA;}
</style>
<defs>
</defs>
<path class="st0" d="M67.6,66.3H40.4c-6.1,0-11-5.2-11-11.6c0-4.5,2.5-8.6,6.4-10.5c0.2-4.4,3.6-7.9,7.8-7.9c1.1,0,2.3,0.3,3.3,0.8
	c2.3-4.6,6.9-7.6,11.8-7.6c7.4,0,13.4,6.3,13.4,14.2c0,0.2,0,0.3,0,0.5c3.9,1.9,6.4,6,6.4,10.5C78.6,61.1,73.6,66.3,67.6,66.3
	 M43.6,39.1c-2.7,0-5,2.4-5,5.4c0,0.2,0,0.3,0,0.5c0.1,0.6-0.3,1.2-0.9,1.5c-3.3,1.2-5.5,4.5-5.5,8.3c0,4.8,3.7,8.8,8.2,8.8h27.1
	c4.5,0,8.2-3.9,8.2-8.8c0-3.7-2.2-7.1-5.5-8.3c-0.6-0.2-1-0.8-0.9-1.5c0-0.5,0.1-0.9,0.1-1.3c0-6.2-4.7-11.3-10.5-11.3
	c-4.3,0-8.3,2.9-9.9,7.3c-0.2,0.4-0.5,0.8-1,0.9c-0.5,0.1-0.9,0-1.3-0.3C45.8,39.5,44.7,39.1,43.6,39.1"/>
<polygon class="st0" points="69,14 66.2,14 66.2,11.2 63.5,11.2 63.5,14 60.7,14 60.7,16.8 63.5,16.8 63.5,19.5 66.2,19.5 
	66.2,16.8 69,16.8 "/>
<path class="st0" d="M55.1,12.4c-0.4,0-0.7-0.1-1-0.4L49,7.4c-0.6-0.5-0.6-1.4,0-1.9c0.6-0.5,1.5-0.6,2.1,0l5.1,4.6
	c0.6,0.5,0.6,1.4,0,1.9C55.8,12.3,55.5,12.4,55.1,12.4"/>
<path class="st0" d="M39.2,33.8c-0.4,0-0.8-0.1-1-0.4l-4.5-4.2c-0.6-0.5-0.6-1.4,0-1.9c0.6-0.5,1.5-0.5,2.1,0l4.5,4.2
	c0.6,0.5,0.6,1.4,0,1.9C40,33.7,39.6,33.8,39.2,33.8"/>
<path class="st0" d="M34.2,40.6c-0.4,0-0.8-0.1-1.1-0.4l-1.4-1.4c-0.6-0.5-0.5-1.4,0.1-1.9c0.6-0.5,1.5-0.5,2.1,0.1l1.4,1.4
	c0.6,0.5,0.5,1.4-0.1,1.9C34.9,40.4,34.6,40.6,34.2,40.6"/>
<path class="st0" d="M19.4,62.5c-0.4,0-0.8-0.1-1.1-0.4l-8-8c-0.6-0.6-0.5-1.4,0.1-1.9c0.6-0.5,1.5-0.5,2.1,0.1l8,8
	c0.6,0.6,0.5,1.4-0.1,1.9C20.1,62.4,19.8,62.5,19.4,62.5"/>
<path class="st0" d="M20.6,51.5c-5.8,0.7-11.4,0.3-18.9-1c-0.8-0.1-1.6,0.4-1.7,1.1c-0.1,0.7,0.4,1.5,1.2,1.6c5,0.8,9.7,1.3,14,1.3
	c2.2,0,3.6,0,5.7-0.3c0.2,0-0.4-0.6-0.2-0.6C20.4,52.9,20.6,52.6,20.6,51.5"/>
<path class="st0" d="M57.9,14c-8-0.7-20.5-0.3-28.3,6.5c-6.2,5.4-8.3,13.8-6.2,25.1c3.7,18.4-3.2,23.5-3.2,23.5
	c-0.7,0.4-0.8,1.3-0.3,1.9c0.3,0.4,0.7,0.6,1.2,0.6c0.3,0,0.6-0.1,0.8-0.3c0.4-0.2,8.5-5.9,4.4-26.2c-1.9-10.3-0.1-17.9,5.3-22.6
	c7-6.2,18.8-6.4,26.3-5.8V14z"/>
<path class="st0" d="M22.1,52.9c0,0.7-0.6,1.4-1.4,1.4c-0.7,0-1.4-0.6-1.4-1.4c0-0.7,0.6-1.4,1.4-1.4C21.5,51.5,22.1,52.1,22.1,52.9
	"/>
<path class="st0" d="M52.2,19.7c0,0.8-0.6,1.5-1.4,1.5c-0.8,0-1.4-0.7-1.4-1.5c0-0.8,0.6-1.5,1.4-1.5C51.5,18.2,52.2,18.9,52.2,19.7
	"/>
<path class="st0" d="M52,10.9c0,0.8-0.7,1.5-1.5,1.5c-0.8,0-1.5-0.7-1.5-1.5c0-0.8,0.7-1.5,1.5-1.5C51.3,9.4,52,10.1,52,10.9"/>
<path class="st0" d="M52,11.2c-0.4-5.7-1.4-9.7-1.6-10.2c-0.2-0.7-1-1.2-1.8-1c-0.8,0.2-1.3,0.9-1.1,1.6c0,0.1,1,4,1.4,9.5H52z"/>
<path class="st0" d="M50.6,30c0.1-0.1,0.1-0.2,0.1-0.4c0.3-1.1,0.6-2.2,0.7-3c0.3-1.3,0.5-2.9,0.8-7l-2.8,0c-0.1,2.1-0.3,4-0.7,6.1
	c-0.1,0.3-0.1,0.7-0.2,1l-5.2-4.5c-0.6-0.5-1.5-0.5-2.1,0.1c-0.6,0.5-0.5,1.4,0.1,1.9l6.2,5.5c-0.2,0.5-0.3,0.8-0.3,0.8l0,0
	c-0.1,0.2-0.2,0.4-0.2,0.7c0,0.8,0.6,1.5,1.4,1.5c0.5,0,1-0.3,1.2-0.7l0,0C50,31.5,50.3,30.8,50.6,30"/>
</svg>
