<?xml version="1.0" encoding="utf-8"?>
<!-- Generator: Adobe Illustrator 22.1.0, SVG Export Plug-In . SVG Version: 6.00 Build 0)  -->
<svg version="1.1" id="Layer_1" xmlns="http://www.w3.org/2000/svg" xmlns:xlink="http://www.w3.org/1999/xlink" x="0px" y="0px"
	 viewBox="0 0 986.1 865.2" style="enable-background:new 0 0 986.1 865.2;" xml:space="preserve">
<style type="text/css">
	.st0{fill:#005BAC;}
</style>
<path class="st0" d="M969.3,264.9l-251.9-56.7l251.9-56.7c8.7-2,14.2-10.6,12.2-19.3c-2-8.7-10.6-14.2-19.3-12.2l-317.5,71.4
	c-0.8-0.1-1.6-0.5-2.5-0.5c-0.3,0-0.5,0.1-0.8,0.1l-315.9-71.1c-8.7-2-17.3,3.5-19.3,12.2c-2,8.7,3.5,17.3,12.2,19.3l251.8,56.7
	l-251.8,56.7c-8.8,2-14.2,10.6-12.3,19.3c1.7,7.5,8.4,12.6,15.8,12.6c1.2,0,2.3-0.1,3.5-0.4L626,228.9v110h-27.6
	c-51,0-96.6,23.7-126.2,60.6L210.1,394c-14.1-41.8-53.6-71.9-100.1-71.9c-58.5,0-105.8,47.4-105.8,105.8s47.3,105.8,105.8,105.8
	c39.7,0,74.2-21.9,92.3-54.2l241.5,68.6c18.8,61.5,73.1,107.2,139,113.6v-32.5c-53.9-6.5-97.6-46.1-110.1-97.9l-2.2-9.2l-256.8-72.9
	c1.4-6.9,2.2-14,2.2-21.3c0-0.5-0.1-0.9-0.1-1.4l272.6,5.7l5-7c23.6-32.7,61.9-54,105.2-54h106.5c71.5,0.2,129.4,58,129.5,129.5
	c-0.2,62-43.7,113.7-102,126.4V660c76.2-13.1,134.2-79.3,134.3-159.3c0-89.4-72.5-161.8-161.9-161.8h-46.6V228.1l303.9,68.4
	c1.2,0.2,2.4,0.4,3.6,0.4c7.4,0,14-5.1,15.7-12.6C983.5,275.6,978,266.9,969.3,264.9z M109.9,501.4c-40.6-0.1-73.4-32.9-73.5-73.5
	c0.1-40.6,32.9-73.4,73.5-73.5c35,0.1,64.1,24.5,71.6,57.2c0.1,1.5,0.2,3,0.8,4.4c0.6,3.9,1,7.8,1,11.9
	C183.3,468.5,150.5,501.3,109.9,501.4z M642.4,600.8v29.9h-30v30h30v30h29.9v-30h30v-30h-30v-29.9H642.4z M933.5,560.7
	c-8.9,0-16.1,7.2-16.1,16.2l0,0C917.2,652.1,856.3,713,781,713.1H383.4c-8.9,0-16.1,7.2-16.1,16.2c0,8.9,7.3,16.2,16.1,16.2l397.7,0
	c93.1,0,168.6-75.5,168.6-168.6C949.6,567.9,942.4,560.7,933.5,560.7z"/>
</svg>
