<svg version="1.1"
	 xmlns="http://www.w3.org/2000/svg" xmlns:xlink="http://www.w3.org/1999/xlink" xmlns:a="http://ns.adobe.com/AdobeSVGViewerExtensions/3.0/"
	 x="0px" y="0px" width="78.5px" height="71.1px" viewBox="0 0 78.5 71.1" style="enable-background:new 0 0 78.5 71.1;"
	 xml:space="preserve">
<style type="text/css">
	.st0{fill:#005BAA;}
</style>
<defs>
</defs>
<path class="st0" d="M67.5,71.1H40.4c-6.1,0-11-5.2-11-11.6c0-4.5,2.5-8.6,6.4-10.5c0.2-4.4,3.6-7.9,7.8-7.9c1.1,0,2.3,0.3,3.3,0.8
	c2.3-4.6,6.9-7.6,11.8-7.6c7.4,0,13.4,6.3,13.4,14.2c0,0.2,0,0.3,0,0.5c3.9,1.9,6.4,6,6.4,10.5C78.5,65.9,73.6,71.1,67.5,71.1
	 M43.6,44c-2.7,0-5,2.4-5,5.4c0,0.2,0,0.3,0,0.5c0.1,0.6-0.3,1.2-0.9,1.5c-3.3,1.2-5.5,4.5-5.5,8.3c0,4.8,3.7,8.8,8.2,8.8h27.1
	c4.5,0,8.2-3.9,8.2-8.8c0-3.7-2.2-7.1-5.5-8.3c-0.6-0.2-1-0.8-0.9-1.5c0-0.5,0.1-0.9,0.1-1.3c0-6.2-4.7-11.3-10.5-11.3
	c-4.3,0-8.3,2.9-9.9,7.3c-0.2,0.4-0.5,0.8-1,0.9c-0.5,0.1-0.9,0-1.3-0.3C45.8,44.4,44.7,44,43.6,44"/>
<rect y="31.1" class="st0" width="8.6" height="2.8"/>
<path class="st0" d="M59.3,14.5h-3v-4.1C56.3,6.3,53,3,48.9,3H28.4C24.3,3,21,6.3,21,10.4v4.1h-3v-4.1C18,4.7,22.7,0,28.4,0h20.5
	c5.7,0,10.4,4.7,10.4,10.4V14.5z"/>
<path class="st0" d="M33.8,48.8c-0.8,0-1.5-0.7-1.5-1.5v-0.4h-9.4c-0.8,0-1.5-0.7-1.5-1.5v-9.8c0-0.8,0.7-1.5,1.5-1.5h9.4v-9.4
	c0-0.8,0.7-1.5,1.5-1.5h9.8c0.8,0,1.5,0.7,1.5,1.5v9.4h3.4c0.8,0,1.5,0.7,1.5,1.5s-0.7,1.5-1.5,1.5h-4.9c-0.8,0-1.5-0.7-1.5-1.5
	v-9.4h-6.8v9.4c0,0.8-0.7,1.5-1.5,1.5h-9.4v6.8h9.4c0.8,0,1.5,0.7,1.5,1.5v1.9C35.3,48.1,34.6,48.8,33.8,48.8"/>
<rect x="2.8" y="28.2" class="st0" width="3" height="8.6"/>
<path class="st0" d="M27.5,65.4H13.7c-4.3,0-7.9-3.5-7.9-7.9V39.6h-3v17.9c0,6,4.9,10.9,10.9,10.9h13.9c0.8,0,1.5-0.7,1.5-1.5
	C29,66.1,28.4,65.4,27.5,65.4"/>
<path class="st0" d="M63.7,12.2h-50c-6,0-10.9,4.9-10.9,10.9v2.3h3v-2.3c0-4.3,3.5-7.9,7.9-7.9h50c4.3,0,7.9,3.5,7.9,7.9v17
	c0,0.8,0.7,1.5,1.5,1.5c0.8,0,1.5-0.7,1.5-1.5v-17C74.6,17.1,69.7,12.2,63.7,12.2"/>
</svg>
