<svg xmlns="http://www.w3.org/2000/svg" viewBox="0 0 315.4 286.5">
<style>
    path,rect{
    fill:#005bac;
    }
    </style>
	<rect x="282.7" y="185.3" class="st0" width="32.7" height="11"/>
	<path class="st0" d="M108.2,277.6c-0.4,0-0.9,0-1.3-0.2C43.9,261.9,0,205.7,0,140.8C0,63.2,63.2,0,140.8,0
		c61.4,0,115.2,39.2,134,97.5c1.1,3.4,2.1,6.9,2.9,10.4c0.7,3-1.1,5.9-4.1,6.6c-3,0.7-5.9-1.1-6.6-4.1c-0.8-3.2-1.7-6.4-2.7-9.6
		C247,47.1,197.4,11,140.8,11C69.2,11,11,69.2,11,140.8c0,59.8,40.5,111.7,98.5,126c3,0.7,4.7,3.7,4,6.7
		C112.9,276,110.7,277.6,108.2,277.6z"/>
	<path class="st0" d="M104.9,146.3H5.5c-3,0-5.5-2.5-5.5-5.5s2.5-5.5,5.5-5.5h99.4c3,0,5.5,2.5,5.5,5.5S108,146.3,104.9,146.3z"/>
	<path class="st0" d="M140.9,113.5c-3,0-5.5-2.5-5.5-5.5V5.5c0-3,2.5-5.5,5.5-5.5c3,0,5.5,2.5,5.5,5.5V108
		C146.4,111.1,143.9,113.5,140.9,113.5z"/>
	<path class="st0" d="M141,82c-34.7,0-68.1-14.6-91.6-40.2c-2.1-2.2-1.9-5.7,0.3-7.8c2.2-2.1,5.7-1.9,7.8,0.3
		C78.9,57.6,109.3,71,141,71c31.5,0,60.8-12.6,82.5-35.6c2.1-2.2,5.6-2.3,7.8-0.2c2.2,2.1,2.3,5.6,0.2,7.8
		C207.7,68.2,175.6,82,141,82z"/>
	<path class="st0" d="M52.8,248.8c-1.3,0-2.6-0.5-3.7-1.4c-2.3-2-2.4-5.5-0.4-7.8c14.9-16.4,33.8-28.5,54.8-35.2
		c2.9-0.9,6,0.7,6.9,3.6c0.9,2.9-0.7,6-3.6,6.9c-19.1,6-36.3,17.1-49.9,32.1C55.8,248.2,54.3,248.8,52.8,248.8z"/>
	<path class="st0" d="M104,246.5c-1.6,0-3.2-0.7-4.3-2.1C76.2,215.3,63.2,178.6,63.2,141c0-55.9,28-107.5,74.9-138.1
		c2.6-1.7,6-0.9,7.6,1.6c1.7,2.5,0.9,6-1.6,7.6C100.4,40.7,74.2,88.9,74.2,141c0,35,12.1,69.3,34.1,96.5c1.9,2.4,1.5,5.8-0.8,7.7
		C106.5,246.1,105.3,246.5,104,246.5z"/>
	<path class="st0" d="M211.2,114.2c-2.6,0-4.9-1.8-5.4-4.4c-0.6-3.2-1.4-6.3-2.2-9.4c-9.9-36.3-32.8-67.7-64.5-88.3
		c-2.5-1.7-3.3-5.1-1.6-7.6c1.7-2.5,5.1-3.3,7.6-1.6c33.9,22.1,58.5,55.7,69.1,94.6c0.9,3.3,1.7,6.6,2.4,10c0.6,3-1.3,5.9-4.3,6.5
		C212,114.2,211.6,114.2,211.2,114.2z"/>
	<path class="st0" d="M212.2,281.7c-3,0-5.5-2.5-5.5-5.5v-16.4c0-3,2.5-5.5,5.5-5.5c3,0,5.5,2.5,5.5,5.5v16.4
		C217.7,279.2,215.2,281.7,212.2,281.7z"/>
	<path class="st0" d="M245.1,286.5h-65.8c-3,0-5.5-2.5-5.5-5.5c0-3,2.5-5.5,5.5-5.5h65.8c3,0,5.5,2.5,5.5,5.5
		C250.6,284.1,248.1,286.5,245.1,286.5z"/>
	<path class="st0" d="M293.7,218.2v24.2c0,5.2-4.2,9.4-9.4,9.4H140.1c-5.2,0-9.4-4.2-9.4-9.4V142c0-5.2,4.2-9.4,9.4-9.4h144.2
		c5.2,0,9.4,4.2,9.4,9.4v21.3h11V142c0-11.2-9.1-20.4-20.4-20.4H140.1c-11.2,0-20.4,9.1-20.4,20.4v100.5c0,11.2,9.1,20.4,20.4,20.4
		h144.2c11.2,0,20.4-9.1,20.4-20.4v-24.2H293.7z"/>
	<rect x="293.7" y="174.3" class="st0" width="11" height="33"/>
</svg>
