<svg version="1.1"
	 xmlns="http://www.w3.org/2000/svg" xmlns:xlink="http://www.w3.org/1999/xlink" xmlns:a="http://ns.adobe.com/AdobeSVGViewerExtensions/3.0/"
	 x="0px" y="0px" width="72.1px" height="70.3px" viewBox="0 0 72.1 70.3" style="enable-background:new 0 0 72.1 70.3;"
	 xml:space="preserve">
<style type="text/css">
	.st0{fill:#005BAA;}
</style>
<defs>
</defs>
<rect x="51.3" class="st0" width="2.8" height="8.5"/>
<path class="st0" d="M22.2,47.2H6c-3.3,0-6-2.7-6-6V29.6c0-3.3,2.7-6,6-6h55.4c3.3,0,6,2.7,6,6v9.2c0,0.8-0.6,1.4-1.4,1.4
	c-0.8,0-1.4-0.6-1.4-1.4v-9.2c0-1.8-1.4-3.2-3.2-3.2H6c-1.8,0-3.2,1.4-3.2,3.2v11.5c0,1.8,1.4,3.2,3.2,3.2h16.2
	c0.8,0,1.4,0.6,1.4,1.4C23.6,46.6,23,47.2,22.2,47.2"/>
<path class="st0" d="M22.2,68H6c-3.3,0-6-2.7-6-6V50.4c0-3.3,2.7-6,6-6h16.2c0.8,0,1.4,0.6,1.4,1.4c0,0.8-0.6,1.4-1.4,1.4H6
	c-1.8,0-3.2,1.4-3.2,3.2V62c0,1.8,1.4,3.2,3.2,3.2h16.2c0.8,0,1.4,0.6,1.4,1.4C23.6,67.4,23,68,22.2,68"/>
<path class="st0" d="M10.4,19.5c-0.8,0-1.4-0.6-1.4-1.4v-6.9c0-0.8,0.6-1.4,1.4-1.4c0.8,0,1.4,0.6,1.4,1.4v6.9
	C11.8,18.9,11.1,19.5,10.4,19.5"/>
<path class="st0" d="M10.4,40.3c-0.8,0-1.4-0.6-1.4-1.4v-6.9c0-0.8,0.6-1.4,1.4-1.4c0.8,0,1.4,0.6,1.4,1.4v6.9
	C11.8,39.7,11.1,40.3,10.4,40.3"/>
<path class="st0" d="M10.4,61.1c-0.8,0-1.4-0.6-1.4-1.4v-6.9c0-0.8,0.6-1.4,1.4-1.4c0.8,0,1.4,0.6,1.4,1.4v6.9
	C11.8,60.4,11.1,61.1,10.4,61.1"/>
<path class="st0" d="M61.1,70.3H34c-6.1,0-11-5.2-11-11.6c0-4.5,2.5-8.7,6.4-10.5c0.2-4.4,3.6-7.9,7.8-7.9c1.1,0,2.3,0.3,3.3,0.8
	c2.3-4.6,6.9-7.6,11.8-7.6c7.4,0,13.4,6.3,13.4,14.2c0,0.2,0,0.3,0,0.5c3.9,1.9,6.4,6,6.4,10.5C72.1,65.1,67.2,70.3,61.1,70.3
	 M37.2,43.2c-2.7,0-5,2.4-5,5.4c0,0.2,0,0.3,0,0.5c0.1,0.6-0.3,1.2-0.9,1.5c-3.3,1.2-5.5,4.5-5.5,8.3c0,4.8,3.7,8.8,8.2,8.8h27.1
	c4.5,0,8.2-3.9,8.2-8.8c0-3.7-2.2-7.1-5.5-8.3c-0.6-0.2-1-0.8-0.9-1.5c0-0.5,0.1-0.9,0.1-1.3c0-6.2-4.7-11.3-10.5-11.3
	c-4.3,0-8.3,2.9-9.9,7.3c-0.2,0.4-0.5,0.8-1,0.9c-0.5,0.1-0.9,0-1.3-0.3C39.4,43.6,38.3,43.2,37.2,43.2"/>
<rect x="48.5" y="2.8" class="st0" width="8.6" height="2.8"/>
<path class="st0" d="M61.5,2.8h-1.6v2.9h1.6c1.8,0,3.2,1.4,3.2,3.2v11.5c0,1.8-1.4,3.2-3.2,3.2H6c-1.8,0-3.2-1.4-3.2-3.2V8.8
	c0-1.8,1.4-3.2,3.2-3.2h39.6V2.8H6c-3.3,0-6,2.7-6,6v11.5c0,3.3,2.7,6,6,6h55.4c3.3,0,6-2.7,6-6V8.8C67.5,5.5,64.8,2.8,61.5,2.8"/>
</svg>
