<svg
    xmlns="http://www.w3.org/2000/svg" viewBox="0 0 790 747.6">
    <style>
    path{
    color:#005bac;
    }
    </style>
    <path fill="currentColor" d="M681.7,694.2L681.7,694.2h-31.9v-35.6h-25.5V623h25.5v-35.6h31.9V623h31.9v35.6h-31.9V694.2L681.7,694.2z
	 M790,240.3L790,240.3L790,240.3c0,6.7,0,6.7,0,6.7l0,0l0,0l0,0v6.7l0,0l0,0l0,0l0,0c0,0-6.4,0-6.4,6.7l0,0l0,0l0,0
	c-6.4,0-6.4,0-6.4,0l0,0l0,0c0,0,0,0-95.6,0c0,0,0,0,0,300.4c0,0,0,0-31.9,0c0,0,0,0,0-300.4c0,0,0,0-146.5,0c0,0,0,0,0,453.9
	c0,0,0,0,146.5,0l0,0c0,0,0,0,31.9,0l0,0c0,0,0,0,51,0c6.4,0,12.7,6.7,12.7,20c0,6.7-6.4,13.3-12.7,13.3c0,0,0,0-675.3,0
	c-6.4,0-12.7-6.7-12.7-13.3c0-13.3,6.4-20,12.7-20c0,0,0,0,44.6,0c0,0,0,0,0-453.9c0,0,0,0-89.2,0l0,0l0,0c0,0,0,0-6.4,0l0,0l0,0
	c0-6.7,0-6.7,0-6.7H0l0,0l0,0l0,0V247l0,0l0,0l0,0c0,0,0,0,0-6.7l0,0l0,0l0,0l0,0l0,0c0-6.7,0-6.7,0-6.7l0,0l0,0l0,0
	c6.4,0,6.4,0,6.4,0v-6.7l0,0c0,0,0,0,337.7-206.9c12.7-13.3,31.9-20,51-20c12.7,0,25.5,6.7,38.2,13.3c0,0,0,0,12.7,6.7
	c0,0,0,0,337.7,206.9l0,0l6.4,6.7l0,0l0,0l0,0l0,0l0,0C790,240.3,790,240.3,790,240.3L790,240.3L790,240.3L790,240.3z M286.7,714.2
	L286.7,714.2V260.3c0,0,0,0-152.9,0c0,0,0,0,0,453.9C133.8,714.2,133.8,714.2,286.7,714.2L286.7,714.2z M471.5,714.2L471.5,714.2
	V260.3c0,0,0,0-152.9,0c0,0,0,0,0,453.9C318.5,714.2,318.5,714.2,471.5,714.2L471.5,714.2z M70.1,226.9L70.1,226.9h649.8
	c0,0,0,0-293.1-180.2c-6.4-6.7-19.1-13.3-31.9-13.3s-25.5,6.7-31.9,13.3C363.1,46.7,363.1,46.7,70.1,226.9L70.1,226.9z"></path>
</svg>