<?xml version="1.0" encoding="utf-8"?>
<!-- Generator: Adobe Illustrator 22.1.0, SVG Export Plug-In . SVG Version: 6.00 Build 0)  -->
<svg version="1.1" id="Layer_1" xmlns="http://www.w3.org/2000/svg" xmlns:xlink="http://www.w3.org/1999/xlink" x="0px" y="0px"
	 viewBox="0 0 986.1 865.2" style="enable-background:new 0 0 986.1 865.2;" xml:space="preserve">
<style type="text/css">
	.st0{fill:#005BAC;}
</style>
<path class="st0" d="M972.3,530.7h-31.5v31.6h-31.6v-31.6h-31.6v-31.6h31.6v-31.6h31.6v31.6h31.5V530.7z M909.2,593.8h31.6v217.4
	c0,8.7-7.1,15.8-15.8,15.8h-897c-8.7,0-15.8-7.1-15.8-15.8V281.1c0-5.5,2.9-10.6,7.6-13.5L392.5,41.2c0.2-0.1,0.4-0.1,0.5-0.2
	c1-0.5,2-1,3-1.3c0.3-0.1,0.6-0.2,0.9-0.3c1.2-0.3,2.4-0.5,3.7-0.5c0,0,0.1,0,0.1,0c0.2,0,0.4,0.1,0.6,0.1c1.1,0.1,2.2,0.2,3.3,0.5
	c0.3,0.1,0.7,0.2,1,0.3c1.1,0.4,2.2,0.9,3.2,1.5c0.1,0.1,0.2,0.1,0.3,0.1l524.3,342.2c4.5,2.9,7.2,7.9,7.2,13.2V436h-31.6v-30.6
	L416.4,83.9v711.6H516V330.1c0-8.7,7.1-15.8,15.8-15.8c8.7,0,15.8,7.1,15.8,15.8v465.4H647V415.6c0-8.7,7.1-15.8,15.8-15.8
	c8.7,0,15.8,7.1,15.8,15.8v379.8h99.5V501.2c0-8.7,7.1-15.8,15.8-15.8s15.8,7.1,15.8,15.8v294.3h99.5V593.8z M43.7,795.4h92.7v-400
	c0-8.7,7.1-15.8,15.8-15.8s15.8,7.1,15.8,15.8v400h92.7V320c0-8.7,7.1-15.8,15.8-15.8s15.8,7.1,15.8,15.8v475.4h92.7V82.8L43.7,290
	V795.4z"/>
</svg>
