<!-- Generator: Adobe Illustrator 22.1.0, SVG Export Plug-In  -->
<svg version="1.1"
	 xmlns="http://www.w3.org/2000/svg" xmlns:xlink="http://www.w3.org/1999/xlink" xmlns:a="http://ns.adobe.com/AdobeSVGViewerExtensions/3.0/"
	 x="0px" y="0px" width="75.9px" height="64.7px" viewBox="0 0 75.9 64.7" style="enable-background:new 0 0 75.9 64.7;"
	 xml:space="preserve">
<style type="text/css">
	.st0{fill:#005BAA;}
</style>
<defs>
</defs>
<rect x="66.2" y="14.1" class="st0" width="8.6" height="2.8"/>
<path class="st0" d="M64.9,64.7H37.7c-6.1,0-11-5.2-11-11.6c0-4.5,2.5-8.6,6.4-10.5c0.2-4.4,3.6-7.9,7.8-7.9c1.1,0,2.3,0.3,3.3,0.8
	c2.3-4.6,6.9-7.6,11.8-7.6c7.4,0,13.4,6.3,13.4,14.2c0,0.2,0,0.3,0,0.5c3.9,1.9,6.4,6,6.4,10.5C75.9,59.5,70.9,64.7,64.9,64.7
	 M40.9,37.5c-2.7,0-5,2.4-5,5.4c0,0.2,0,0.3,0,0.5c0.1,0.6-0.3,1.2-0.9,1.5c-3.3,1.2-5.5,4.5-5.5,8.3c0,4.8,3.7,8.8,8.2,8.8h27.1
	c4.5,0,8.2-3.9,8.2-8.8c0-3.7-2.2-7.1-5.5-8.3c-0.6-0.2-1-0.8-0.9-1.5c0-0.5,0.1-0.9,0.1-1.3c0-6.2-4.7-11.3-10.5-11.3
	c-4.3,0-8.3,2.9-9.9,7.3c-0.2,0.4-0.5,0.8-1,0.9c-0.5,0.1-0.9,0-1.3-0.3C43.1,37.9,42,37.5,40.9,37.5"/>
<path class="st0" d="M61.7,24.9c-0.9,0-1.6-0.7-1.6-1.6v-8.6c0-0.9,0.7-1.6,1.6-1.6c0.9,0,1.6,0.7,1.6,1.6v8.6
	C63.3,24.2,62.5,24.9,61.7,24.9"/>
<path class="st0" d="M34.9,33.8c-0.8,0-1.4-0.6-1.4-1.4V4.1c0-0.8,0.6-1.4,1.4-1.4h17.9c0.8,0,1.4,0.6,1.4,1.4v20.1
	c0,0.8-0.6,1.4-1.4,1.4c-0.8,0-1.4-0.6-1.4-1.4V5.5h-15v26.9C36.3,33.2,35.6,33.8,34.9,33.8"/>
<path class="st0" d="M43.8,30.9c-0.9,0-1.6-0.7-1.6-1.6V14.7c0-0.9,0.7-1.6,1.6-1.6c0.9,0,1.6,0.7,1.6,1.6v14.6
	C45.4,30.2,44.7,30.9,43.8,30.9"/>
<path class="st0" d="M18.6,64.4c-0.1,0-0.3,0-0.4-0.1L1,59.4c-0.4-0.1-0.7-0.3-0.9-0.7C0,58.4,0,58,0.1,57.6L16.3,1
	c0.2-0.8,1-1.2,1.8-1L35.2,5c0.4,0.1,0.7,0.3,0.9,0.7c0.2,0.3,0.2,0.7,0.1,1.1L20,63.4C19.8,64,19.2,64.4,18.6,64.4 M3.2,57.1
	l14.4,4.1L33.1,7.3L18.6,3.2L3.2,57.1z"/>
<path class="st0" d="M12.8,55.2c-0.4,0-0.8-0.1-1.3-0.2c-1.2-0.3-2.1-1.1-2.7-2.2c-0.6-1.1-0.7-2.3-0.4-3.4c0.3-1.2,1.1-2.1,2.2-2.7
	c1.1-0.6,2.3-0.7,3.4-0.4c1.2,0.3,2.1,1.1,2.7,2.2c0.6,1.1,0.7,2.3,0.4,3.4c-0.3,1.2-1.1,2.1-2.2,2.7C14.4,55,13.6,55.2,12.8,55.2
	 M12.8,49.3c-0.2,0-0.4,0.1-0.6,0.2c-0.3,0.2-0.5,0.5-0.6,0.8c-0.1,0.3-0.1,0.7,0.1,1c0.2,0.3,0.5,0.5,0.8,0.6
	c0.3,0.1,0.7,0.1,1-0.1c0.3-0.2,0.5-0.5,0.6-0.8c0.1-0.3,0.1-0.7-0.1-1c-0.2-0.3-0.5-0.5-0.8-0.6C13.1,49.3,13,49.3,12.8,49.3"/>
<path class="st0" d="M17.3,36.7c-0.1,0-0.3,0-0.4-0.1c-0.8-0.2-1.3-1.1-1.1-2l6-21c0.2-0.8,1.1-1.3,2-1.1c0.8,0.2,1.3,1.1,1.1,2
	l-6,21C18.6,36.2,18,36.7,17.3,36.7"/>
<path class="st0" d="M69.2,8.4H72V4.1c0-0.8-0.6-1.4-1.4-1.4H52.7c-0.8,0-1.4,0.6-1.4,1.4c0,0.8,0.6,1.4,1.4,1.4h16.4V8.4z"/>
<path class="st0" d="M69.2,22.6v12.3c0,0.8,0.6,1.4,1.4,1.4s1.4-0.6,1.4-1.4V22.6H69.2z"/>
<rect x="69.2" y="11.2" class="st0" width="2.8" height="8.6"/>
</svg>
