<svg xmlns="http://www.w3.org/2000/svg" viewBox="0 0 790 754.5">
<style>
    path{
    color:#005bac;
    }
    </style>

                        <path fill="currentColor" d="M790,275.5c0-6,0-6-6-12C568.6,29.9,568.6,29.9,568.6,29.9c-6,0-6-6-12-6l0,0c-293.3,0-293.3,0-293.3,0
	c0,29.9,0,29.9,0,29.9c281.3,0,281.3,0,281.3,0c0,179.6,0,179.6,0,179.6c0,29.9,23.9,53.9,53.9,53.9c161.6,0,161.6,0,161.6,0
	c0,215.6,0,215.6,0,215.6c0,18-12,29.9-29.9,29.9c-47.9,0-47.9,0-47.9,0c0-6,0-12,0-18c0-71.9-59.8-131.7-131.7-131.7
	S418.9,443.1,418.9,515c0,6,6,12,6,18c-365.1,0-365.1,0-365.1,0c-18,0-29.9-12-29.9-29.9c0-419.2,0-419.2,0-419.2
	c0-18,12-29.9,29.9-29.9c59.8,0,59.8,0,59.8,0c0-29.9,0-29.9,0-29.9c-59.8,0-59.8,0-59.8,0C29.9,24,0,53.9,0,83.8C0,503,0,503,0,503
	c0,29.9,29.9,59.9,59.8,59.9c365.1,0,365.1,0,365.1,0c-65.8,107.8-65.8,107.8-65.8,107.8c0,6,0,12,0,18c6,0,12,6,18,0
	c53.9-12,53.9-12,53.9-12h6c6,0,6,0,12,12c12,53.9,12,53.9,12,53.9c6,6,6,12,12,12c6,0,6,0,6,0c6,0,6-6,12-6
	c59.8-107.8,59.8-107.8,59.8-107.8v6c0,0,0-6,6-6c59.8,107.8,59.8,107.8,59.8,107.8s6,6,12,6l0,0c6,0,12-6,12-12
	c12-53.9,12-53.9,12-53.9c6-12,12-12,12-12c6,0,6,0,12,0c53.9,12,53.9,12,53.9,12c6,6,12,0,12,0c6-6,6-12,0-18
	c-59.8-107.8-59.8-107.8-59.8-107.8c47.9,0,47.9,0,47.9,0c29.9,0,59.8-29.9,59.8-59.9C790,275.5,790,275.5,790,275.5L790,275.5z
	 M598.5,263.5c-12,0-29.9-18-29.9-29.9c0-155.7,0-155.7,0-155.7c173.6,185.6,173.6,185.6,173.6,185.6H598.5L598.5,263.5L598.5,263.5
	z M484.8,700.6c-6-18-6-18-6-18c-6-29.9-23.9-35.9-41.9-35.9c-6,0-6,0-12,0c-23.9,6-23.9,6-23.9,6c41.9-65.9,41.9-65.9,41.9-65.9
	c18,24,41.9,41.9,77.8,53.9L484.8,700.6L484.8,700.6L484.8,700.6z M562.6,616.8c-6,0-6,0-12,0h-6l0,0c-41.9-6-71.8-29.9-89.8-65.9
	l0,0c0-12-6-24-6-35.9c0-59.9,47.9-101.8,101.7-101.8c59.8,0,101.7,41.9,101.7,101.8c0,12,0,24-6,35.9l0,0
	C634.4,586.8,598.5,610.8,562.6,616.8L562.6,616.8L562.6,616.8z M700.2,652.7c-18-6-18-6-18-6c-6,0-12,0-18,0
	c-12,0-29.9,6-35.9,35.9c-6,18-6,18-6,18c-35.9-59.9-35.9-59.9-35.9-59.9c29.9-12,59.8-29.9,71.8-53.9L700.2,652.7L700.2,652.7
	L700.2,652.7z M454.7,167.7c6.1,0,12.2,7.2,12.2,21.6c0,7.2-6.1,14.4-12.2,14.4c0,0,0,0-352.6,0c-12.2,0-18.2-7.2-18.2-14.4
	c0-14.4,6.1-21.6,18.2-21.6C102,167.7,102,167.7,454.7,167.7L454.7,167.7z M454.7,263.5c6.1,0,12.2,6,12.2,12c0,6-6.1,12-12.2,12
	c0,0,0,0-352.6,0c-12.2,0-18.2-6-18.2-12c0-6,6.1-12,18.2-12C102,263.5,102,263.5,454.7,263.5L454.7,263.5z M454.7,347.3
	c6.1,0,12.2,4.8,12.2,9.6c0,9.6-6.1,14.4-12.2,14.4c0,0,0,0-352.6,0c-12.2,0-18.2-4.8-18.2-14.4c0-4.8,6.1-9.6,18.2-9.6
	C102,347.3,102,347.3,454.7,347.3L454.7,347.3z M171.6,83.8L171.6,83.8V53.9h-27.9V24h27.9V0h27.9v24h27.9v29.9h-27.9v29.9H171.6
	L171.6,83.8z"></path>
                    </svg>