<svg
    xmlns="http://www.w3.org/2000/svg" viewBox="0 0 778.6 790">
	    <style>
    path{
    color:#005bac;
    }
    </style>
    <path fill="currentColor" d="M383.8,263.3c-71.3,0-131.6,60.3-131.6,131.7c0,71.3,60.3,131.7,131.6,131.7c76.8,0,131.6-60.3,131.6-131.7
	C515.4,323.7,460.6,263.3,383.8,263.3L383.8,263.3z M383.8,499.2c-54.8,0-104.2-49.4-104.2-104.2c0-60.3,49.3-104.2,104.2-104.2
	c60.3,0,104.2,43.9,104.2,104.2C488,449.9,444.1,499.2,383.8,499.2L383.8,499.2z M735,314.9c-49,0-49,0-49,0l0,0l0,0
	c-10.9,0-21.8-5.5-27.2-16.6l0,0c0-11-5.4-16.6-10.9-27.6l0,0c-5.4-11,0-22.1,5.4-27.6l0,0l0,0c38.1-33.1,38.1-33.1,38.1-33.1
	c5.4-11,10.9-22.1,10.9-33.1c0-11-5.4-22.1-10.9-33.1C637,88.4,637,88.4,637,88.4c-5.4-5.5-16.3-11-32.7-11
	c-10.9,0-21.8,5.5-27.2,11C539,127.1,539,127.1,539,127.1l0,0l0,0c-5.4,5.5-16.3,11-27.2,5.5l0,0c-10.9-5.5-16.3-5.5-27.2-11l0,0
	c-10.9-5.5-16.3-16.6-16.3-27.6l0,0l0,0c0-49.7,0-49.7,0-49.7c0-22.1-16.3-44.2-43.6-44.2c-70.8,0-70.8,0-70.8,0
	c-27.2,0-49,22.1-49,44.2c0,49.7,0,49.7,0,49.7l0,0l0,0c0,11-5.4,22.1-16.3,27.6l0,0c-5.4,5.5-16.3,5.5-21.8,11
	c-10.9,5.5-21.8,0-32.7-5.5l0,0l0,0c-32.7-38.7-32.7-38.7-32.7-38.7c-5.4-5.5-21.8-11-32.7-11s-21.8,5.5-27.2,11
	c-54.4,55.2-54.4,55.2-54.4,55.2c-10.9,11-10.9,22.1-10.9,33.1c0,11,0,22.1,10.9,33.1c32.7,33.1,32.7,33.1,32.7,33.1l0,0l0,0
	c10.9,5.5,10.9,16.6,5.4,27.6c0,11-5.4,16.6-5.4,27.6l0,0c-5.4,11-16.3,16.6-27.2,16.6l0,0l0,0c-49,0-49,0-49,0
	C16.3,314.9,0,337,0,359.1c0,77.3,0,77.3,0,77.3c0,22.1,16.3,44.2,43.6,44.2c49,0,49,0,49,0l0,0l0,0c10.9,0,21.8,5.5,27.2,16.6l0,0
	c0,5.5,5.4,16.6,5.4,22.1c5.4,11,5.4,22.1-5.4,33.1l0,0l0,0c-32.7,33.1-32.7,33.1-32.7,33.1c-10.9,11-10.9,22.1-10.9,33.1
	c0,11,0,22.1,10.9,33.1c54.4,49.7,54.4,49.7,54.4,49.7c5.4,11,16.3,16.6,27.2,16.6s27.2-5.5,32.7-16.6
	c32.7-33.1,32.7-33.1,32.7-33.1l0,0l0,0c10.9-11,21.8-11,32.7-5.5l0,0c5.4,0,16.3,5.5,21.8,11l0,0c10.9,0,16.3,11,16.3,22.1l0,0l0,0
	c0,49.7,0,49.7,0,49.7c0,27.6,21.8,44.2,49,44.2c70.8,0,70.8,0,70.8,0c27.2,0,43.6-16.6,43.6-44.2c0-49.7,0-49.7,0-49.7l0,0l0,0
	c0-11,5.4-22.1,16.3-22.1l0,0c10.9-5.5,16.3-11,27.2-11l0,0c10.9-5.5,21.8-5.5,27.2,5.5l0,0l0,0c38.1,33.1,38.1,33.1,38.1,33.1
	c5.4,11,16.3,16.6,27.2,16.6c16.3,0,27.2-5.5,32.7-16.6c54.4-49.7,54.4-49.7,54.4-49.7c5.4-11,10.9-22.1,10.9-33.1
	c0-11-5.4-22.1-10.9-33.1c-38.1-33.1-38.1-33.1-38.1-33.1l0,0l0,0c-5.4-11-10.9-22.1-5.4-33.1l0,0c5.4-5.5,10.9-16.6,10.9-22.1
	c5.4-11,16.3-16.6,27.2-16.6l0,0l0,0c49,0,49,0,49,0c21.8,0,43.6-22.1,43.6-44.2c0-77.3,0-77.3,0-77.3
	C778.6,337,756.8,314.9,735,314.9L735,314.9z M751.4,436.4c0,5.5-10.9,16.6-16.3,16.6c-49,0-49,0-49,0l0,0l0,0
	c-21.8,0-43.6,11-49,33.1l0,0l0,0c-5.4,5.5-10.9,16.6-16.3,27.6c0,0,0,0,0,5.5c-5.4,16.6,0,38.7,16.3,49.7l0,0l0,0
	c32.7,38.7,32.7,38.7,32.7,38.7c5.4,0,5.4,5.5,5.4,11c0,5.5,0,5.5-5.4,11c-49,55.2-49,55.2-49,55.2c-5.4,0-10.9,5.5-16.3,5.5
	c-5.4,0-5.4-5.5-10.9-5.5c-32.7-38.7-32.7-38.7-32.7-38.7l0,0l0,0c-16.3-11-32.7-16.6-54.4-11h-5.4c-5.4,5.5-16.3,5.5-27.2,11l0,0
	c-21.8,11-32.7,33.1-32.7,49.7l0,0l0,0c0,49.7,0,49.7,0,49.7c0,11-5.4,16.6-16.3,16.6c-70.8,0-70.8,0-70.8,0
	c-10.9,0-21.8-5.5-21.8-16.6c0-49.7,0-49.7,0-49.7l0,0l0,0c0-22.1-10.9-38.7-27.2-49.7l0,0l0,0h-5.4l0,0c-5.4-5.5-16.3-5.5-21.8-11
	l0,0l0,0c-21.8-5.5-43.6,0-59.9,11l0,0l0,0C185.1,685,185.1,685,185.1,685c-10.9,5.5-21.8,5.5-27.2,0c-49-55.2-49-55.2-49-55.2
	c-5.4-5.5-5.4-5.5-5.4-11c0-5.5,0-11,5.4-11c32.7-38.7,32.7-38.7,32.7-38.7l0,0l0,0c16.3-16.6,16.3-38.7,10.9-55.2l0,0v-5.5
	c-5.4-5.5-5.4-16.6-10.9-27.6c0,0,0-5.5-5.4-5.5c-10.9-16.6-27.2-22.1-43.6-22.1l0,0l0,0c-49,0-49,0-49,0c-10.9,0-16.3-11-16.3-16.6
	c0-77.3,0-77.3,0-77.3c0-11,5.4-16.6,16.3-16.6c49,0,49,0,49,0l0,0l0,0c16.3,0,38.1-11,43.6-27.6c5.4,0,5.4,0,5.4-5.5
	c5.4-11,5.4-16.6,10.9-27.6v-5.5c5.4-16.6,0-38.7-10.9-55.2l0,0l0,0c-32.7-33.1-32.7-33.1-32.7-33.1c-5.4-5.5-5.4-5.5-5.4-11
	s0-11,5.4-11c49-55.2,49-55.2,49-55.2c5.4-5.5,16.3-5.5,27.2,0c32.7,33.1,32.7,33.1,32.7,33.1l0,0l0,0c10.9,11,21.8,16.6,38.1,16.6
	c5.4,0,10.9,0,16.3,0l0,0c10.9-5.5,21.8-11,32.7-16.6h5.4c16.3-11,21.8-27.6,21.8-49.7l0,0l0,0c0-49.7,0-49.7,0-49.7
	c0-5.5,10.9-16.6,21.8-16.6c70.8,0,70.8,0,70.8,0c10.9,0,16.3,11,16.3,16.6c0,49.7,0,49.7,0,49.7l0,0l0,0
	c0,22.1,10.9,38.7,27.2,49.7c5.4,0,5.4,0,5.4,5.5c10.9,0,21.8,5.5,27.2,11c5.4,0,5.4,0,5.4,0l0,0c5.4,0,10.9,0,16.3,0
	c10.9,0,27.2-5.5,38.1-16.6l0,0l0,0c32.7-33.1,32.7-33.1,32.7-33.1c5.4-5.5,16.3-5.5,27.2,0c49,55.2,49,55.2,49,55.2
	c5.4,0,5.4,5.5,5.4,11s0,5.5-5.4,11C637,221,637,221,637,221l0,0l0,0c-16.3,16.6-21.8,38.7-16.3,55.2v5.5
	c5.4,11,10.9,16.6,16.3,27.6v5.5c10.9,16.6,27.2,27.6,49,27.6l0,0l0,0c49,0,49,0,49,0c5.4,0,16.3,5.5,16.3,16.6V436.4L751.4,436.4
	L751.4,436.4z M402.1,351.1L402.1,351.1v29.3h25.6v29.3h-25.6v29.3h-25.6v-29.3h-25.6v-29.3h25.6v-29.3H402.1L402.1,351.1z"></path>
</svg>