<svg version="1.1"
	 xmlns="http://www.w3.org/2000/svg" xmlns:xlink="http://www.w3.org/1999/xlink" xmlns:a="http://ns.adobe.com/AdobeSVGViewerExtensions/3.0/"
	 x="0px" y="0px" width="80.3px" height="73.4px" viewBox="0 0 80.3 73.4" style="enable-background:new 0 0 80.3 73.4;"
	 xml:space="preserve">
<style type="text/css">
	.st0{fill:#005BAA;}
</style>
<defs>
</defs>
<path class="st0" d="M69.3,73.4H42.2c-6.1,0-11-5.2-11-11.6c0-4.5,2.5-8.6,6.4-10.5c0.2-4.4,3.6-7.9,7.8-7.9c1.1,0,2.3,0.3,3.3,0.8
	c2.3-4.6,6.9-7.6,11.8-7.6C68,36.6,74,43,74,50.8c0,0.2,0,0.3,0,0.5c3.9,1.9,6.4,6,6.4,10.5C80.3,68.2,75.4,73.4,69.3,73.4
	 M45.4,46.3c-2.7,0-5,2.4-5,5.4c0,0.2,0,0.3,0,0.5c0.1,0.6-0.3,1.2-0.9,1.5c-3.3,1.2-5.5,4.5-5.5,8.3c0,4.8,3.7,8.8,8.2,8.8h27.1
	c4.5,0,8.2-3.9,8.2-8.8c0-3.7-2.2-7.1-5.5-8.3c-0.6-0.2-1-0.8-0.9-1.5c0-0.5,0.1-0.9,0.1-1.3c0-6.2-4.7-11.3-10.5-11.3
	c-4.3,0-8.3,2.9-9.9,7.3c-0.2,0.4-0.5,0.8-1,0.9c-0.5,0.1-0.9,0-1.3-0.3C47.6,46.7,46.5,46.3,45.4,46.3"/>
<rect x="7.9" y="48" class="st0" width="8.6" height="2.9"/>
<path class="st0" d="M78.8,33.6L40.6,0.3C40.3,0.1,40.1,0,39.8,0c0,0-0.1,0-0.1,0c0,0-0.1,0-0.1,0c-0.3,0-0.6,0.1-0.8,0.3L0.5,33.6
	c-0.6,0.5-0.7,1.4-0.1,2c0.3,0.3,0.7,0.5,1.1,0.5c0.3,0,0.7-0.1,0.9-0.3L39.6,3.3l0-0.1l0,0.1l37.3,32.5c0.3,0.2,0.6,0.3,0.9,0.3
	c0.4,0,0.8-0.2,1.1-0.5C79.5,35,79.4,34.1,78.8,33.6"/>
<path class="st0" d="M29.1,69.1c0,0.8-0.6,1.4-1.4,1.4s-1.4-0.6-1.4-1.4c0-0.8,0.6-1.4,1.4-1.4S29.1,68.3,29.1,69.1"/>
<path class="st0" d="M62.7,32.6c0,0.8-0.6,1.4-1.4,1.4c-0.8,0-1.4-0.6-1.4-1.4c0-0.8,0.6-1.4,1.4-1.4C62,31.1,62.7,31.8,62.7,32.6"
	/>
<path class="st0" d="M28.4,56c-0.8,0-1.4-0.6-1.4-1.4V39.4c0-0.8,0.6-1.4,1.4-1.4h19.1c0.8,0,1.4,0.6,1.4,1.4c0,0.8-0.6,1.4-1.4,1.4
	H29.8v13.8C29.8,55.3,29.2,56,28.4,56"/>
<rect x="10.7" y="45.1" class="st0" width="2.8" height="8.5"/>
<path class="st0" d="M13.6,56.5h-2.9v12.6c0,0.8,0.6,1.4,1.4,1.4h15.6v-2.9H13.6V56.5z"/>
<path class="st0" d="M40.7,12.5c-0.3-0.3-0.6-0.4-1-0.3c-0.4,0-0.7,0.1-1,0.3L11.2,36.8c-0.3,0.3-0.5,0.7-0.5,1.1v4.4h2.9v-3.8
	l26.1-23.1l0.1-0.2l0.1,0.2l20.5,18.2l1.8-2.2L40.7,12.5z"/>
</svg>
