<svg xmlns="http://www.w3.org/2000/svg" viewBox="0 0 418.3 459.9">
<style>
    path,rect{
    fill:#005bac;
    }
    </style>
	<path class="st0" d="M8.7,54.8c-4.8,0-8.7,3.9-8.7,8.8v332.7c0,4.8,3.9,8.8,8.7,8.8c4.9,0,8.7-3.9,8.7-8.8V63.6
		C17.5,58.8,13.6,54.8,8.7,54.8"/>
		<path class="st0" d="M8.7,72.3c-4.8,0-8.7-3.9-8.7-8.7C0,28.5,28.5,0,63.6,0c4.8,0,8.7,3.9,8.7,8.7c0,4.8-3.9,8.7-8.7,8.7
			c-25.4,0-46.1,20.7-46.1,46.1C17.5,68.4,13.6,72.3,8.7,72.3"/>
		<path class="st0" d="M310.5,72.3c-4.8,0-8.7-3.9-8.7-8.7c0-25.4-20.7-46.1-46.1-46.1c-4.8,0-8.7-3.9-8.7-8.7
			c0-4.8,3.9-8.7,8.7-8.7c35.1,0,63.6,28.5,63.6,63.6C319.2,68.4,315.3,72.3,310.5,72.3"/>
		<path class="st0" d="M63.6,459.9C28.5,459.9,0,431.4,0,396.3c0-4.8,3.9-8.7,8.7-8.7c4.9,0,8.7,3.9,8.7,8.7
			c0,25.4,20.7,46.1,46.1,46.1c4.8,0,8.7,3.9,8.7,8.7C72.3,456,68.4,459.9,63.6,459.9"/>
		<path class="st0" d="M255.6,459.9c-4.8,0-8.7-3.9-8.7-8.8c0-4.8,3.9-8.7,8.7-8.7c25.4,0,46.1-20.7,46.1-46.1
			c0-4.8,3.9-8.7,8.7-8.7c4.8,0,8.7,3.9,8.7,8.7C319.2,431.4,290.7,459.9,255.6,459.9"/>
		<path class="st0" d="M310.5,108.8c-4.8,0-8.7-3.9-8.7-8.7V63.6c0-4.8,3.9-8.8,8.7-8.8c4.8,0,8.7,3.9,8.7,8.8v36.5
			C319.2,104.9,315.3,108.8,310.5,108.8"/>
		<path class="st0" d="M255.6,459.9H63.6c-4.8,0-8.7-3.9-8.7-8.8c0-4.8,3.9-8.7,8.7-8.7h192.1c4.9,0,8.7,3.9,8.7,8.7
			C264.4,456,260.5,459.9,255.6,459.9"/>
		<path class="st0" d="M255.6,17.5H63.6c-4.8,0-8.7-3.9-8.7-8.7c0-4.8,3.9-8.7,8.7-8.7h192.1c4.9,0,8.7,3.9,8.7,8.7
			C264.4,13.6,260.5,17.5,255.6,17.5"/>
		<path class="st0" d="M49.7,395.4l22.1-65.9L365.4,35.9c3.4-3.4,9-3.4,12.4,0c3.4,3.4,3.4,9,0,12.4L87.1,339l-9.6,28.7l28.7-9.6
			L396.9,67.3c3.4-3.4,8.9-3.4,12.4,0c3.4,3.4,3.4,9,0,12.4L115.6,373.3L49.7,395.4z"/>
		<path class="st0" d="M403.1,82.3c-2.2,0-4.5-0.8-6.2-2.6c-3.4-3.4-3.4-9,0-12.4c5.3-5.3,5.3-13.8,0-19.1c-5.3-5.3-13.8-5.3-19.1,0
			c-3.4,3.4-8.9,3.4-12.4,0c-3.4-3.4-3.4-8.9,0-12.4c5.8-5.8,13.7-9.1,21.9-9.1s16.1,3.2,21.9,9.1c12.1,12.1,12.1,31.8,0,43.8
			C407.6,81.4,405.3,82.3,403.1,82.3"/>
		<rect x="286.3" y="327.1" class="st0" width="48.4" height="17.5"/>
		<rect x="301.7" y="311.7" class="st0" width="17.5" height="48.4"/>
		<path class="st0" d="M250.6,75.2h-182c-4.8,0-8.7-3.9-8.7-8.7c0-4.8,3.9-8.7,8.7-8.7h182c4.8,0,8.7,3.9,8.7,8.7
			C259.3,71.3,255.4,75.2,250.6,75.2"/>
		<path class="st0" d="M189.1,132.9H68.6c-4.8,0-8.7-3.9-8.7-8.7c0-4.8,3.9-8.7,8.7-8.7h120.5c4.8,0,8.7,3.9,8.7,8.7
			C197.8,129,193.9,132.9,189.1,132.9"/>
		<path class="st0" d="M127.6,190.6H68.6c-4.8,0-8.7-3.9-8.7-8.7c0-4.8,3.9-8.7,8.7-8.7h58.9c4.8,0,8.7,3.9,8.7,8.7
			C136.3,186.7,132.4,190.6,127.6,190.6"/>
		<path class="st0" d="M319.2,294.1V167.6c0-4.8-3.9-8.8-8.7-8.8c-4.8,0-8.7,3.9-8.7,8.8v126.5H319.2z"/>
		<path class="st0" d="M301.7,377.6v18.7c0,4.8,3.9,8.8,8.7,8.8c4.8,0,8.7-3.9,8.7-8.8v-18.7H301.7z"/>
</svg>
